<svg id="Layer_1" data-name="Layer 1" xmlns="http://www.w3.org/2000/svg" viewBox="0 0 80 80"><defs><style>.cls-1{fill:#fd6f39;}</style></defs><path class="cls-1" d="M29.41,68.48h-1V63l-5.67-.06c-4.88,0-7.59-5.37-7.64-15v-.09l-3.68-2.5a3,3,0,0,1-.94-4l4.61-8.22a2.14,2.14,0,0,0,.26-.91C16.25,14.28,33,12.54,33.15,12.53l.09,1c-.65.06-16,1.69-16.9,18.73A3.24,3.24,0,0,1,16,33.6l-4.62,8.22A2,2,0,0,0,12,44.51l3.79,2.57a.74.74,0,0,1,.33.62v.22c0,5.21.93,14,6.65,14l6.66.07Z"/><path class="cls-1" d="M50.85,68.52c-1.32-14.13,4.39-20.68,4.64-20.95l.74.67c0,.06-5.66,6.52-4.38,20.19Z"/><g id="_366_Cog_Setting_Gear" data-name="366, Cog, Setting, Gear"><path class="cls-1" d="M49.45,48.44h-2.3a2.33,2.33,0,0,1-2.33-2l-.27-2.5a1.42,1.42,0,0,0-.91-1.13,8.62,8.62,0,0,1-1.39-.55,1.38,1.38,0,0,0-1.44.15l-2,1.59a2.29,2.29,0,0,1-3.1-.16l-1.63-1.61A2.25,2.25,0,0,1,34,39.1l1.55-1.94a1.22,1.22,0,0,0,.15-1.41l-.15-.32a9,9,0,0,1-.43-1.1A1.25,1.25,0,0,0,34,33.48l-2.51-.27a2.26,2.26,0,0,1-2.07-2.31V28.62a2.3,2.3,0,0,1,2.05-2.3L34,26.05a1.42,1.42,0,0,0,1.15-.9,7.69,7.69,0,0,1,.56-1.38,1.37,1.37,0,0,0-.15-1.42L34,20.42a2.24,2.24,0,0,1,.17-3.08l1.63-1.61a2.29,2.29,0,0,1,3.1-.17l2,1.54a1.25,1.25,0,0,0,1.43.14l.35-.15c.36-.15.7-.3,1.09-.42a1.24,1.24,0,0,0,.86-1.1l.27-2.49A2.27,2.27,0,0,1,47.15,11h2.3a2.32,2.32,0,0,1,2.32,2l.28,2.5a1.4,1.4,0,0,0,.9,1.13,8,8,0,0,1,1.39.55,1.4,1.4,0,0,0,1.45-.15l2-1.53a2.29,2.29,0,0,1,3.1.17l1.63,1.61a2.26,2.26,0,0,1,.17,3.08L61,22.37a1.22,1.22,0,0,0-.14,1.4l.15.35a7.34,7.34,0,0,1,.42,1.08,1.26,1.26,0,0,0,1.12.85l2.52.27a2.25,2.25,0,0,1,2.07,2.3V30.9a2.31,2.31,0,0,1-2.05,2.31l-2.53.27a1.42,1.42,0,0,0-1.14.9,8.89,8.89,0,0,1-.56,1.38A1.35,1.35,0,0,0,61,37.17l1.61,1.93a2.26,2.26,0,0,1-.16,3.09L60.84,43.8a2.31,2.31,0,0,1-3.1.17l-2-1.62a1.26,1.26,0,0,0-1.43-.13l-.35.15a7.44,7.44,0,0,1-1.09.41,1.25,1.25,0,0,0-.85,1.11l-.28,2.49A2.27,2.27,0,0,1,49.45,48.44ZM41.7,41.08a2.11,2.11,0,0,1,1,.25,7.94,7.94,0,0,0,1.24.49,2.41,2.41,0,0,1,1.58,2l.27,2.47a1.33,1.33,0,0,0,1.34,1.17h2.3a1.29,1.29,0,0,0,1.33-1.15l.27-2.5a2.26,2.26,0,0,1,1.58-2,6.31,6.31,0,0,0,1-.37l.34-.14a2.21,2.21,0,0,1,2.48.28l2,1.6a1.29,1.29,0,0,0,1.77-.1l1.62-1.61a1.25,1.25,0,0,0,.1-1.74L60.24,37.8A2.36,2.36,0,0,1,60,35.29a6.85,6.85,0,0,0,.5-1.24,2.46,2.46,0,0,1,2-1.57l2.5-.26a1.31,1.31,0,0,0,1.18-1.32V28.62A1.28,1.28,0,0,0,65,27.31L62.47,27a2.27,2.27,0,0,1-2-1.56,6.74,6.74,0,0,0-.37-1L60,24.19a2.19,2.19,0,0,1,.29-2.47l1.62-1.93a1.26,1.26,0,0,0-.11-1.74l-1.62-1.61a1.29,1.29,0,0,0-1.77-.1l-2,1.54a2.4,2.4,0,0,1-2.52.25,7.32,7.32,0,0,0-1.25-.49,2.44,2.44,0,0,1-1.58-2l-.27-2.47A1.32,1.32,0,0,0,49.45,12h-2.3a1.28,1.28,0,0,0-1.33,1.15l-.28,2.5a2.21,2.21,0,0,1-1.57,2A8.44,8.44,0,0,0,43,18l-.33.14a2.24,2.24,0,0,1-2.49-.28l-1.94-1.53a1.3,1.3,0,0,0-1.78.1l-1.63,1.61a1.26,1.26,0,0,0-.1,1.74l1.56,1.95a2.32,2.32,0,0,1,.25,2.5,7.23,7.23,0,0,0-.49,1.24,2.45,2.45,0,0,1-2,1.56l-2.5.27a1.31,1.31,0,0,0-1.18,1.31V30.9a1.27,1.27,0,0,0,1.16,1.31l2.52.28A2.23,2.23,0,0,1,36,34a7.13,7.13,0,0,0,.39,1l.14.31a2.21,2.21,0,0,1-.29,2.48l-1.54,1.92a1.26,1.26,0,0,0,.09,1.75l1.63,1.61a1.3,1.3,0,0,0,1.77.1l2-1.61A2.58,2.58,0,0,1,41.7,41.08ZM48.31,38a8.22,8.22,0,1,1,8.28-8.22A8.36,8.36,0,0,1,48.31,38Zm0-15.43A7.22,7.22,0,1,0,48.3,37a7.36,7.36,0,0,0,7.29-7.22A7.26,7.26,0,0,0,48.3,22.55Z"/></g></svg>