<?xml version="1.0" encoding="UTF-8"?><svg id="Layer_1" xmlns="http://www.w3.org/2000/svg" viewBox="0 0 80 80"><defs><style>.cls-1{fill:#fd6f39;}</style></defs><path class="cls-1" d="M39.03,76l-.32-.3c-6.08-5.64-11.41-12.03-15.85-19-2.55-4-4.83-8.24-6.77-12.59-1.98-4.45-2.84-9.23-2.49-13.84.49-6.26,2.66-11.71,6.47-16.21,2.56-3.03,9.7-10.08,20.7-9.91,12.36.17,19.51,9.23,20.82,11.05,8.08,11.22,3.84,23.82,3.33,25.22-2.79,7.28-6.56,14.12-11.21,20.35-4.14,5.54-8.96,10.57-14.34,14.95l-.34.27ZM40.42,5.16c-10.38,0-17.14,6.66-19.59,9.55-3.67,4.34-5.77,9.6-6.24,15.64-.34,4.44.49,9.06,2.4,13.35,1.92,4.31,4.17,8.5,6.7,12.46,4.32,6.77,9.48,13,15.37,18.51,5.17-4.26,9.83-9.13,13.83-14.49,4.6-6.15,8.32-12.91,11.08-20.1.49-1.34,4.58-13.49-3.2-24.29-1.26-1.75-8.14-10.47-20.02-10.63-.11,0-.23,0-.34,0Z"/><path class="cls-1" d="M40,41.61c-6.09,0-11.04-4.95-11.04-11.04s4.95-11.04,11.04-11.04,11.04,4.95,11.04,11.04-4.95,11.04-11.04,11.04ZM40,20.52c-5.54,0-10.04,4.5-10.04,10.04s4.5,10.04,10.04,10.04,10.04-4.5,10.04-10.04-4.5-10.04-10.04-10.04Z"/></svg>