<?xml version="1.0" encoding="UTF-8"?><svg id="Layer_1" xmlns="http://www.w3.org/2000/svg" viewBox="0 0 80 80"><defs><style>.cls-1{fill:#fd6f39;}</style></defs><path class="cls-1" d="M62.74,27.92c-2.03,0-3.69-1.9-3.69-4.24s1.65-4.24,3.69-4.24,3.69,1.9,3.69,4.24-1.65,4.24-3.69,4.24ZM62.74,20.16c-1.63,0-2.96,1.58-2.96,3.52s1.33,3.52,2.96,3.52,2.96-1.58,2.96-3.52-1.33-3.52-2.96-3.52Z"/><path class="cls-1" d="M20.49,59.59c-2.12,0-3.85-1.73-3.85-3.85s1.73-3.85,3.85-3.85,3.85,1.73,3.85,3.85-1.73,3.85-3.85,3.85ZM20.49,52.59c-1.73,0-3.15,1.41-3.15,3.14s1.41,3.14,3.15,3.14,3.14-1.41,3.14-3.14-1.41-3.14-3.14-3.14Z"/><path class="cls-1" d="M34.59,59.3c-2.12,0-3.85-1.73-3.85-3.85s1.73-3.85,3.85-3.85,3.85,1.73,3.85,3.85-1.73,3.85-3.85,3.85ZM34.59,52.3c-1.73,0-3.14,1.41-3.14,3.15s1.41,3.14,3.14,3.14,3.14-1.41,3.14-3.14-1.41-3.15-3.14-3.15Z"/><path class="cls-1" d="M48.97,59.59c-2.12,0-3.85-1.73-3.85-3.85s1.73-3.85,3.85-3.85,3.85,1.73,3.85,3.85-1.73,3.85-3.85,3.85ZM48.97,52.59c-1.73,0-3.14,1.41-3.14,3.14s1.41,3.14,3.14,3.14,3.15-1.41,3.15-3.14-1.41-3.14-3.15-3.14Z"/><path class="cls-1" d="M30.13,65.9h-5.11v-2.58s-.04-.18-.15-.32c-.14-.18-.34-.25-.42-.27h-7.84c-.05.01-.28.04-.46.22-.18.18-.19.4-.19.47l-.03,2.36-3.61-.09.02-.37c.06-.93.36-2.74,1.69-4.4.79-.99,1.84-1.79,3.02-2.3l.2-.08.17.14c.36.3,1.69,1.25,3.48,1.04,1.3-.15,2.19-.83,2.61-1.23l.21-.2.24.17c.77.56,1.5,1.18,2.17,1.85.52.51,1.01,1.06,1.46,1.64.38-.65.84-1.25,1.36-1.8.61-.65,1.31-1.22,2.08-1.7l.24-.15.2.2c.25.25,1.57,1.49,3.54,1.34,1.48-.12,2.47-.98,2.82-1.34l.18-.18.23.11c.92.46,1.73,1.07,2.41,1.81.45.49.83,1.02,1.14,1.6.48-.62,1-1.21,1.55-1.76.6-.59,1.24-1.13,1.92-1.62l.23-.17.21.19c.49.43,1.53,1.16,3.02,1.23,1.66.1,2.87-.7,3.31-1.05l.17-.13.2.09c.83.39,2.39,1.31,3.45,3.12.62,1.06.98,2.29,1.04,3.54l.02.37h-3.38v-2.21c-.04-.14-.12-.32-.29-.5-.18-.19-.4-.28-.53-.32h-7.67c-.07,0-.3.04-.5.23-.21.2-.25.46-.26.55v2.31s-4.9,0-4.9,0v-2.25s-.05-.26-.24-.46c-.19-.21-.43-.27-.55-.28h-7.8c-.06.02-.24.08-.39.22-.24.23-.28.52-.28.64v2.29ZM25.73,65.19h3.7v-1.6c0-.22.07-.73.5-1.14.28-.27.6-.37.82-.41h7.91c.26.03.67.13,1.02.5.31.33.4.7.42.89v1.59h3.49v-1.63c.01-.21.09-.67.48-1.04.35-.34.76-.41.97-.43h7.79s.04,0,.04,0c.24.06.59.2.9.52.29.3.42.63.47.85v.09s.01,1.55.01,1.55h1.92c-.1-1.01-.42-1.98-.92-2.84-.89-1.52-2.16-2.35-2.95-2.75-.61.43-1.89,1.15-3.6,1.06-1.51-.08-2.61-.74-3.23-1.23-.57.43-1.11.89-1.62,1.39-.67.65-1.28,1.37-1.82,2.13l-.35.5-.25-.55c-.33-.71-.76-1.36-1.29-1.94-.57-.62-1.24-1.14-1.99-1.54-.52.47-1.58,1.25-3.08,1.37-1.91.15-3.29-.83-3.88-1.35-.62.41-1.2.89-1.71,1.44-.6.63-1.1,1.35-1.51,2.12l-.26.5-.34-.45c-.53-.71-1.11-1.38-1.73-1.99-.58-.58-1.2-1.12-1.86-1.61-.54.46-1.49,1.07-2.79,1.22-1.84.21-3.25-.63-3.83-1.06-1,.47-1.88,1.16-2.56,2.01-1.05,1.32-1.4,2.74-1.5,3.64l2.15.05.02-1.65c0-.17.04-.59.39-.95.35-.36.78-.42.95-.42h7.94c.27.05.62.18.89.53.21.28.28.57.29.71v1.91Z"/><path class="cls-1" d="M59.92,60.59c-1.1,0-2.09-.89-2.24-2.05l-.12-24.92-8.44-.19c-1.01-.17-1.71-.98-1.71-1.93,0-1.01.79-1.88,1.82-1.97h.03s18.9-.21,18.9-.21c.66.09,1.83.39,2.87,1.35.94.86,1.35,1.86,1.54,2.54v.09s.01,7.14.01,7.14c-.17,1.02-.99,1.74-1.96,1.77-1.01.06-1.9-.71-2.07-1.71v-6.75c-.07-.04-.14-.09-.27-.08-.09,0-.16.04-.21.08v24.4c-.03.7-.34,1.32-.85,1.77-.49.42-1.12.64-1.73.59-1.19-.1-2.13-1.1-2.18-2.34v-10.84c-.16-.29-.46-.46-.75-.39-.25.05-.4.28-.45.38v11.17c-.12,1.09-.93,1.95-1.92,2.08-.08.01-.17.02-.25.02ZM49.27,30.24c-.66.06-1.17.62-1.17,1.26,0,.6.47,1.13,1.08,1.24l9.08.2.12,25.57c.11.83.88,1.48,1.71,1.38.68-.09,1.23-.68,1.31-1.42v-11.28s.02-.06.02-.06c.05-.12.32-.72.99-.86.62-.14,1.29.23,1.57.85l.03.15v10.91c.04.85.71,1.59,1.54,1.65.42.04.87-.12,1.21-.42.37-.32.58-.77.61-1.25v-24.66l.08-.1c.07-.09.34-.38.79-.41.55-.02.87.33.93.4l.08.1v6.98c.11.6.71,1.07,1.35,1.07.63-.02,1.17-.49,1.28-1.12v-7.03c-.17-.59-.53-1.43-1.33-2.16-.9-.83-1.92-1.09-2.44-1.17l-18.83.21Z"/><path class="cls-1" d="M52.73,49.27H17.45c-.22,0-.75-.06-1.19-.49-.54-.52-.54-1.19-.53-1.38v-28.61c-.02-.13-.04-.58.26-.99.41-.56,1.04-.58,1.17-.58h14.58c-.39-1.18-.22-2.44.48-3.39.25-.34,1.17-1.44,2.71-1.45h.03c1.83,0,2.83,1.57,2.94,1.75.71,1.18.51,2.41.31,3.08,7.8-.11,13.38-.11,14.27.01.17.02.71.09,1.13.51.44.44.52.97.53,1.18v8.49h-3.12v-7.04l-32.23-.19v26h32.33v-10.3h3.02v11.5c-.03.4-.15.76-.35,1.07-.31.48-.74.72-.97.82l-.07.03ZM17.15,17.91s-.38,0-.59.3c-.16.22-.14.46-.13.53v28.68c0,.1,0,.54.32.85.26.25.58.29.71.29h35.13c.16-.08.41-.24.6-.52.17-.27.23-.54.24-.71v-10.78h-1.61v10.3H18.07v-27.41l33.64.2v7.04h1.71v-7.77c0-.11-.05-.43-.32-.69-.25-.25-.6-.29-.73-.31-.87-.11-6.77-.11-14.69,0h-.58s.26-.51.26-.51c.03-.06.75-1.54-.08-2.92-.09-.14-.89-1.41-2.33-1.41h-.02c-1.24,0-2.01.97-2.15,1.16-.64.88-.73,2.1-.21,3.18l.24.5h-15.66Z"/><path class="cls-1" d="M34.92,17.66c-1.06,0-1.93-.87-1.93-1.93s.87-1.93,1.93-1.93,1.93.87,1.93,1.93-.87,1.93-1.93,1.93ZM34.92,14.57c-.64,0-1.17.52-1.17,1.17s.52,1.17,1.17,1.17,1.17-.52,1.17-1.17-.52-1.17-1.17-1.17Z"/><path class="cls-1" d="M26.32,37.26c-1.44.22-2.78-.77-3.01-2.2s.77-2.78,2.2-3.01,2.78.77,3.01,2.2-.77,2.78-2.2,3ZM25.58,32.5c-1.19.18-2,1.3-1.82,2.49s1.3,2,2.49,1.82,2-1.3,1.82-2.49-1.3-2-2.49-1.82Z"/><path class="cls-1" d="M26.64,39.3l-.32-.86c-.14.02-.29.02-.43.02-.27,0-.53-.03-.79-.08l-.36.83-1.63-.77.42-.79c-.15-.13-.29-.27-.42-.42-.15-.17-.29-.35-.42-.54l-.85.3-.57-1.68.85-.28c0-.23,0-.47.02-.7.02-.2.04-.41.08-.6l-.8-.42.71-1.55.87.42c.15-.16.31-.32.48-.46.15-.12.31-.24.47-.34l-.26-.93,1.69-.5.23.83c.19-.01.38-.01.57,0,.22.02.43.05.64.11l.42-.85,1.58.75-.42.85c.16.13.31.26.44.42.14.16.27.34.38.52l.93-.23.5,1.63-.87.25c.03.18.05.37.05.55,0,.24-.03.48-.09.72l.8.34-.74,1.64-.87-.42c-.1.13-.2.26-.32.37-.18.18-.39.33-.62.45l.3.9-1.66.52ZM26.62,37.94l.3.8.8-.25-.28-.84.19-.08c.25-.11.48-.27.67-.46.14-.14.26-.29.36-.46l.11-.18.81.4.36-.79-.74-.32.06-.2c.08-.25.12-.52.12-.78,0-.22-.02-.44-.08-.65l-.05-.21.84-.24-.24-.78-.86.21-.08-.16c-.11-.21-.24-.41-.4-.59-.15-.17-.33-.33-.52-.46l-.16-.11.39-.79-.76-.36-.4.79-.18-.06c-.24-.07-.48-.12-.73-.14-.22-.02-.45-.01-.68.01l-.19.02-.21-.76-.82.24.23.84-.16.09c-.2.11-.39.24-.56.38-.19.16-.37.34-.53.53l-.11.14-.77-.37-.34.74.72.38-.04.17c-.05.23-.08.48-.1.72-.02.27-.02.54,0,.81v.18s-.74.25-.74.25l.28.81.76-.26.1.16c.14.23.3.44.47.63.16.18.33.34.51.49l.14.12-.37.69.78.36.33-.75.19.05c.28.07.58.11.87.11.18,0,.36-.01.54-.04h0s.18-.03.18-.03Z"/><path class="cls-1" d="M33.67,42.77c-1.16.32-2.37-.36-2.69-1.52s.36-2.37,1.52-2.69,2.37.36,2.69,1.52-.36,2.37-1.52,2.69ZM32.6,38.93c-.96.27-1.52,1.27-1.26,2.23s1.27,1.52,2.23,1.26,1.52-1.27,1.26-2.23-1.27-1.52-2.23-1.26Z"/><path class="cls-1" d="M34.14,44.42l-.35-.67c-.12.03-.24.05-.35.06-.22.03-.44.03-.66.01l-.21.72-1.42-.47.27-.69c-.14-.09-.26-.19-.39-.3-.14-.12-.28-.26-.4-.41l-.67.33-.64-1.33.68-.31c-.03-.19-.05-.38-.05-.58,0-.17,0-.34,0-.51l-.7-.27.44-1.35.76.26c.11-.15.22-.29.35-.42.11-.12.23-.23.36-.33l-.31-.74,1.34-.58.27.66c.16-.03.31-.05.47-.05.18,0,.36,0,.54.03l.27-.74,1.38.47-.27.75c.14.09.28.19.4.3.13.12.25.25.36.39l.74-.28.57,1.29-.69.29c.04.15.07.3.09.45.02.2.02.4,0,.6l.69.2-.45,1.42-.76-.26c-.07.12-.14.23-.23.34-.13.17-.29.31-.46.43l.34.71-1.31.59ZM33.99,43.3l.32.63.64-.28-.32-.67.15-.09c.19-.12.37-.27.51-.44.1-.13.19-.27.25-.41l.07-.16.71.25.22-.68-.64-.19.03-.17c.04-.22.05-.44.02-.66-.02-.18-.06-.36-.13-.53l-.06-.17.67-.28-.27-.62-.69.26-.08-.12c-.11-.16-.24-.31-.39-.44-.14-.13-.3-.24-.47-.33l-.14-.08.24-.69-.66-.22-.25.69-.16-.03c-.2-.04-.41-.05-.61-.05-.19,0-.37.03-.55.08l-.16.04-.25-.61-.65.28.28.67-.12.09c-.15.11-.29.24-.42.37-.14.15-.27.31-.39.49l-.08.12-.67-.23-.21.64.63.24v.14c-.03.2-.04.4-.03.6,0,.22.03.45.07.67l.03.14-.59.28.31.64.6-.29.09.12c.14.17.29.33.45.48.15.13.3.25.47.35l.13.08-.23.61.67.22.19-.65.16.02c.24.03.49.03.73,0,.15-.02.3-.05.44-.09h0s.15-.04.15-.04Z"/><path class="cls-1" d="M39.59,33.48c-1.9,1.23-4.45.69-5.68-1.21s-.69-4.45,1.21-5.69,4.45-.69,5.69,1.21.69,4.45-1.21,5.69ZM35.51,27.18c-1.57,1.02-2.02,3.13-1,4.7s3.13,2.02,4.7,1,2.02-3.13,1-4.7-3.13-2.02-4.7-1Z"/><path class="cls-1" d="M41.36,36.18l-1-1.01c-.19.11-.4.22-.6.31-.38.17-.78.3-1.18.39l.02,1.41-2.81-.05.09-1.39c-.29-.09-.59-.2-.86-.33-.32-.14-.64-.31-.95-.5l-1.02.97-1.89-2.02,1.04-.94c-.16-.32-.3-.66-.42-1-.11-.3-.2-.6-.27-.91l-1.41-.09.03-2.66,1.51.03c.1-.33.23-.65.39-.96.13-.27.29-.53.46-.78l-.97-1.16,2.09-1.79.86,1.04c.26-.14.54-.26.82-.36.32-.11.65-.2.98-.26l.06-1.48,2.73.06-.06,1.49c.31.08.61.18.89.31.31.14.6.31.87.5l1.18-.92,1.76,2-1.08.91c.16.24.3.49.42.75.15.34.26.71.33,1.08l1.35-.03v2.8s-1.51-.05-1.51-.05c-.05.25-.12.5-.22.74-.15.37-.34.72-.59,1.04l1.01,1.09-2.03,1.79ZM40.46,34.26l.93.94.98-.87-.94-1.02.21-.24c.28-.32.51-.68.66-1.08.11-.28.19-.58.22-.88l.04-.32,1.41.04v-1.35s-1.26.03-1.26.03l-.04-.32c-.05-.41-.16-.81-.33-1.19-.14-.31-.31-.61-.53-.88l-.21-.27,1.04-.88-.84-.95-1.08.85-.22-.18c-.29-.23-.6-.42-.94-.58-.33-.15-.68-.26-1.03-.33l-.3-.06.05-1.37-1.32-.03-.06,1.38-.3.04c-.38.05-.76.13-1.13.26-.33.12-.65.27-.95.45l-.26.16-.79-.95-1.01.87.87,1.05-.17.22c-.21.28-.39.59-.55.91-.17.35-.31.72-.42,1.1l-.07.27-1.34-.03v1.27s1.25.09,1.25.09l.06.26c.08.37.18.73.31,1.09.14.4.31.79.51,1.16l.13.24-.91.83.91.97.91-.86.24.16c.34.23.71.43,1.08.6.33.15.68.27,1.04.37l.28.08-.08,1.22,1.34.02-.02-1.27.3-.05c.45-.08.89-.21,1.31-.4.26-.12.51-.25.74-.4h.01s.24-.17.24-.17Z"/></svg>