<?xml version="1.0" encoding="UTF-8"?><svg id="Layer_1" xmlns="http://www.w3.org/2000/svg" viewBox="0 0 80 80"><defs><style>.cls-1{fill:#fd6f39;}</style></defs><polygon class="cls-1" points="74.69 64.02 7.57 64.02 7.57 19.61 8.57 19.61 8.57 63.02 74.69 63.02 74.69 64.02"/><path class="cls-1" d="M3.27,26.45c.23.15.54.08.69-.15l4.11-6.45,4.11,6.45c.15.23.46.3.69.15s.3-.46.15-.69l-4.53-7.11c-.09-.14-.25-.23-.42-.23s-.33.09-.42.23l-4.53,7.11c-.05.08-.08.18-.08.27,0,.17.08.33.23.42Z"/><path class="cls-1" d="M67.85,68.32c-.15-.23-.08-.54.15-.69l6.45-4.11-6.45-4.11c-.23-.15-.3-.46-.15-.69s.46-.3.69-.15l7.11,4.53c.14.09.23.25.23.42s-.09.33-.23.42l-7.11,4.53c-.08.05-.18.08-.27.08-.17,0-.33-.08-.42-.23Z"/><path class="cls-1" d="M35.34,42.93c-2.11,0-3.83-1.72-3.83-3.83s1.72-3.83,3.83-3.83,3.83,1.72,3.83,3.83-1.72,3.83-3.83,3.83ZM35.34,36.27c-1.56,0-2.83,1.27-2.83,2.83s1.27,2.83,2.83,2.83,2.83-1.27,2.83-2.83-1.27-2.83-2.83-2.83Z"/><path class="cls-1" d="M35.34,46.3c-3.97,0-7.21-3.23-7.21-7.21s3.23-7.21,7.21-7.21,7.21,3.23,7.21,7.21-3.23,7.21-7.21,7.21ZM35.34,32.89c-3.42,0-6.21,2.78-6.21,6.21s2.78,6.21,6.21,6.21,6.21-2.78,6.21-6.21-2.78-6.21-6.21-6.21Z"/><path class="cls-1" d="M35.34,49.57c-5.78,0-10.48-4.7-10.48-10.48s4.7-10.47,10.48-10.47,10.47,4.7,10.47,10.47-4.7,10.48-10.47,10.48ZM35.34,29.62c-5.22,0-9.48,4.25-9.48,9.47s4.25,9.48,9.48,9.48,9.47-4.25,9.47-9.48-4.25-9.47-9.47-9.47Z"/><path class="cls-1" d="M56.03,48.82c-2.3,0-4.18-1.87-4.18-4.18s1.87-4.18,4.18-4.18,4.18,1.87,4.18,4.18-1.87,4.18-4.18,4.18ZM56.03,41.47c-1.75,0-3.18,1.43-3.18,3.18s1.43,3.18,3.18,3.18,3.18-1.43,3.18-3.18-1.43-3.18-3.18-3.18Z"/><path class="cls-1" d="M16.45,57.05c-2.3,0-4.18-1.87-4.18-4.18s1.87-4.18,4.18-4.18,4.18,1.87,4.18,4.18-1.87,4.18-4.18,4.18ZM16.45,49.69c-1.75,0-3.18,1.43-3.18,3.18s1.43,3.18,3.18,3.18,3.18-1.43,3.18-3.18-1.43-3.18-3.18-3.18Z"/><path class="cls-1" d="M72.21,31.46c-2.3,0-4.18-1.87-4.18-4.18s1.87-4.18,4.18-4.18,4.18,1.87,4.18,4.18-1.87,4.18-4.18,4.18ZM72.21,24.11c-1.75,0-3.18,1.43-3.18,3.18s1.43,3.18,3.18,3.18,3.18-1.43,3.18-3.18-1.43-3.18-3.18-3.18Z"/><path class="cls-1" d="M20.59,50.7c-.14,0-.27-.06-.36-.17-.16-.2-.12-.49.08-.65l5.27-4.16c.2-.16.49-.12.65.08.16.2.12.49-.08.65l-5.27,4.16c-.08.07-.19.1-.29.1Z"/><path class="cls-1" d="M51.09,43.88c-.07,0-.14-.01-.21-.04l-4.34-1.99c-.25-.12-.36-.41-.25-.66.12-.25.41-.36.66-.25l4.34,1.99c.25.12.36.41.25.66-.08.18-.27.29-.46.29Z"/><path class="cls-1" d="M60.15,41.9c-.12,0-.23-.04-.33-.12-.21-.18-.23-.5-.05-.71l9.12-10.43c.18-.21.5-.23.71-.05.21.18.23.5.05.71l-9.12,10.43c-.1.11-.24.17-.38.17Z"/><path class="cls-1" d="M50.86,57.69c-.64,0-1.28-.27-1.77-.77l-6.32-6.44c-.71-.72-.92-1.79-.54-2.66.2-.46.52-.86.93-1.15.97-.67,2.31-.52,3.15.35l6.3,6.47c.65.67.89,1.59.61,2.42-.12.35-.3.67-.55.95-.27.3-.62.54-.99.68-.26.1-.54.15-.81.15ZM43.49,49.79l6.32,6.44c.41.42,1.02.58,1.51.38.24-.09.45-.24.62-.42.16-.17.27-.37.34-.59.15-.46,0-1.01-.38-1.41l-6.3-6.47c-.5-.51-1.29-.62-1.83-.24-.27.19-.48.45-.61.75-.22.5-.08,1.13.34,1.56h0Z"/><rect class="cls-1" x="42.04" y="46.13" width="1.5" height="1.47" transform="translate(-20.52 42.5) rotate(-43.66)"/></svg>