<svg id="Layer_1" data-name="Layer 1" xmlns="http://www.w3.org/2000/svg" viewBox="0 0 80 80"><defs><style>.cls-1{fill:#fff;}.cls-2{fill:#fd6f39;}</style></defs><circle class="cls-1" cx="33.7" cy="33.67" r="0.93"/><path class="cls-2" d="M33.7,35.1a1.43,1.43,0,1,1,1.43-1.43A1.43,1.43,0,0,1,33.7,35.1Zm0-1.86a.43.43,0,0,0-.43.43.43.43,0,0,0,.43.43.43.43,0,0,0,.43-.43A.44.44,0,0,0,33.7,33.24Z"/><path class="cls-1" d="M33.7,33.67S28,27.47,32.12,25a3,3,0,0,1,3.54.16C36.84,26.16,37.47,28.47,33.7,33.67Z"/><path class="cls-2" d="M33.74,34.46,33.33,34c-.15-.16-3.62-3.95-3.19-7a3.36,3.36,0,0,1,1.72-2.48,3.5,3.5,0,0,1,4.13.22c1.34,1.16,2.1,3.7-1.89,9.21ZM33.83,25a2.82,2.82,0,0,0-1.46.42,2.36,2.36,0,0,0-1.24,1.76c-.29,2,1.66,4.64,2.53,5.7,2.46-3.55,3.06-6.15,1.67-7.35A2.27,2.27,0,0,0,33.83,25Z"/><circle class="cls-1" cx="33.64" cy="27.78" r="1.3"/><path class="cls-2" d="M33.64,29.58a1.8,1.8,0,1,1,1.8-1.8A1.81,1.81,0,0,1,33.64,29.58Zm0-2.6a.8.8,0,1,0,.8.8A.8.8,0,0,0,33.64,27Z"/><path class="cls-2" d="M40,75.71A32.46,32.46,0,1,1,72.46,43.25,32.49,32.49,0,0,1,40,75.71Zm0-63.92A31.46,31.46,0,1,0,71.46,43.25,31.5,31.5,0,0,0,40,11.79Z"/><path class="cls-2" d="M60.62,39a4.55,4.55,0,1,1,4.55-4.54A4.55,4.55,0,0,1,60.62,39Zm0-8.09a3.55,3.55,0,1,0,3.55,3.55A3.55,3.55,0,0,0,60.62,30.92Z"/><path class="cls-2" d="M44.31,50.54c-.06,0-6.15-.35-7-.35-.46,0-1.32,0-2.87-12.32l1-.12c.63,5,1.56,10.5,2.07,11.45,1.33,0,6.64.33,6.88.34Z"/><polyline class="cls-1" points="71.04 43.44 66.15 60.7 54.53 60.7"/><polygon class="cls-2" points="66.53 61.2 54.53 61.2 54.53 60.2 65.78 60.2 70.56 43.31 71.53 43.58 66.53 61.2"/><path class="cls-2" d="M47.32,65l-4.89-.63L47.9,53.07l9.85-.17V49.67l-2.23,1.75H49.15v1.26h-16V50.51H45.43V49.25a1.51,1.51,0,0,1,.35-1.08,1.2,1.2,0,0,1,.94-.39c.66,0,4.72-.32,6.94-.51l5.09-5.83c1.78-1.72,3.8-2.25,5.72-1.53a2.69,2.69,0,0,1,1.42,1.26,5.9,5.9,0,0,1,.7,3.11l-.54,9.66a5.34,5.34,0,0,1-1.66,3.44,5,5,0,0,1-3.8,1.08l-9.28-.25Zm-3.38-1.44,2.85.36,4-6.7,9.89.28a4.13,4.13,0,0,0,3.09-.84,4.42,4.42,0,0,0,1.32-2.74l.54-9.67A4.85,4.85,0,0,0,65,41.64a1.67,1.67,0,0,0-.89-.79,4.34,4.34,0,0,0-4.65,1.28l-5.32,6.11H54c-.26,0-6.34.53-7.23.53-.15,0-.19,0-.2.06a.61.61,0,0,0-.1.37v2.3H34.19v.17h14V50.42h7l3.58-2.81v6.27l-10.22.18Z"/><circle class="cls-1" cx="54.35" cy="21.67" r="1.45"/><path class="cls-2" d="M54.35,23.62a2,2,0,1,1,1.95-1.95A2,2,0,0,1,54.35,23.62Zm0-2.91a1,1,0,1,0,.95,1A1,1,0,0,0,54.35,20.71Z"/><path class="cls-1" d="M54.35,21.67S45.36,12,51.87,8a4.77,4.77,0,0,1,5.56.26C59.27,9.9,60.26,13.52,54.35,21.67Z"/><path class="cls-2" d="M54.39,22.45,54,22c-.23-.25-5.58-6.09-4.92-10.72a5,5,0,0,1,2.56-3.68,5.22,5.22,0,0,1,6.13.31c2,1.75,3.13,5.6-3,14Zm.18-14.68a4.72,4.72,0,0,0-2.44.7,4,4,0,0,0-2.08,3c-.49,3.47,3,8,4.26,9.43,4.19-5.92,5.15-10.13,2.79-12.18A3.8,3.8,0,0,0,54.57,7.77Z"/><circle class="cls-1" cx="54.26" cy="12.44" r="2.03"/><path class="cls-2" d="M54.26,15a2.53,2.53,0,1,1,2.53-2.53A2.53,2.53,0,0,1,54.26,15Zm0-4.06a1.53,1.53,0,1,0,1.53,1.53A1.54,1.54,0,0,0,54.26,10.91Z"/><circle class="cls-1" cx="13.93" cy="27.15" r="1.2"/><path class="cls-2" d="M13.93,28.85a1.7,1.7,0,1,1,1.7-1.7A1.7,1.7,0,0,1,13.93,28.85Zm0-2.4a.7.7,0,0,0,0,1.4.7.7,0,1,0,0-1.4Z"/><path class="cls-1" d="M13.93,27.15s-7.41-8-2-11.23a3.93,3.93,0,0,1,4.58.22C18,17.46,18.8,20.44,13.93,27.15Z"/><path class="cls-2" d="M14,27.94l-.42-.45c-.19-.2-4.62-5-4.07-8.9a4.19,4.19,0,0,1,2.14-3.1,4.4,4.4,0,0,1,5.16.27c1.69,1.46,2.63,4.68-2.46,11.69Zm.13-12.15a3.77,3.77,0,0,0-2,.56,3.2,3.2,0,0,0-1.67,2.38c-.4,2.76,2.35,6.35,3.41,7.62,3.37-4.79,4.15-8.19,2.25-9.83A3.05,3.05,0,0,0,14.11,15.79Z"/><circle class="cls-1" cx="13.86" cy="19.55" r="1.67"/><path class="cls-2" d="M13.86,21.72A2.17,2.17,0,1,1,16,19.55,2.18,2.18,0,0,1,13.86,21.72Zm0-3.34A1.17,1.17,0,1,0,15,19.55,1.17,1.17,0,0,0,13.86,18.38Z"/><circle class="cls-1" cx="16.68" cy="60.23" r="12.26"/><path class="cls-2" d="M16.68,73A12.77,12.77,0,1,1,29.44,60.24,12.78,12.78,0,0,1,16.68,73Zm0-24.53A11.77,11.77,0,1,0,28.44,60.24,11.78,11.78,0,0,0,16.68,48.47Z"/><rect class="cls-2" x="4.85" y="59.7" width="1.85" height="1"/><line class="cls-1" x1="8.98" y1="51.81" x2="10.06" y2="52.95"/><rect class="cls-2" x="9.02" y="51.59" width="1" height="1.57" transform="translate(-33.43 20.93) rotate(-43.49)"/><rect class="cls-2" x="16.48" y="48.75" width="1" height="1.53"/><line class="cls-1" x1="24.78" y1="52.06" x2="23.67" y2="53.46"/><rect class="cls-2" x="23.33" y="52.26" width="1.78" height="1" transform="translate(-32.21 39.12) rotate(-51.74)"/><line class="cls-1" x1="9.52" y1="67.2" x2="8.55" y2="68.4"/><rect class="cls-2" x="8.27" y="67.3" width="1.55" height="1" transform="translate(-49.51 32.43) rotate(-51.27)"/><rect class="cls-2" x="26.43" y="59.7" width="1.6" height="1"/><line class="cls-1" x1="23.67" y1="66.89" x2="25.15" y2="68.4"/><polygon class="cls-2" points="24.79 68.75 23.32 67.24 24.03 66.54 25.51 68.05 24.79 68.75"/><rect class="cls-2" x="16.31" y="69.87" width="1" height="1.66"/><circle class="cls-1" cx="16.68" cy="60.23" r="1.53"/><path class="cls-2" d="M16.68,62.26a2,2,0,1,1,2-2A2,2,0,0,1,16.68,62.26Zm0-3a1,1,0,1,0,1,1A1,1,0,0,0,16.68,59.21Z"/><rect class="cls-2" x="16.35" y="52.79" width="1" height="5.79"/><rect class="cls-2" x="18.37" y="59.61" width="4.3" height="1"/></svg>