<svg id="Layer_1" data-name="Layer 1" xmlns="http://www.w3.org/2000/svg" viewBox="0 0 80 80"><defs><style>.cls-1{fill:#fd6f39;}</style></defs><path class="cls-1" d="M39.66,46.63,20.74,27.84a10.88,10.88,0,0,1-1.27-1.27,11.31,11.31,0,0,1-2.13-3.67,11.18,11.18,0,0,1-.65-3.81A11.51,11.51,0,0,1,28.18,7.59a11.54,11.54,0,0,1,10.47,6.76,1.09,1.09,0,0,0,1,.63,1.07,1.07,0,0,0,1-.63h0A11.54,11.54,0,0,1,51.08,7.59a11.48,11.48,0,0,1,8.18,19.56l-.06.08Zm-11.48-38a10.49,10.49,0,0,0-8,17.33,10.85,10.85,0,0,0,1.18,1.17l.11.1,18.15,18L58.53,26.47A10.57,10.57,0,0,0,61,22.64a10.13,10.13,0,0,0,.62-3.55,10.49,10.49,0,0,0-20-4.33h0a2.07,2.07,0,0,1-3.78,0A10.54,10.54,0,0,0,28.18,8.59Z"/><polygon class="cls-1" points="33.29 33.33 29.57 24.45 27.44 29.41 22.53 29.41 22.53 28.41 26.78 28.41 29.58 21.89 33.38 30.97 35.64 26.61 37.71 30.28 38.59 26.51 46.59 26.51 47.76 17.74 51.05 27.86 52.87 21.72 55.2 27.01 56.42 25.57 59.57 25.57 59.57 26.57 56.88 26.57 54.92 28.88 53.05 24.62 51.1 31.23 48.17 22.22 47.46 27.51 39.38 27.51 38.09 33 35.67 28.71 33.29 33.33"/><path class="cls-1" d="M25.33,72.6l-.26-.43a23.23,23.23,0,0,0-3.13-3.58l-.31-.25C17.2,64,7.55,54.51,3.61,50.66l-.09-.09A4.3,4.3,0,0,1,3,49.88a4,4,0,0,1-.49-1.2H2.37l0-.54,1.84-23a3.81,3.81,0,0,1,.1-1.07l0-.57.12,0a3.76,3.76,0,0,1,6.56-.84,3.22,3.22,0,0,1,.38.51,2.88,2.88,0,0,1,.24.46c.06.16.11.31.15.46v0L12,24l-.29,3.69L11.38,41.2a4.24,4.24,0,0,0,.43.79l5.3,5.1.14.13c.65.6,1.33,1.25,2,2l2,2a2.56,2.56,0,0,0,3.6-3.22L21.2,41.8A2.54,2.54,0,0,1,22,38.31a2.54,2.54,0,0,1,3.5.85l4,6.58c.58.88,1.24,1.94,2,3.2a13.06,13.06,0,0,1,1.76,8.13c0,.59-.09,1.18-.15,1.76-.24,2.69-.48,5.23,1.07,7.77l.37.61-.66.13-7.84,4.81v0ZM3.42,48.15l0,.17a3.19,3.19,0,0,0,.81,1.58c4,3.9,13.64,13.34,18,17.7l.31.24a28.9,28.9,0,0,1,3,3.39l.71-.43h0l.6-.38,6.16-3.76c-1.43-2.67-1.19-5.34-1-7.93,0-.57.1-1.15.14-1.73a12.14,12.14,0,0,0-1.62-7.55c-.76-1.25-1.42-2.3-2-3.18l-4-6.6a1.5,1.5,0,0,0-.95-.7,1.6,1.6,0,0,0-1.17.18,1.57,1.57,0,0,0-.69,1,1.52,1.52,0,0,0,.18,1.16l3.77,6.19a3.56,3.56,0,0,1-5,4.5l-.1-.07-2.1-2c-.7-.69-1.37-1.33-2-1.93l-.15-.13c-3.2-3.08-5-4.83-5.38-5.2a4.31,4.31,0,0,1-.64-1.2l0-.08v-.08l.38-13.59L11,25.13a1.51,1.51,0,0,0,0-.3,3.18,3.18,0,0,0-.06-.43c0-.1-.07-.21-.11-.32a2.59,2.59,0,0,0-.17-.33,2.46,2.46,0,0,0-.3-.4,2.79,2.79,0,0,0-3.73-.78A2.72,2.72,0,0,0,5.33,24.3l0,.14a3.71,3.71,0,0,0,0,.72l-.08,1.05Z"/><path class="cls-1" d="M54.67,72.6l-.78-.47h0l-1.39-.85-6.45-3.94-.66-.13.37-.61c1.55-2.54,1.31-5.08,1.07-7.77,0-.58-.11-1.17-.15-1.76a13.06,13.06,0,0,1,1.76-8.13c.77-1.26,1.43-2.32,2-3.21l4-6.57a2.54,2.54,0,0,1,3.5-.85,2.54,2.54,0,0,1,.84,3.49L55,48a2.56,2.56,0,0,0,3.64,3.14l1.89-1.8.17-.17c.69-.69,1.37-1.34,2-1.94l.13-.13c1.79-1.71,4.86-4.67,5.36-5.17a4.1,4.1,0,0,0,.37-.72l-.38-13.5-.3-3.87.24.24c0-.13.08-.25.13-.37a4.09,4.09,0,0,1,.23-.47,4,4,0,0,1,.43-.56,3.76,3.76,0,0,1,6.53.91l.1,0,.06.57a4,4,0,0,1,.09,1.1l.07.9,1.81,22.55h-.14a3.93,3.93,0,0,1-.49,1.2,4.69,4.69,0,0,1-.52.7l-.09.08c-3.94,3.86-13.59,13.3-18,17.65l-.39.31a23,23,0,0,0-3.09,3.55Zm-.92-1.72.6.35a27.68,27.68,0,0,1,3-3.35l.39-.32c4.35-4.32,14-13.76,18-17.62a3.52,3.52,0,0,0,.45-.58,3.19,3.19,0,0,0,.4-1l0-.16L74.75,25.24a3,3,0,0,0-.06-.86l0-.08a2.72,2.72,0,0,0-1.24-1.73,2.76,2.76,0,0,0-3.69.74,2.92,2.92,0,0,0-.34.44,2.59,2.59,0,0,0-.17.33c0,.11-.08.22-.11.33a2.83,2.83,0,0,0-.06.42,1.41,1.41,0,0,0,0,.29v0l.19,2.49.38,13.69,0,.08A4.34,4.34,0,0,1,69,42.55c-.56.58-3.65,3.54-5.44,5.27l-.14.13c-.65.6-1.32,1.24-2,1.93l-.18.17L59.32,51.9l-.1.07a3.56,3.56,0,0,1-5.08-4.43L58,41.28a1.52,1.52,0,0,0,.18-1.16,1.57,1.57,0,0,0-.69-1A1.6,1.6,0,0,0,56.27,39a1.54,1.54,0,0,0-1,.7l-4,6.58c-.58.9-1.24,2-2,3.2A12.14,12.14,0,0,0,47.68,57c0,.58.09,1.16.14,1.73.24,2.59.48,5.26-1,7.93Z"/></svg>