<?xml version="1.0" encoding="UTF-8"?><svg id="Layer_1" xmlns="http://www.w3.org/2000/svg" viewBox="0 0 80 80"><defs><style>.cls-1{fill:#f36f3e;}.cls-2{fill:#fd6f39;}</style></defs><path class="cls-2" d="M18.6,73.74h-10.03c-1.03,0-1.86-.84-1.86-1.86v-21.73c0-1.03.84-1.87,1.86-1.87h10.03c1.03,0,1.86.84,1.86,1.87v21.73c0,1.03-.84,1.86-1.86,1.86ZM8.57,49.29c-.47,0-.86.39-.86.86v21.73c0,.47.38.86.86.86h10.03c.47,0,.86-.38.86-.86v-21.73c0-.47-.38-.86-.86-.86h-10.03Z"/><path class="cls-2" d="M13.58,64.76c-.27,0-.49-.22-.49-.49v-10.91c0-.27.22-.49.49-.49s.49.22.49.49v10.91c0,.27-.22.49-.49.49Z"/><circle class="cls-2" cx="13.58" cy="68.06" r="1.14"/><circle class="cls-2" cx="24.98" cy="69.38" r="1.14"/><circle class="cls-2" cx="40" cy="7.13" r="1.14"/><circle class="cls-2" cx="40" cy="7.33" r="1.14"/><path class="cls-2" d="M29.32,69.88v-1s22.02-.17,22.02-.17c1.32,0,2.6-.5,3.59-1.38l16.23-14.35c.77-.88,1.16-2.08,1.03-3.26-.11-.99-.58-1.86-1.28-2.36-1.18-.85-2.97-.73-4.35.29l-14.25,12.69-.72-.68c.28-.36,1.19-1.65.88-3.32-.28-1.51-1.47-2.77-3.04-3.23l-13.58-3.05c-1.29-.29-2.63-.24-3.89.15l-11.84,3.63-.29-.96,11.84-3.63c1.42-.43,2.94-.5,4.4-.17l13.61,3.05c1.96.57,3.43,2.14,3.77,4.02.12.68.09,1.3-.02,1.85l12.5-11.13c1.76-1.31,4.04-1.43,5.57-.33.93.67,1.55,1.79,1.69,3.06.16,1.46-.32,2.95-1.32,4.08l-16.27,14.4c-1.17,1.04-2.68,1.61-4.24,1.63l-22.02.17Z"/><path class="cls-2" d="M52.21,60.42h-14.38c-.28,0-.5-.22-.5-.5s.22-.5.5-.5h14.38c.28,0,.5.22.5.5s-.22.5-.5.5Z"/><path class="cls-2" d="M23.39,37.09h-.5c-2.26-.03-4.35-.95-5.9-2.59-1.44-1.54-2.21-3.57-2.1-5.57.21-3.78,3.35-6.9,7.3-7.25.06,0,.14,0,.2.02v-4.74c.07-.67.81-6.17,5.74-8.85,3.43-1.87,6.78-1.69,7.78-1.46.27.06.44.33.38.6-.06.27-.33.44-.6.38-.84-.19-3.95-.35-7.08,1.37-4.48,2.44-5.16,7.46-5.22,8.03v20.08ZM22.39,22.65s-.07.02-.11.02c-3.46.31-6.21,3.03-6.39,6.31-.09,1.73.57,3.49,1.83,4.83,1.24,1.32,2.88,2.11,4.67,2.25v-13.41Z"/><path class="cls-2" d="M54.95,42.17h-11.12c-.28,0-.5-.22-.5-.5s.22-.5.5-.5h11.12c.79,0,1.42-.64,1.42-1.42v-23.12c-.13-1.01-.85-4.72-4.35-7.16-3.29-2.3-6.83-1.87-7.84-1.69-.27.04-.53-.13-.58-.4-.05-.27.13-.53.4-.58,1.1-.2,4.98-.67,8.59,1.85,3.83,2.67,4.62,6.73,4.78,7.91v23.18c0,1.34-1.08,2.42-2.42,2.42Z"/><path class="cls-2" d="M42.06,44.77h-3.77c-1.34,0-2.43-1.09-2.43-2.43v-.36c0-1.34,1.09-2.43,2.43-2.43h3.77c1.34,0,2.43,1.09,2.43,2.43v.36c0,1.34-1.09,2.43-2.43,2.43ZM38.29,40.45c-.84,0-1.53.68-1.53,1.53v.36c0,.84.68,1.53,1.53,1.53h3.77c.84,0,1.53-.68,1.53-1.53v-.36c0-.84-.68-1.53-1.53-1.53h-3.77Z"/><path class="cls-2" d="M57.17,37.28l-.05-1c2.1-.1,4.08-1.08,5.41-2.7,1.24-1.5,1.8-3.37,1.55-5.14-.46-3.28-3.61-5.83-7.17-5.83h-.05v-1h.05c4.05,0,7.63,2.93,8.16,6.69.29,2.05-.36,4.21-1.77,5.92-1.51,1.83-3.75,2.94-6.13,3.06Z"/><path class="cls-2" d="M40.95,28.12c-2.14.52-4.31-.8-4.83-2.95s.8-4.31,2.95-4.83,4.31.8,4.83,2.95-.8,4.31-2.95,4.83ZM39.15,20.68c-1.96.47-3.16,2.45-2.69,4.41s2.45,3.16,4.41,2.69,3.16-2.45,2.69-4.41-2.45-3.16-4.41-2.69Z"/><path class="cls-1" d="M40,29.23c-.91,0-1.8-.25-2.6-.73-1.14-.7-1.94-1.79-2.25-3.09-.65-2.68,1-5.39,3.68-6.04,1.29-.31,2.64-.1,3.78.59,1.14.7,1.94,1.79,2.25,3.09.65,2.68-1,5.39-3.68,6.04h0c-.39.09-.79.14-1.18.14ZM40.01,21.58c-.21,0-.41.02-.62.07-.69.17-1.27.59-1.64,1.2-.37.61-.48,1.32-.32,2.01.34,1.42,1.77,2.29,3.2,1.95.69-.17,1.27-.59,1.64-1.2.37-.61.48-1.32.32-2-.29-1.21-1.38-2.03-2.58-2.03Z"/><path class="cls-2" d="M42.2,36.71l-4.14-.07-.09-2.44c-.45-.09-.9-.2-1.34-.35-.75-.25-1.47-.58-2.15-.99l-1.6,1.79-3.12-2.95,1.7-1.64c-.31-.52-.6-1.06-.84-1.61-.27-.63-.5-1.29-.67-1.95l-2.39.04-.04-4.23h2.38c.19-.67.42-1.33.69-1.98.24-.57.52-1.13.82-1.67l-1.66-1.74,2.77-2.97,1.85,1.77c.57-.34,1.17-.64,1.78-.88.55-.21,1.12-.38,1.7-.51l.12-2.57,4.21.14-.11,2.3c.57.13,1.14.31,1.68.54.6.25,1.18.57,1.73.94l1.79-1.8,3.02,2.89-1.79,1.81c.35.5.66,1.05.9,1.61.25.59.44,1.2.56,1.83l2.55.19-.08,4.07-2.45-.1c-.07.57-.19,1.14-.38,1.68-.23.68-.55,1.33-.95,1.94l1.74,1.53-2.9,3.15-1.85-1.8c-.4.32-.84.6-1.3.82-.68.33-1.41.56-2.16.67l.02,2.54ZM38.67,36.01l2.89.05-.02-2.46.29-.03c.78-.08,1.53-.3,2.23-.64.5-.25.97-.56,1.4-.92l.22-.19,1.8,1.75,2.01-2.19-1.68-1.48.17-.24c.44-.62.79-1.29,1.03-2.01.2-.59.32-1.21.37-1.83l.02-.31,2.4.1.06-2.81-2.45-.19-.04-.25c-.11-.67-.29-1.31-.56-1.93-.26-.6-.59-1.18-.98-1.7l-.17-.22,1.72-1.74-2.1-2.01-1.73,1.74-.22-.16c-.57-.41-1.19-.75-1.83-1.03-.59-.25-1.2-.43-1.82-.56l-.27-.05.1-2.2-2.93-.09-.12,2.44-.25.05c-.63.12-1.24.3-1.84.53-.65.25-1.29.57-1.89.95l-.21.13-1.74-1.67-1.92,2.06,1.57,1.65-.12.21c-.34.58-.64,1.19-.9,1.8-.29.69-.54,1.41-.73,2.13l-.06.24h-2.22s.03,2.94.03,2.94l2.26-.04.06.25c.17.72.41,1.42.7,2.1.26.61.58,1.19.93,1.75l.14.22-1.6,1.54,2.16,2.04,1.52-1.7.23.15c.7.45,1.45.81,2.23,1.07.49.16.99.29,1.5.37l.26.04.09,2.36Z"/><path class="cls-1" d="M42.7,37.22l-5.13-.09-.1-2.53c-.34-.08-.68-.17-1.02-.28-.65-.22-1.28-.49-1.89-.83l-1.67,1.87-3.88-3.67,1.8-1.73c-.25-.43-.47-.88-.67-1.33-.23-.53-.43-1.08-.59-1.65l-2.51.04-.05-5.24h2.51c.17-.57.38-1.13.61-1.67.2-.47.42-.94.67-1.39l-1.73-1.81,3.44-3.69,1.95,1.86c.49-.28,1.01-.52,1.53-.72.45-.17.92-.32,1.4-.44l.13-2.69,5.21.17-.11,2.4c.46.12.92.28,1.35.46.51.21,1,.47,1.47.76l1.85-1.86,3.74,3.58-1.86,1.88c.28.43.52.89.72,1.36.21.5.38,1.02.51,1.56l2.65.2-.1,5.05-2.5-.1c-.08.45-.19.89-.33,1.32-.2.58-.46,1.15-.78,1.68l1.81,1.59-3.6,3.91-1.92-1.87c-.33.23-.68.44-1.04.62-.6.29-1.23.51-1.87.64l.02,2.63ZM39.15,35.52l1.9.03-.02-2.4.74-.08c.72-.08,1.42-.28,2.06-.59.46-.23.9-.51,1.29-.85l.57-.49,1.75,1.71,1.32-1.43-1.64-1.44.43-.6c.41-.57.74-1.2.96-1.87.19-.55.3-1.13.35-1.71l.06-.79,2.38.1.04-1.83-2.37-.18-.1-.64c-.1-.62-.28-1.24-.52-1.81-.24-.57-.55-1.11-.92-1.6l-.43-.56,1.67-1.68-1.38-1.32-1.68,1.69-.57-.41c-.54-.39-1.12-.71-1.73-.97-.55-.23-1.13-.41-1.72-.53l-.69-.13.1-2.13-1.93-.06-.11,2.34-.63.12c-.6.12-1.19.29-1.75.51-.62.24-1.23.55-1.8.91l-.54.34-1.66-1.59-1.25,1.35,1.51,1.58-.31.53c-.32.55-.62,1.14-.87,1.75-.28.67-.52,1.36-.7,2.06l-.16.61h-2.1s.02,1.93.02,1.93l2.16-.04.15.64c.16.69.39,1.36.67,2.01.25.58.55,1.14.89,1.68l.36.57-1.51,1.46,1.4,1.33,1.46-1.64.59.38c.66.42,1.38.77,2.12,1.01.46.15.94.27,1.43.35l.66.11.09,2.29Z"/></svg>