<?xml version="1.0" encoding="UTF-8"?><svg id="Layer_1" xmlns="http://www.w3.org/2000/svg" viewBox="0 0 80 80"><defs><style>.cls-1{fill:#f36f3e;}.cls-2{fill:#fd6f39;}</style></defs><path class="cls-2" d="M40,78.87c-20.93,0-37.96-17.03-37.96-37.96S19.07,2.96,40,2.96s37.96,17.03,37.96,37.96-17.03,37.96-37.96,37.96ZM40,3.96C19.62,3.96,3.04,20.54,3.04,40.91s16.58,36.96,36.96,36.96,36.96-16.58,36.96-36.96S60.38,3.96,40,3.96Z"/><rect class="cls-2" x="20.54" y="42.44" width="8.85" height="4.74"/><rect class="cls-2" x="25.43" y="47.53" width="8.85" height="4.74"/><rect class="cls-2" x="34.73" y="47.53" width="8.85" height="4.74"/><rect class="cls-2" x="44.07" y="47.53" width="8.85" height="4.74"/><rect class="cls-2" x="48.28" y="42.44" width="8.85" height="4.74"/><rect class="cls-2" x="48.28" y="52.7" width="8.85" height="4.74"/><rect class="cls-2" x="38.95" y="52.7" width="8.85" height="4.74"/><rect class="cls-2" x="29.86" y="52.7" width="8.85" height="4.74"/><rect class="cls-2" x="20.57" y="52.7" width="8.85" height="4.74"/><rect class="cls-2" x="25.53" y="57.87" width="8.85" height="4.74"/><rect class="cls-2" x="34.73" y="57.87" width="8.85" height="4.74"/><rect class="cls-2" x="43.85" y="57.87" width="8.85" height="4.74"/><rect class="cls-2" x="48.44" y="63.04" width="8.85" height="4.74"/><rect class="cls-2" x="38.95" y="63.04" width="8.85" height="4.74"/><rect class="cls-2" x="29.96" y="63.04" width="8.85" height="4.74"/><rect class="cls-2" x="20.57" y="63.04" width="8.85" height="4.74"/><path class="cls-2" d="M31.04,47.44h-.71c-.34,0-.62-.28-.62-.62v-4.63c0-.07-.06-.12-.12-.12h-1.88c-.34,0-.62-.28-.62-.62v-3.26c.12-.85.5-2.49,1.86-3.94.76-.82,1.69-1.43,2.76-1.82.58-.21,1.21-.32,1.86-.32h9.55c.63.05,1.22.19,1.79.41.71.28,1.36.74,1.93,1.38l4.03,4.44c.1.11.25.18.4.18h0c.15,0,.3-.06.4-.18l3-3.3c.85-.75,2.11-.77,2.95-.06.85.71,1.05,1.96.48,2.9l-2.95,3.62c-.28.35-.7.55-1.15.55h-5.39c-.44,0-.86-.19-1.15-.53l-1.75-2.02h-.52v7.12c0,.34-.28.62-.62.62h-11.41c-.17,0-.33-.07-.44-.18s-.18-.28-.18-.44l.04-7.12h-.71l-.21,7.35c0,.34-.28.61-.62.61ZM43.09,32.6h-9.53c-.6,0-1.16.1-1.69.29-.99.36-1.86.93-2.57,1.69-1.26,1.35-1.62,2.87-1.73,3.65v3.2c0,.07.05.12.12.12h1.88c.34,0,.62.28.62.62v4.63c0,.07.06.12.12.12h.71c.07,0,.12-.05.12-.12l.22-7.84h1.7l-.05,7.62s.02.07.04.09c.01.01.04.04.09.04h11.41c.07,0,.12-.06.12-.12v-7.62h1.25l1.9,2.19c.19.23.48.35.77.35h5.39c.3,0,.57-.13.76-.36l2.93-3.59c.43-.71.27-1.67-.39-2.23-.66-.55-1.64-.54-2.28.03l-2.98,3.28c-.2.22-.48.34-.77.34h0c-.29,0-.57-.12-.77-.34l-4.03-4.44c-.52-.58-1.11-.99-1.73-1.24-.53-.21-1.08-.34-1.64-.38Z"/><path class="cls-2" d="M60.23,39.09l-1.71-1.45.06-.16c.35-.95.11-1.99-.61-2.67-.78-.73-1.98-.87-2.93-.34l-.15.08-1.97-1.66,3.39-4.02,7.4,6.14-3.47,4.07ZM59.1,37.48l1.07.9,2.82-3.3-6.62-5.5-2.74,3.25,1.33,1.12c1.12-.54,2.48-.35,3.37.49.82.77,1.12,1.95.79,3.04Z"/><path class="cls-2" d="M38.94,31.73c-1.88,0-3.57-1.31-4.03-3.14v-1.43h-1.01l-.05-2.64h.5s.04,2.14.04,2.14h1.02v1.86c.4,1.57,1.9,2.71,3.59,2.7,1.69-.03,3.14-1.2,3.51-2.85v-1.81s.79,0,.79,0l-.04-2.11h.5s.05,2.61.05,2.61h-.8v1.36c-.43,1.93-2.07,3.27-4,3.3h-.06Z"/><path class="cls-2" d="M38.82,25.95c-3.07,0-5.28-1.35-6.33-2.16-.11-.08-.13-.24-.05-.35.08-.11.24-.13.35-.05,1,.77,3.11,2.05,6.03,2.05h.1c2.87-.03,4.95-1.3,5.93-2.05.11-.08.27-.06.35.05.08.11.06.27-.05.35-1.03.79-3.21,2.13-6.23,2.16h-.1Z"/><path class="cls-1" d="M38.9,25.82c-.58,0-1.16-.1-1.72-.31l-.16-.06v-.44h-.04c-.59,0-1.39-.11-2.22-.52-.65-.33-1.22-.8-1.67-1.37l-.17-.21.22-.15c.06-.04.12-.08.18-.11.16-.09.33-.16.5-.21v-1.66c0-.4.07-.78.22-1.14.18-.43.41-.82.7-1.18.37-.46.81-.84,1.32-1.13l.38-.22v2.74h.19l-.08-2.86v-.04c.05-.13.15-.38.41-.57.22-.16.45-.2.57-.21h2.51c.23,0,.45.07.65.18.29.17.46.41.54.58l.03.11v.12s.31.15.31.15c.51.24.96.56,1.33.97.74.81,1,1.73,1.07,2.36l.06,1.8h.1c.15.01.39.1.49.33.04.1.06.21.03.33v.07s-.06.05-.06.05c-.48.54-1.09.98-1.75,1.27-.64.28-1.35.43-2.06.43h-.04v.54l-.16.06c-.54.2-1.1.3-1.67.31h-.05ZM37.52,25.09c.46.15.95.24,1.43.22.45,0,.9-.08,1.33-.22v-.72l.26.02c.74.05,1.47-.09,2.13-.38.56-.25,1.08-.61,1.5-1.06-.01-.02-.03-.02-.05-.03h-.55s-.07-2.26-.07-2.26c-.07-.53-.29-1.34-.95-2.06-.24-.26-.51-.48-.82-.66l.03,2.38h-1.01l.02-3.22c-.06-.1-.16-.23-.32-.32-.15-.09-.3-.11-.4-.11h-2.49s-.17.03-.29.11c-.12.09-.18.21-.21.28l.09,3.29h-1.21v-2.35c-.3.22-.57.48-.81.77-.26.32-.46.67-.62,1.05-.12.3-.18.62-.18.95v2.06l-.2.04c-.16.03-.32.08-.46.15.29.33.72.71,1.31,1.01.88.45,1.72.49,2.27.46l.27-.02v.61ZM41.27,19.82h0v-.07s0,.07,0,.07Z"/></svg>