<?xml version="1.0" encoding="UTF-8"?><svg id="Layer_1" xmlns="http://www.w3.org/2000/svg" viewBox="0 0 80 80"><defs><style>.cls-1{fill:#fd6f39;}</style></defs><path class="cls-1" d="M16.89,68.65c-.38,0-.75-.14-1.04-.43l-9.59-9.53c-.29-.29-.44-.66-.44-1.07s.17-.78.46-1.06l13.45-12.68c.78-.69,2.08-1.58,3.91-1.89,1.77-.3,3.25.06,4.18.42l23.16,5.85c2.03.86,3.08,3.07,2.48,5.07-.57,1.87-2.42,3.08-4.41,2.89l-14.86-3.97c-.35.06-.63.31-.67.64-.03.25.08.5.28.68l13.6,3.69c.7.24,1.35.34,2.08.34.62,0,1.22-.1,1.81-.29.05-.02.08-.03.12-.06.73-.49,1.39-1.08,1.97-1.75.41-.49.78-1.02,1.08-1.58.22-.4.37-.82.43-1.27.06-.44.04-.88-.06-1.31,0-.04-.03-.08-.05-.12l-1.63-2.77c-.38-.65-.22-1.47.38-1.93l14.25-10.81c.21-.16.44-.25.7-.29.59-.08,2.08-.15,3.31.9,1.25,1.07,1.73,2.84,1.21,4.51-.07.23-.21.45-.39.63l-21.84,20.96c-1.42,1.37-3.35,2.06-5.34,1.92l-21.13-1.55c-.19-.02-.39.05-.53.18l-5.91,5.3c-.28.25-.63.38-.99.38ZM6.96,57.99l9.59,9.53c.18.18.47.18.65.02l5.91-5.3c.35-.31.81-.47,1.27-.43l21.13,1.55c1.68.13,3.35-.48,4.57-1.65l21.84-20.96c.07-.06.11-.13.13-.2.4-1.29.04-2.65-.91-3.45-.92-.79-2.08-.73-2.53-.67-.08.01-.16.04-.23.09l-14.25,10.81c-.19.15-.25.41-.12.62l1.64,2.78c.08.14.14.27.17.41.13.55.15,1.11.07,1.67-.08.57-.27,1.11-.55,1.61-.33.61-.74,1.2-1.2,1.74-.63.75-1.36,1.4-2.17,1.94-.12.08-.24.14-.37.18-.68.22-1.39.33-2.1.34-.82-.02-1.61-.12-2.38-.39l-13.82-3.78c-.56-.39-.85-1.04-.76-1.69.11-.81.81-1.44,1.67-1.51h.08s14.95,3.99,14.95,3.99c1.45.15,2.84-.79,3.27-2.21.46-1.51-.34-3.19-1.84-3.83l-23.14-5.85c-.87-.33-2.16-.65-3.71-.38-1.6.27-2.73,1.04-3.41,1.64l-13.44,12.67c-.09.09-.15.21-.15.34,0,.13.05.25.14.35h0Z"/><path class="cls-1" d="M46.36,41.38c-5.62,0-10.18-4.57-10.18-10.19s4.57-10.18,10.18-10.18,10.18,4.57,10.18,10.18-4.57,10.19-10.18,10.19ZM46.36,22.01c-5.06,0-9.18,4.12-9.18,9.18s4.12,9.19,9.18,9.19,9.18-4.12,9.18-9.19-4.12-9.18-9.18-9.18Z"/><path class="cls-1" d="M59.07,24.04c-4.22,0-7.65-3.43-7.65-7.65s3.43-7.65,7.65-7.65,7.65,3.43,7.65,7.65-3.43,7.65-7.65,7.65ZM59.07,9.74c-3.67,0-6.65,2.98-6.65,6.65s2.98,6.65,6.65,6.65,6.65-2.98,6.65-6.65-2.98-6.65-6.65-6.65Z"/><path class="cls-1" d="M42.36,32.8l1.94-.19c.12.65.35,1.13.71,1.43.36.3.84.46,1.44.46.64,0,1.12-.13,1.45-.41.33-.27.49-.59.49-.95,0-.23-.07-.43-.21-.59-.14-.16-.38-.31-.72-.43-.23-.08-.76-.22-1.59-.43-1.07-.26-1.81-.59-2.25-.97-.6-.54-.91-1.2-.91-1.98,0-.5.14-.97.43-1.41s.69-.77,1.23-1c.54-.23,1.18-.34,1.94-.34,1.24,0,2.17.27,2.79.81s.95,1.27.98,2.17l-1.99.09c-.08-.51-.27-.87-.55-1.09s-.7-.33-1.26-.33-1.03.12-1.36.36c-.21.15-.32.36-.32.61,0,.23.1.43.3.6.25.21.86.43,1.83.66s1.68.46,2.15.71c.46.25.83.58,1.09,1,.26.42.39.95.39,1.57,0,.56-.16,1.09-.47,1.59-.31.49-.76.86-1.33,1.1-.57.24-1.29.36-2.14.36-1.25,0-2.2-.29-2.87-.86-.67-.58-1.07-1.42-1.2-2.52Z"/><rect class="cls-1" x="45.9" y="24.72" width="1" height="1.67"/><rect class="cls-1" x="45.9" y="36.01" width="1" height="1.67"/><path class="cls-1" d="M55.98,17.62l1.49-.14c.09.5.27.87.55,1.1.27.23.64.35,1.11.35.49,0,.86-.1,1.11-.31.25-.21.37-.45.37-.73,0-.18-.05-.33-.16-.46-.11-.13-.29-.24-.55-.33-.18-.06-.59-.17-1.22-.33-.82-.2-1.4-.45-1.73-.75-.46-.42-.7-.93-.7-1.52,0-.39.11-.75.33-1.08s.53-.59.95-.77c.41-.18.91-.26,1.49-.26.95,0,1.67.21,2.15.63s.73.97.76,1.67l-1.53.07c-.07-.39-.21-.67-.42-.84s-.54-.26-.97-.26-.79.09-1.04.27c-.16.12-.24.27-.24.47,0,.18.08.33.23.46.19.16.66.33,1.41.51s1.29.36,1.65.55c.36.19.64.44.84.77.2.33.3.73.3,1.21,0,.43-.12.84-.36,1.22-.24.38-.58.66-1.02.85-.44.18-.99.28-1.65.28-.96,0-1.69-.22-2.21-.66-.51-.44-.82-1.09-.92-1.94Z"/><rect class="cls-1" x="58.71" y="11.4" width=".77" height="1.29"/><rect class="cls-1" x="58.71" y="20.09" width=".77" height="1.29"/></svg>