<?xml version="1.0" encoding="UTF-8"?>
<svg id="Layer_1" xmlns="http://www.w3.org/2000/svg" version="1.1" viewBox="0 0 80 80">
  <!-- Generator: Adobe Illustrator 29.2.1, SVG Export Plug-In . SVG Version: 2.1.0 Build 116)  -->
  <defs>
    <style>
      .st0 {
        stroke-linejoin: round;
      }

      .st0, .st1 {
        stroke-linecap: round;
      }

      .st0, .st1, .st2 {
        fill: none;
        stroke: #fd6f39;
      }

      .st3 {
        fill: #fd6f39;
      }

      .st1, .st2 {
        stroke-miterlimit: 10;
      }
    </style>
  </defs>
  <g id="Layer_11" data-name="Layer_1">
    <g>
      <path class="st2" d="M60.3,40c0,5.9-2.5,11.3-6.6,15-3.6,3.3-8.4,5.3-13.7,5.3s-10.5-2.2-14.1-5.8c-3.8-3.7-6.1-8.8-6.1-14.5,0-11.2,9.1-20.3,20.3-20.3s20.3,9.1,20.3,20.3Z"/>
      <circle class="st2" cx="40" cy="34.9" r="6.7"/>
      <path class="st2" d="M53.7,55c-3.6,3.3-8.4,5.3-13.7,5.3s-10.5-2.2-14.1-5.8c.4-7.2,6.4-12.8,13.9-12.8s13.8,5.9,13.9,13.3h0Z"/>
      <path class="st1" d="M39.8,76.8c-17.7-.2-33.2-13.4-36-30.8"/>
      <path class="st1" d="M76.8,40c0,18.3-13.3,33.4-30.8,36.3"/>
      <path class="st1" d="M40,3.2c18.2,0,33.3,13.2,36.2,30.6"/>
      <path class="st1" d="M3.2,40.1h0C3.2,21.8,16.5,6.7,33.8,3.8"/>
      <g>
        <line class="st0" x1="3.2" y1="40" x2="14.3" y2="40"/>
        <polygon class="st3" points="11 44.1 10.3 43.4 13.9 40 10.3 36.6 11 35.9 15.4 40 11 44.1"/>
      </g>
      <g>
        <line class="st0" x1="76.8" y1="40" x2="65.7" y2="40"/>
        <polygon class="st3" points="69 35.9 69.7 36.6 66.1 40 69.7 43.4 69 44.1 64.6 40 69 35.9"/>
      </g>
      <g>
        <line class="st0" x1="39.8" y1="76.8" x2="39.8" y2="65.7"/>
        <polygon class="st3" points="43.8 69 43.1 69.7 39.8 66.1 36.4 69.7 35.7 69 39.8 64.6 43.8 69"/>
      </g>
      <g>
        <line class="st0" x1="40" y1="3.2" x2="40" y2="14.3"/>
        <polygon class="st3" points="35.9 11 36.6 10.3 40 13.9 43.4 10.3 44.1 11 40 15.4 35.9 11"/>
      </g>
    </g>
  </g>
</svg>