<?xml version="1.0" encoding="UTF-8"?><svg id="Layer_1" xmlns="http://www.w3.org/2000/svg" viewBox="0 0 80 80"><defs><style>.cls-1{fill:#fd6f39;}</style></defs><path class="cls-1" d="M68.42,54.38H10.46c-1.21,0-2.19-.98-2.19-2.19V10.91c0-1.21.98-2.19,2.19-2.19h57.96c1.21,0,2.19.98,2.19,2.19v41.27c0,1.21-.98,2.19-2.19,2.19ZM10.46,9.72c-.66,0-1.19.54-1.19,1.19v41.27c0,.66.54,1.19,1.19,1.19h57.96c.66,0,1.19-.54,1.19-1.19V10.91c0-.66-.54-1.19-1.19-1.19H10.46Z"/><rect class="cls-1" x="8.77" y="46.86" width="61.35" height="1"/><path class="cls-1" d="M39.31,52.98c-1.28,0-2.32-1.04-2.32-2.32s1.04-2.32,2.32-2.32,2.32,1.04,2.32,2.32-1.04,2.32-2.32,2.32ZM39.31,48.84c-1,0-1.82.82-1.82,1.82s.82,1.82,1.82,1.82,1.82-.82,1.82-1.82-.82-1.82-1.82-1.82Z"/><path class="cls-1" d="M39.44,30.52c-1.18,0-2.14-.96-2.14-2.14s.96-2.14,2.14-2.14,2.14.96,2.14,2.14-.96,2.14-2.14,2.14ZM39.44,26.74c-.9,0-1.64.74-1.64,1.64s.74,1.64,1.64,1.64,1.64-.73,1.64-1.64-.74-1.64-1.64-1.64Z"/><path class="cls-1" d="M44.65,33.04c-1.18,0-2.14-.96-2.14-2.14s.96-2.14,2.14-2.14,2.14.96,2.14,2.14-.96,2.14-2.14,2.14ZM44.65,29.26c-.9,0-1.64.74-1.64,1.64s.73,1.64,1.64,1.64,1.64-.74,1.64-1.64-.74-1.64-1.64-1.64Z"/><path class="cls-1" d="M49.6,27.79c-1.18,0-2.14-.96-2.14-2.14s.96-2.14,2.14-2.14,2.14.96,2.14,2.14-.96,2.14-2.14,2.14ZM49.6,24.01c-.9,0-1.64.74-1.64,1.64s.74,1.64,1.64,1.64,1.64-.74,1.64-1.64-.74-1.64-1.64-1.64Z"/><path class="cls-1" d="M54.9,23.98c-1.18,0-2.14-.96-2.14-2.14s.96-2.14,2.14-2.14,2.14.96,2.14,2.14-.96,2.14-2.14,2.14ZM54.9,20.21c-.9,0-1.64.74-1.64,1.64s.74,1.64,1.64,1.64,1.64-.74,1.64-1.64-.74-1.64-1.64-1.64Z"/><path class="cls-1" d="M47.76,67.68h-16.91c-.32,0-.6-.19-.71-.49-.11-.29-.02-.62.22-.82,1.34-1.13,2.46-2.46,3.33-3.97.82-1.43,1.4-2.97,1.71-4.6.1-.52.57-.9,1.11-.9h5.6c.58,0,1.07.44,1.12,1.01.15,1.62.66,3.22,1.46,4.63,1.08,1.88,2.49,3.1,3.48,3.78.27.19.38.52.29.83-.1.31-.39.52-.72.52ZM31.53,66.68h15.46c-1-.78-2.19-1.97-3.15-3.64-.87-1.53-1.42-3.27-1.59-5.03,0-.06-.06-.11-.13-.11h-5.6c-.06,0-.11.04-.12.09-.34,1.73-.95,3.38-1.83,4.91-.81,1.41-1.83,2.69-3.03,3.79Z"/><path class="cls-1" d="M51.3,70.12h-23.46c-.28,0-.5-.22-.5-.5s.22-.5.5-.5h23.46c.28,0,.5.22.5.5s-.22.5-.5.5Z"/><path class="cls-1" d="M33.93,29.28l-8.46-.7.7-8.59.28.06c1.14.23,3.33.92,5.12,2.93,2.06,2.31,2.33,4.99,2.35,6.03v.28ZM26,28.12l7.4.61c-.06-1.13-.43-3.42-2.22-5.43-1.56-1.75-3.44-2.45-4.57-2.71l-.61,7.53Z"/><path class="cls-1" d="M16.9,31.9l-.09-.28c-.15-.46-1.37-4.62,1.45-8.14,2.25-2.8,5.46-3.16,6.39-3.2h.29s-.79,8.07-.79,8.07l-7.25,3.54ZM24.39,20.81c-1.13.1-3.81.59-5.74,2.99-2.34,2.91-1.7,6.38-1.45,7.39l6.47-3.16.71-7.22Z"/><path class="cls-1" d="M24.54,38.02c-.84,0-1.77-.12-2.74-.46-2.92-1.02-4.32-3.28-4.78-4.2l-.11-.23,7.89-3.83,3.7,7.79-.23.11c-.51.24-1.91.82-3.72.82ZM17.58,33.36c.53.97,1.85,2.84,4.38,3.73,2.63.92,4.94.16,5.86-.23l-3.26-6.88-6.97,3.38Z"/><path class="cls-1" d="M29.22,36.96l-3.65-7.61.43.03c1.26.1,2.54.2,3.82.31,1.33.11,2.65.22,3.96.32l.25.02v.25c-.04.4-.2,1.85-1.21,3.53-1,1.67-2.38,2.58-3.37,3.04l-.22.11ZM26.4,29.92l3.06,6.37c.9-.47,2.07-1.3,2.93-2.74.8-1.33,1.03-2.5,1.1-3.06-1.22-.1-2.46-.2-3.71-.3-1.13-.09-2.27-.19-3.38-.28Z"/><path class="cls-1" d="M24.32,24.33s-.09-.01-.13-.03l-3.82-2.23c-.12-.07-.16-.22-.09-.34.07-.12.22-.16.34-.09l3.82,2.23c.12.07.16.22.09.34-.05.08-.13.12-.22.12Z"/><polygon class="cls-1" points="23.94 26.92 18.55 23.92 18.79 23.48 24.18 26.48 23.94 26.92"/><polygon class="cls-1" points="22.56 28.92 17.47 25.71 17.73 25.29 22.82 28.5 22.56 28.92"/><path class="cls-1" d="M20.5,30.11s-.09-.01-.13-.04l-3.73-2.3c-.11-.07-.15-.22-.08-.34.07-.12.22-.15.34-.08l3.73,2.3c.11.07.15.22.08.34-.05.08-.13.12-.21.12Z"/><rect class="cls-1" x="41.7" y="28.72" width=".5" height="1.86" transform="translate(-4.43 51.73) rotate(-60.71)"/><rect class="cls-1" x="45.47" y="28.08" width="3.5" height=".5" transform="translate(-6.42 40.8) rotate(-44.05)"/><rect class="cls-1" x="50.76" y="23.45" width="2.85" height=".5" transform="translate(-2.5 40.85) rotate(-41.84)"/><path class="cls-1" d="M41.05,39.12h-3.93v-6.23h3.93v6.23ZM37.62,38.62h2.93v-5.23h-2.93v5.23Z"/><path class="cls-1" d="M46.61,39.33h-3.93v-4.35h3.93v4.35ZM43.18,38.83h2.93v-3.35h-2.93v3.35Z"/><path class="cls-1" d="M52.15,39.33h-3.93v-9.31h3.93v9.31ZM48.72,38.83h2.93v-8.31h-2.93v8.31Z"/><path class="cls-1" d="M58.03,39.33h-3.93v-13.09h3.93v13.09ZM54.6,38.83h2.93v-12.09h-2.93v12.09Z"/><polygon class="cls-1" points="60.77 41.52 37.55 41.52 37.55 41.02 60.27 41.02 60.27 18.79 60.77 18.79 60.77 41.52"/><polygon class="cls-1" points="62.37 20.19 60.52 19.41 58.66 20.19 60.52 15.8 62.37 20.19"/></svg>