<?xml version="1.0" encoding="UTF-8"?><svg id="Layer_1" xmlns="http://www.w3.org/2000/svg" viewBox="0 0 80 80"><defs><style>.cls-1{fill:none;stroke:#fd6f39;stroke-miterlimit:10;stroke-width:2px;}.cls-2{fill:#fd6f39;}</style></defs><circle class="cls-1" cx="41.19" cy="21.95" r="11.6"/><path class="cls-1" d="M20.56,45.08c4.36-7.51,12.45-12.07,21.06-11.85,12.91.33,19.49,11.23,19.85,11.85"/><path class="cls-2" d="M27.06,69.33c-2.11-1.38-4.23-2.76-6.34-4.14-2.2,1.49-4.39,2.97-6.59,4.46.57-2.53,1.14-5.07,1.71-7.6-1.78-1.78-3.57-3.57-5.36-5.36,2.74.05,5.47.09,8.21.14.66-2.45,1.32-4.9,1.97-7.35.99,2.32,1.97,4.63,2.96,6.95,2.31.21,4.61.41,6.92.62-1.53,1.59-3.06,3.19-4.59,4.78.37,2.5.73,5,1.1,7.5Z"/><path class="cls-2" d="M47.56,60.57c-2.11-1.38-4.23-2.76-6.34-4.14-2.2,1.49-4.39,2.97-6.59,4.46.57-2.53,1.14-5.07,1.71-7.6-1.78-1.78-3.57-3.57-5.36-5.36,2.74.05,5.47.09,8.21.14.66-2.45,1.32-4.9,1.97-7.35.99,2.32,1.97,4.63,2.96,6.95,2.31.21,4.61.41,6.92.62-1.53,1.59-3.06,3.19-4.59,4.78.37,2.5.73,5,1.1,7.5Z"/><path class="cls-2" d="M67.17,69.33c-2.11-1.38-4.23-2.76-6.34-4.14-2.2,1.49-4.39,2.97-6.59,4.46.57-2.53,1.14-5.07,1.71-7.6-1.78-1.78-3.57-3.57-5.36-5.36,2.74.05,5.47.09,8.21.14.66-2.45,1.32-4.9,1.97-7.35.99,2.32,1.97,4.63,2.96,6.95,2.31.21,4.61.41,6.92.62-1.53,1.59-3.06,3.19-4.59,4.78.37,2.5.73,5,1.1,7.5Z"/></svg>