<?xml version="1.0" encoding="UTF-8"?><svg id="Layer_1" xmlns="http://www.w3.org/2000/svg" viewBox="0 0 80 80"><defs><style>.cls-1{fill:#f36f3e;}</style></defs><path class="cls-1" d="M40.57,55.86c-4.55,0-8.25-4.2-8.25-9.36s3.7-9.36,8.25-9.36,8.25,4.2,8.25,9.36-3.7,9.36-8.25,9.36ZM40.57,38.12c-4.01,0-7.27,3.76-7.27,8.38s3.26,8.38,7.27,8.38,7.27-3.76,7.27-8.38-3.26-8.38-7.27-8.38Z"/><path class="cls-1" d="M40.54,59.78h-.04c-1.84-.02-3.53-1.04-4.4-2.67l-.06-.11v-2.92h.99v2.67c.71,1.25,2.03,2.03,3.47,2.05h.04c1.46,0,2.79-.78,3.51-2.05v-2.67h.99v2.92l-.06.11c-.88,1.65-2.58,2.67-4.44,2.67Z"/><path class="cls-1" d="M19.63,71.72s-.03,0-.04,0c-.28-.02-.48-.26-.46-.54.11-1.44.29-2.91.53-4.35.17-.98.36-1.98.59-2.97.41-.98,1.15-2.28,2.53-3.35,1.89-1.47,3.93-1.72,5.01-1.73.79-.18,1.6-.38,2.44-.6,1.97-.54,3.94-1.2,5.85-1.96.26-.1.55.02.65.28.1.26-.02.55-.28.65-1.94.78-3.95,1.46-5.96,2-.87.24-1.71.44-2.53.63h-.11c-.94.02-2.77.22-4.46,1.54-1.21.94-1.86,2.08-2.2,2.87-.2.88-.39,1.86-.55,2.82-.24,1.41-.41,2.85-.52,4.26-.02.26-.24.46-.5.46Z"/><path class="cls-1" d="M61.39,71.72c-.24,0-.46-.18-.49-.43l-.98-6.88c-.23-.79-.78-2.03-1.98-3.07-1.76-1.51-3.8-1.6-4.59-1.56h-.07s-.07-.01-.07-.01c-1.91-.47-3.82-1.05-5.67-1.71-1.06-.38-2.13-.79-3.17-1.23-.25-.11-.37-.4-.27-.66.11-.26.4-.37.66-.27,1.02.43,2.07.84,3.12,1.21,1.8.64,3.65,1.2,5.51,1.66.96-.04,3.24.1,5.21,1.8,1.39,1.19,2.02,2.62,2.31,3.62l.99,6.95c.04.27-.15.53-.42.57-.02,0-.05,0-.07,0Z"/><path class="cls-1" d="M25.89,71.72c-.28,0-.5-.22-.5-.5v-5.09c0-.28.22-.5.5-.5s.5.22.5.5v5.09c0,.28-.22.5-.5.5Z"/><path class="cls-1" d="M55.24,72.04c-.28,0-.5-.22-.5-.5v-5.41c0-.28.22-.5.5-.5s.5.22.5.5v5.41c0,.28-.22.5-.5.5Z"/><path class="cls-1" d="M11.2,51.58c-2,0-3.63-1.63-3.63-3.63s1.63-3.63,3.63-3.63,3.63,1.63,3.63,3.63-1.63,3.63-3.63,3.63ZM11.2,45.32c-1.45,0-2.63,1.18-2.63,2.63s1.18,2.63,2.63,2.63,2.63-1.18,2.63-2.63-1.18-2.63-2.63-2.63Z"/><path class="cls-1" d="M11.2,26.73c-2,0-3.63-1.63-3.63-3.63s1.63-3.63,3.63-3.63,3.63,1.63,3.63,3.63-1.63,3.63-3.63,3.63ZM11.2,20.47c-1.45,0-2.63,1.18-2.63,2.63s1.18,2.63,2.63,2.63,2.63-1.18,2.63-2.63-1.18-2.63-2.63-2.63Z"/><path class="cls-1" d="M69.8,26.73c-2,0-3.63-1.63-3.63-3.63s1.63-3.63,3.63-3.63,3.63,1.63,3.63,3.63-1.63,3.63-3.63,3.63ZM69.8,20.47c-1.45,0-2.63,1.18-2.63,2.63s1.18,2.63,2.63,2.63,2.63-1.18,2.63-2.63-1.18-2.63-2.63-2.63Z"/><path class="cls-1" d="M69.8,51.58c-2,0-3.63-1.63-3.63-3.63s1.63-3.63,3.63-3.63,3.63,1.63,3.63,3.63-1.63,3.63-3.63,3.63ZM69.8,45.32c-1.45,0-2.63,1.18-2.63,2.63s1.18,2.63,2.63,2.63,2.63-1.18,2.63-2.63-1.18-2.63-2.63-2.63Z"/><path class="cls-1" d="M20.94,55.45c-.1,0-.21-.03-.3-.1l-7.11-5.28c-.22-.17-.27-.48-.1-.7.17-.22.48-.27.7-.1l7.11,5.28c.22.17.27.48.1.7-.1.13-.25.2-.4.2Z"/><path class="cls-1" d="M11.2,45.32c-.28,0-.5-.22-.5-.5v-18.59c0-.28.22-.5.5-.5s.5.22.5.5v18.59c0,.28-.22.5-.5.5Z"/><path class="cls-1" d="M13.82,21.89c-.19,0-.38-.11-.46-.3-.11-.25,0-.55.26-.66l16.21-7.14c.25-.11.55,0,.66.26.11.25,0,.55-.26.66l-16.21,7.14c-.07.03-.13.04-.2.04Z"/><path class="cls-1" d="M67.18,21.89c-.07,0-.14-.01-.2-.04l-16.02-7.14c-.25-.11-.37-.41-.25-.66.11-.25.41-.36.66-.25l16.02,7.14c.25.11.37.41.25.66-.08.19-.27.3-.46.3Z"/><path class="cls-1" d="M69.8,45.32c-.28,0-.5-.22-.5-.5v-18.59c0-.28.22-.5.5-.5s.5.22.5.5v18.59c0,.28-.22.5-.5.5Z"/><path class="cls-1" d="M65.45,42.34c-.28,0-.5-.22-.5-.5v-13.11c0-.28.22-.5.5-.5s.5.22.5.5v13.11c0,.28-.22.5-.5.5Z"/><path class="cls-1" d="M61.39,55.87c-.14,0-.28-.06-.37-.17-.18-.21-.16-.52.04-.71l6.06-5.37c.21-.18.52-.17.71.04s.16.52-.04.71l-6.06,5.37c-.1.08-.21.13-.33.13Z"/><path class="cls-1" d="M62.12,24.34c-.07,0-.14-.01-.21-.05l-10.96-5.09c-.25-.12-.36-.41-.24-.66.12-.25.41-.36.66-.24l10.96,5.09c.25.12.36.41.24.66-.08.18-.26.29-.45.29Z"/><path class="cls-1" d="M18.88,24.34c-.19,0-.37-.11-.46-.29-.11-.25,0-.55.25-.66l11.15-5.09c.25-.11.55,0,.66.25.11.25,0,.55-.25.66l-11.15,5.09c-.07.03-.14.04-.21.04Z"/><path class="cls-1" d="M15.46,42.34c-.28,0-.5-.22-.5-.5v-13.11c0-.28.22-.5.5-.5s.5.22.5.5v13.11c0,.28-.22.5-.5.5Z"/><path class="cls-1" d="M40.4,26.39l-1.66-4.64h-5.09c-2.02,0-3.66-1.64-3.66-3.66v-8.84c0-2.02,1.64-3.66,3.66-3.66h14.38c2.02,0,3.66,1.64,3.66,3.66v9.68c0,2.02-1.64,3.66-3.66,3.66h-5.19l-2.44,3.79ZM33.65,6.66c-1.43,0-2.6,1.17-2.6,2.6v8.84c0,1.43,1.17,2.6,2.6,2.6h5.83l1.19,3.32,1.59-2.47h5.77c1.43,0,2.6-1.17,2.6-2.6v-9.68c0-1.43-1.17-2.6-2.6-2.6h-14.38Z"/><circle class="cls-1" cx="36.35" cy="14.56" r=".37"/><circle class="cls-1" cx="38.2" cy="14.56" r=".37"/><circle class="cls-1" cx="40" cy="14.56" r=".37"/><circle class="cls-1" cx="41.73" cy="14.56" r=".37"/><circle class="cls-1" cx="43.5" cy="14.56" r=".37"/><circle class="cls-1" cx="19.79" cy="31.18" r=".37"/><circle class="cls-1" cx="19.79" cy="33.03" r=".37"/><circle class="cls-1" cx="19.79" cy="34.83" r=".37"/><circle class="cls-1" cx="19.79" cy="36.56" r=".37"/><circle class="cls-1" cx="19.79" cy="38.34" r=".37"/><circle class="cls-1" cx="61.39" cy="31.26" r=".37"/><circle class="cls-1" cx="61.39" cy="33.1" r=".37"/><circle class="cls-1" cx="61.39" cy="34.91" r=".37"/><circle class="cls-1" cx="61.39" cy="36.64" r=".37"/><circle class="cls-1" cx="61.39" cy="38.41" r=".37"/></svg>