<?xml version="1.0" encoding="UTF-8"?><svg id="Layer_1" xmlns="http://www.w3.org/2000/svg" viewBox="0 0 80 80"><defs><style>.cls-1{fill:#f36f3e;}.cls-2{stroke-width:1.35px;}.cls-2,.cls-3,.cls-4{fill:none;stroke:#f36f3e;stroke-miterlimit:10;}.cls-5{fill:#fd6f39;}.cls-3{stroke-width:1.39px;}</style></defs><rect class="cls-4" x="8.6" y="55.47" width="15.21" height="15.21" rx="7.6" ry="7.6"/><rect class="cls-4" x="57.82" y="55.47" width="15.21" height="15.21" rx="7.6" ry="7.6"/><rect class="cls-4" x="33.15" y="35.09" width="15.21" height="15.21" rx="7.6" ry="7.6"/><rect class="cls-2" x="30.47" y="32.4" width="20.58" height="20.58" rx="10.29" ry="10.29"/><rect class="cls-3" x="30.47" y="53.36" width="20.58" height="5.28" rx="1.91" ry="1.91"/><rect class="cls-3" x="30.47" y="59.03" width="20.58" height="5.28" rx="1.91" ry="1.91"/><rect class="cls-3" x="30.52" y="65.01" width="20.58" height="5.28" rx="1.91" ry="1.91"/><path class="cls-1" d="M42.05,30.58h-2.64c-.43,0-.83-.17-1.12-.48-.3-.31-.45-.71-.44-1.14l.47-14.41h-2.5c-.36-.01-.68-.21-.84-.53-.16-.32-.14-.69.07-.98l5.15-7.3c.18-.25.46-.35.76-.39.3,0,.58.15.76.39l5.05,7.22c.21.31.24.7.07,1.04-.17.33-.51.54-.89.54h-2.34v14.48c0,.86-.7,1.56-1.56,1.56ZM36.67,13.15h3.09s-.52,15.86-.52,15.86c0,.06.02.1.05.12.02.02.06.05.12.05h2.64c.09,0,.17-.08.17-.17v-15.87h2.98l-4.24-6.07-4.28,6.07Z"/><path class="cls-1" d="M14.51,55.87h-1.39c.05-5.25,1.19-13.14,6.32-21.03,6.09-9.37,14.61-13.63,19.15-15.34l.49,1.3c-4.38,1.65-12.59,5.76-18.47,14.8-4.95,7.61-6.05,15.22-6.1,20.27Z"/><path class="cls-1" d="M18.5,55.68l-1.39-.08c.26-4.39,1.63-12.92,7.85-20.76,3.46-4.37,7.99-7.96,13.11-10.37l.59,1.26c-4.93,2.33-9.29,5.78-12.62,9.98-5.97,7.55-7.29,15.76-7.55,19.98Z"/><path class="cls-1" d="M68.51,55.86h-1.39c0-4.15-.79-12.3-6.09-20.26-4.39-6.59-10.01-10.34-13.94-12.32l.62-1.24c4.09,2.06,9.92,5.95,14.48,12.79,5.51,8.27,6.33,16.72,6.33,21.03Z"/><path class="cls-1" d="M63.13,55.68c-.25-4.22-1.57-12.43-7.55-19.98-3.33-4.2-7.69-7.65-12.62-9.98l.59-1.26c5.12,2.42,9.65,6,13.11,10.37,6.21,7.85,7.58,16.38,7.85,20.76l-1.39.08Z"/><path class="cls-1" d="M65.62,25.52c-.2,0-.41-.04-.6-.14-.45-.21-.74-.66-.77-1.15l-.08-1.3c-5.62-.64-11.22-.5-16.66.42-1.39.24-2.78.52-4.14.85l-.33-1.35c1.38-.34,2.81-.63,4.23-.87,5.61-.95,11.39-1.09,17.18-.42.59.07,1.05.55,1.09,1.16l.09,1.43,6.1-4.29-5.96-4.03.03,1.35c0,.34-.14.67-.39.91-.25.23-.58.35-.93.33-3.89-.26-7.83-.27-11.7,0-3.16.21-6.34.6-9.46,1.16l-.25-1.37c3.17-.57,6.41-.97,9.61-1.18,3.88-.26,7.83-.26,11.73,0v-1.2c0-.51.28-.97.73-1.21.45-.24.99-.21,1.41.08l5.96,4.06c.37.25.6.67.6,1.13s-.22.87-.59,1.13l-6.14,4.28c-.23.16-.51.25-.78.25Z"/><path class="cls-1" d="M16.01,25.69c-.28,0-.55-.08-.79-.25l-6.13-4.28c-.37-.26-.59-.68-.59-1.13,0-.45.23-.87.6-1.13l5.96-4.06c.42-.29.96-.32,1.41-.08.45.24.73.7.73,1.21v1.2c3.89-.26,7.84-.26,11.73,0,3.21.22,6.44.61,9.61,1.18l-.25,1.37c-3.12-.56-6.3-.95-9.46-1.16-3.88-.26-7.82-.26-11.71,0-.34.02-.68-.1-.93-.33-.25-.23-.39-.56-.39-.91v-1.37l-5.93,4.08,6.13,4.25.07-1.64.15-.17c.12-.14.3-.35.54-.57,1.85-1.73,4.35-1.95,7.79-1.74,3.27.2,6.61.75,9.92,1.62l-.36,1.35c-3.22-.85-6.46-1.38-9.65-1.58-3.07-.19-5.26-.03-6.75,1.37-.11.1-.2.2-.27.28l-.08,1.19c-.03.49-.33.93-.77,1.15-.19.09-.39.13-.59.13Z"/><path class="cls-5" d="M39.4,47.06c-.39-.11-.7-.25-.93-.41-.23-.16-.34-.3-.34-.43,0-.11.07-.27.2-.48.13-.21.25-.32.36-.32.02,0,.12.06.3.18s.41.22.68.32c.27.1.57.14.9.14,1.05,0,1.57-.43,1.57-1.3,0-.36-.12-.65-.35-.86-.23-.21-.65-.41-1.25-.58-.84-.25-1.42-.55-1.74-.92-.32-.37-.48-.86-.48-1.48,0-.45.11-.85.34-1.2.23-.35.54-.63.94-.82.4-.2.86-.3,1.37-.3.54,0,1.03.07,1.46.21s.65.3.65.48c0,.14-.06.32-.18.54s-.23.33-.33.33c-.03,0-.17-.08-.42-.22-.25-.13-.59-.2-1.03-.2-.41,0-.74.09-1.02.27-.27.18-.41.43-.41.74,0,.36.1.65.29.86.19.21.51.39.96.53.68.21,1.2.42,1.56.63s.61.46.77.77c.15.3.23.7.23,1.19s-.12.89-.38,1.27c-.25.38-.59.68-1.02.9-.43.22-.91.33-1.43.33-.46,0-.88-.06-1.27-.17Z"/><path class="cls-5" d="M40.81,39.76c-.28,0-.5-.22-.5-.5v-1.89c0-.28.22-.5.5-.5s.5.22.5.5v1.89c0,.28-.22.5-.5.5Z"/><path class="cls-5" d="M40.81,48.62c-.25,0-.45-.2-.45-.45v-1.54c0-.25.2-.45.45-.45s.45.2.45.45v1.54c0,.25-.2.45-.45.45Z"/><path class="cls-5" d="M14.46,67.48c-.39-.11-.7-.25-.93-.41-.23-.16-.34-.3-.34-.43,0-.11.07-.27.2-.48.13-.21.25-.32.36-.32.02,0,.12.06.3.18s.41.22.68.32c.27.1.57.14.9.14,1.05,0,1.57-.43,1.57-1.3,0-.36-.12-.65-.35-.86-.23-.21-.65-.41-1.25-.58-.84-.25-1.42-.55-1.74-.92-.32-.37-.48-.86-.48-1.48,0-.45.11-.85.34-1.2.23-.35.54-.63.94-.82.4-.2.86-.3,1.37-.3.54,0,1.03.07,1.46.21s.65.3.65.48c0,.14-.06.32-.18.54s-.23.33-.33.33c-.03,0-.17-.08-.42-.22-.25-.13-.59-.2-1.03-.2-.41,0-.74.09-1.02.27-.27.18-.41.43-.41.74,0,.36.1.65.29.86.19.21.51.39.96.53.68.21,1.2.42,1.56.63s.61.46.77.77c.15.3.23.7.23,1.19s-.12.89-.38,1.27c-.25.38-.59.68-1.02.9-.43.22-.91.33-1.43.33-.46,0-.88-.06-1.27-.17Z"/><path class="cls-5" d="M15.88,60.18c-.28,0-.5-.22-.5-.5v-1.89c0-.28.22-.5.5-.5s.5.22.5.5v1.89c0,.28-.22.5-.5.5Z"/><path class="cls-5" d="M15.88,69.04c-.25,0-.45-.2-.45-.45v-1.54c0-.25.2-.45.45-.45s.45.2.45.45v1.54c0,.25-.2.45-.45.45Z"/><path class="cls-5" d="M64.22,67.48c-.39-.11-.7-.25-.93-.41-.23-.16-.34-.3-.34-.43,0-.11.07-.27.2-.48.13-.21.25-.32.36-.32.02,0,.12.06.3.18s.41.22.68.32c.27.1.57.14.9.14,1.05,0,1.57-.43,1.57-1.3,0-.36-.12-.65-.35-.86-.23-.21-.65-.41-1.25-.58-.84-.25-1.42-.55-1.74-.92-.32-.37-.48-.86-.48-1.48,0-.45.11-.85.34-1.2.23-.35.54-.63.94-.82.4-.2.86-.3,1.37-.3.54,0,1.03.07,1.46.21s.65.3.65.48c0,.14-.06.32-.18.54s-.23.33-.33.33c-.03,0-.17-.08-.42-.22-.25-.13-.59-.2-1.03-.2-.41,0-.74.09-1.02.27-.27.18-.41.43-.41.74,0,.36.1.65.29.86.19.21.51.39.96.53.68.21,1.2.42,1.56.63s.61.46.77.77c.15.3.23.7.23,1.19s-.12.89-.38,1.27c-.25.38-.59.68-1.02.9-.43.22-.91.33-1.43.33-.46,0-.88-.06-1.27-.17Z"/><path class="cls-5" d="M65.64,60.18c-.28,0-.5-.22-.5-.5v-1.89c0-.28.22-.5.5-.5s.5.22.5.5v1.89c0,.28-.22.5-.5.5Z"/><path class="cls-5" d="M65.64,69.04c-.25,0-.45-.2-.45-.45v-1.54c0-.25.2-.45.45-.45s.45.2.45.45v1.54c0,.25-.2.45-.45.45Z"/></svg>