<?xml version="1.0" encoding="UTF-8"?>
<svg id="Layer_1" xmlns="http://www.w3.org/2000/svg" version="1.1" viewBox="0 0 80 80">
  <!-- Generator: Adobe Illustrator 29.2.1, SVG Export Plug-In . SVG Version: 2.1.0 Build 116)  -->
  <defs>
    <style>
      .st0 {
        fill: none;
        stroke: #fd6f39;
        stroke-miterlimit: 10;
      }
    </style>
  </defs>
  <g id="Layer_11" data-name="Layer_1">
    <g>
      <circle class="st0" cx="40" cy="40" r="39.4"/>
      <g>
        <path class="st0" d="M11,23.8s0,0,0,0h0Z"/>
        <path class="st0" d="M69,49.9c-7.1,4.2-17.5,6.1-29.2,6.1s-21.7-1.9-28.8-6.1v-26.1h0c7.1-4.1,17.5-6,29.1-6s21.8,1.7,28.9,5.9v26.1h0Z"/>
        <polyline class="st0" points="12.1 24.7 22 29.6 22 45 12.5 49.4"/>
        <line class="st0" x1="18" y1="32" x2="18" y2="42.2"/>
        <line class="st0" x1="14.8" y1="29.3" x2="14.8" y2="45"/>
        <polyline class="st0" points="67.8 24.6 57.9 29.5 57.9 44.9 67.4 49.3"/>
        <line class="st0" x1="62" y1="31.9" x2="62" y2="42.2"/>
        <line class="st0" x1="65.1" y1="29.2" x2="65.1" y2="44.9"/>
        <path class="st0" d="M45,27.8c-.2.6-.9,1.1-1.7,1.1-.6,1.8-2,3.1-3.6,3.1s-3-1.2-3.6-3c-.5-.2-.9-.5-1.1-1-.2-.5,0-1,.3-1.5v-3.6s1.6-5.1,6.2-1.7c0,0,2.3-.6,2.8,1.6v3.2c.5.5.8,1.1.6,1.8h0Z"/>
        <line class="st0" x1="34.9" y1="54.7" x2="34.9" y2="40.6"/>
        <line class="st0" x1="44.8" y1="54.7" x2="44.8" y2="40.6"/>
        <path class="st0" d="M31.3,41.5l.6-5.5c.1-1.3,1.3-2.4,2.6-2.4h7.2"/>
        <path class="st0" d="M38.2,33.7h7.2c1.3,0,2.5,1,2.6,2.4l1.3,12.7c.1,1.3-.9,2.4-2.2,2.4h-2.1"/>
        <path class="st0" d="M31.1,43.5l-.4,5.8c0,1.1.8,2,1.8,2h1.8"/>
        <path class="st0" d="M34.9,57.2v12.4c0,1.4,1.1,2.5,2.5,2.5h0c1.4,0,2.5-1.1,2.5-2.5v-13"/>
        <line class="st0" x1="45.1" y1="63.3" x2="45.1" y2="57.9"/>
        <path class="st0" d="M40,56.6v13c0,1.4,1.1,2.5,2.5,2.5h0c1.4,0,2.5-1.1,2.5-2.5v-4.9"/>
        <line class="st0" x1="37.5" y1="58.6" x2="34.9" y2="60.9"/>
        <line class="st0" x1="37.5" y1="61.2" x2="34.9" y2="63.6"/>
        <line class="st0" x1="37.5" y1="63.8" x2="34.9" y2="66.2"/>
        <line class="st0" x1="37.5" y1="66.4" x2="34.9" y2="68.8"/>
        <line class="st0" x1="37.5" y1="69" x2="35.3" y2="71"/>
      </g>
    </g>
  </g>
</svg>