<?xml version="1.0" encoding="UTF-8"?><svg id="Layer_1" xmlns="http://www.w3.org/2000/svg" viewBox="0 0 80 80"><defs><style>.cls-1{fill:#fd6f39;}</style></defs><path class="cls-1" d="M69.27,62.88H10.73c-1.48,0-2.69-1.21-2.69-2.69V19.81c0-1.48,1.21-2.69,2.69-2.69h58.55c1.48,0,2.69,1.21,2.69,2.69v40.37c0,1.48-1.21,2.69-2.69,2.69ZM10.73,18.12c-.93,0-1.69.76-1.69,1.69v40.37c0,.93.76,1.69,1.69,1.69h58.55c.93,0,1.69-.76,1.69-1.69V19.81c0-.93-.76-1.69-1.69-1.69H10.73Z"/><path class="cls-1" d="M40,48.45c-.62,0-1.24-.24-1.72-.71L8.68,18.8l.7-.71,29.6,28.94c.57.56,1.47.56,2.04,0l29.61-28.94.7.71-29.61,28.94c-.48.47-1.1.71-1.72.71Z"/><rect class="cls-1" x="4.85" y="50.48" width="30.82" height="1" transform="translate(-30.29 29.68) rotate(-45.47)"/><rect class="cls-1" x="59.46" y="35.36" width="1" height="30.84" transform="translate(-18.26 58.17) rotate(-45.66)"/></svg>