<?xml version="1.0" encoding="UTF-8"?><svg id="Layer_1" xmlns="http://www.w3.org/2000/svg" viewBox="0 0 80 80"><defs><style>.cls-1{fill:#fd6f39;}.cls-2{fill:none;stroke:#fd6f39;stroke-linecap:round;stroke-miterlimit:10;}</style></defs><path class="cls-1" d="M4.25,60.58c-.4-.47-.8-.93-1.2-1.4.26-.83.52-1.66.77-2.49.25-.95.91-2.78,2.62-4.25.95-.82,2.1-1.42,3.33-1.74,1.84-.43,3.68-.87,5.54-1.34,1.16-.29,2.3-.58,3.44-.87,1.21-1.09,2.28-2.33,3.19-3.67.66-.99,1.24-2.04,1.72-3.14l.29-.66,1.31.57-.29.66c-.51,1.17-1.13,2.31-1.84,3.36-1,1.5-2.2,2.86-3.55,4.06l-.13.11-.17.04c-1.2.31-2.41.62-3.62.92-1.87.46-3.72.91-5.55,1.34-1,.26-1.96.76-2.74,1.43-1.41,1.22-1.97,2.73-2.17,3.52-.32,1.18-.64,2.36-.96,3.53Z"/><path class="cls-1" d="M48.85,49.99c.44.13.88.25,1.33.37-.56.38-1.16.71-1.79.99-.15-.04-.29-.08-.44-.12-.31-.09-.61-.18-.92-.27-1.31-.4-2.63-.83-3.92-1.28l-.24-.15c-.41-.36-.8-.74-1.17-1.13-.35-.35-.67-.7-.99-1.07-.33-.39-.65-.79-.96-1.2-.25-.33-.48-.66-.71-1-.28-.41-.54-.82-.78-1.25-.21-.34-.4-.69-.58-1.05h0c-.07-.12-.12-.23-.18-.34l-.32-.64,1.28-.64.32.64s.04.09.07.13c.57,1.15,1.26,2.26,2.04,3.29.84,1.12,1.79,2.16,2.83,3.1,1.52.53,3.08,1.03,4.63,1.48.17.05.33.1.5.14Z"/><path class="cls-1" d="M55.03,51.91c-.3.4-.63.77-.99,1.09-.24-.14-.48-.25-.72-.33.39-.33.74-.71,1.05-1.11.22.1.44.22.66.35Z"/><path class="cls-1" d="M16.16,34.03l-.48-10.6-.31-.33.25-.23c-.21-1.46-.27-3-.17-4.53.13-1.95.53-3.87,1.17-5.71l.11-.2c.58-.75,1.85-2.1,3.92-2.71,2.48-.72,4.62.07,5.61.56,1.54-1.02,3.21-1.85,4.95-2.48,1.86-.67,3.81-1.09,5.79-1.27,1.59-.14,4.65-.05,7.15,2.1,2.84,2.45,2.99,6.03,3.06,7.56.05,1.14.16,3.77-1.51,6.24-.63.93-2.1,3.12-4.64,3.23-1.6.05-3.68-.71-4.39-2.29-.32-.72-.27-1.38-.22-1.97.05-.65.1-1.2-.26-1.94l-.07-.24h0s-.06-.41-.31-.49c-1.91-.67-4.93-1.36-8.48-.81-4.45.68-7.79,3.26-10.24,5.51l.48,10.53-1.43.07ZM37.53,18.95c.48,1.04.41,1.89.35,2.58-.04.49-.07.89.1,1.27.43.96,1.9,1.51,3.03,1.45,1.82-.08,2.92-1.72,3.51-2.6,1.41-2.08,1.31-4.3,1.26-5.36-.06-1.36-.19-4.51-2.56-6.55-2.1-1.81-4.72-1.88-6.09-1.76-1.85.16-3.68.56-5.43,1.19-1.77.63-3.44,1.49-4.98,2.55l-.37.26-.39-.23c-.55-.32-2.54-1.32-4.9-.64-1.6.46-2.62,1.49-3.12,2.11-.58,1.69-.94,3.44-1.06,5.22-.07,1.08-.06,2.17.04,3.25,2.51-2.2,5.84-4.5,10.21-5.17,3.85-.59,7.11.15,9.17.88.81.29,1.15,1.06,1.24,1.56Z"/><path class="cls-1" d="M33.67,35.73l.05-.87c.09-1.68-1.08-2.89-2.21-3.05-.67-.1-1.4.14-1.99.66-.68.59-1.06,1.45-1.05,2.37v.83s-12.32-1.75-12.32-1.75l-.52-11.48,21.58-.28.22.33s1.37,2.01,3.73,1.91c1.56-.08,2.94-1.01,3.6-2.44l1.33-2.85.16,14.79-12.58,1.82ZM31.21,30.35c.17,0,.34.01.5.04,1.75.25,3.14,1.83,3.39,3.69l9.7-1.41-.09-8.28c-.95.86-2.17,1.38-3.49,1.44-2.54.15-4.17-1.51-4.76-2.23l-19.35.25.4,8.82,9.58,1.36c.18-1.02.69-1.95,1.48-2.64.77-.67,1.7-1.03,2.63-1.03Z"/><path class="cls-1" d="M16.83,33.81l-.68-.23c-.94-.31-2.26-.98-3.22-2.35-1.2-1.73-1.78-4.52-.23-6.57,1.08-1.43,2.71-1.82,3.59-1.94l.71-.09.18,1.42-.71.09c-.65.08-1.87.37-2.63,1.38-1.07,1.42-.68,3.53.26,4.89.73,1.05,1.76,1.57,2.49,1.81l.68.23-.45,1.36Z"/><path class="cls-1" d="M45.06,33.15v-1.43s.71,0,.71,0c.47,0,1.36-.1,2.11-.75.81-.69.97-1.61,1.11-2.34.15-.85.47-2.62-.5-3.4-.89-.71-2.32-.26-2.48-.21l-.68.23-.45-1.36.68-.23c.39-.13,2.39-.71,3.83.45,1.64,1.32,1.2,3.74,1.02,4.77-.15.81-.39,2.15-1.58,3.17-1.1.95-2.38,1.09-3.04,1.09h-.72Z"/><path class="cls-1" d="M31.25,44.71c-6.06,0-11.22-4.51-12.06-10.61l-.1-.71,1.42-.2.1.71c.76,5.48,5.45,9.55,10.91,9.37,5.19-.13,9.65-4.15,10.37-9.35l.1-.71,1.42.2-.1.71c-.82,5.89-5.87,10.44-11.75,10.59-.1,0-.2,0-.3,0Z"/><polygon class="cls-1" points="27.95 56.48 20.87 46.84 22.02 45.99 28.11 54.27 38.92 43.21 39.94 44.21 27.95 56.48"/><polygon class="cls-1" points="35.48 56.46 22.85 43.6 23.87 42.59 35.35 54.29 41.21 46.7 42.34 47.57 35.48 56.46"/><rect class="cls-1" x="30.77" y="50.45" width="1.43" height="10.24" transform="translate(-1.3 .75) rotate(-1.34)"/><rect class="cls-1" x="26.93" y="26.05" width="8.67" height="1.43"/><path class="cls-1" d="M30.98,40.46c-2.04,0-3.32-1.48-3.47-1.67l-.45-.55,1.11-.91.45.55c.05.05,1.11,1.31,2.7,1.12,1.28-.15,2-1.12,2.13-1.32l.4-.59,1.18.8-.4.59c-.27.4-1.3,1.71-3.14,1.93-.17.02-.34.03-.51.03Z"/><path class="cls-1" d="M73.69,50.71c-.94-.47-1.8-1.08-2.55-1.82-.84-.83-1.52-1.79-2.02-2.87-.28-.59-.86-.96-1.51-.96h-13.36c-.5,0-.96.27-1.2.69-.7,1.26-1.61,2.34-2.71,3.23-.47.38-.96.72-1.49,1.01-.43.25-.88.47-1.35.66-.18.07-.34.18-.47.31-.28.26-.44.64-.44,1.05v6.53c0,.24.02.46.07.68.83,3.58,2.47,7,4.73,9.89,2.3,2.94,5.29,5.39,8.65,7.06.25.13.53.19.81.19.24,0,.48-.04.7-.14,2.36-.98,5.78-2.9,8.66-6.5,2.99-3.73,4.09-7.63,4.5-10.24.02-.12.02-.24.02-.37v-6.73c0-.71-.4-1.34-1.04-1.67ZM73.73,59.11c0,.08,0,.14-.02.22-.38,2.49-1.44,6.21-4.29,9.77-2.74,3.43-6,5.26-8.25,6.19-.23.1-.47.09-.68-.02-2.25-1.12-5.52-3.21-8.31-6.78-2.17-2.78-3.74-6.06-4.54-9.5-.04-.14-.05-.28-.05-.45v-6.53c0-.2.11-.36.29-.43.17-.07.34-.14.51-.23.63-.28,1.23-.61,1.79-.99.27-.19.54-.39.79-.59,1.2-.98,2.2-2.16,2.96-3.53.06-.11.18-.18.32-.18h13.36c.26,0,.48.15.6.39.55,1.18,1.3,2.24,2.22,3.15.83.82,1.77,1.49,2.81,2.01.3.15.49.45.49.77v6.73Z"/><path class="cls-1" d="M70.2,54.12c-.69-.34-1.32-.79-1.87-1.33-.61-.61-1.11-1.32-1.48-2.1-.2-.44-.62-.71-1.1-.71h-9.78c-.37,0-.71.2-.88.51-.21.38-.45.74-.72,1.07-.31.4-.66.78-1.05,1.11-.07.07-.15.13-.22.19-.63.5-1.33.91-2.08,1.22-.41.16-.67.55-.67.99v4.79c0,.17.02.34.06.49.61,2.63,1.8,5.13,3.46,7.25,1.69,2.15,3.88,3.94,6.34,5.17.18.09.38.14.59.14.17,0,.35-.03.51-.1,1.73-.72,4.23-2.13,6.34-4.76,2.19-2.74,3-5.59,3.3-7.5.01-.1.02-.18.02-.28v-4.93c0-.51-.29-.98-.77-1.22ZM70.23,60.27c0,.06,0,.11-.01.16-.28,1.83-1.05,4.55-3.14,7.16-2.01,2.51-4.4,3.85-6.05,4.54-.16.07-.34.06-.49-.02-1.65-.82-4.04-2.35-6.09-4.97-1.59-2.03-2.74-4.43-3.33-6.95-.02-.11-.03-.21-.03-.33v-4.79c0-.14.08-.26.21-.31.82-.33,1.58-.78,2.26-1.33.17-.13.33-.27.48-.43.36-.32.69-.69.99-1.09.26-.33.49-.69.7-1.06.05-.08.13-.13.24-.13h9.78c.19,0,.36.11.44.28.4.87.95,1.64,1.63,2.31.6.6,1.29,1.09,2.06,1.47.22.11.35.33.35.56v4.93Z"/><polyline class="cls-2" points="57.98 60.76 59.95 62.69 64.74 57.98"/></svg>