<?xml version="1.0" encoding="UTF-8"?><svg id="Layer_1" xmlns="http://www.w3.org/2000/svg" viewBox="0 0 80 80"><defs><style>.cls-1{fill:#f36f3e;}</style></defs><path class="cls-1" d="M13.39,24.72c-2.84,0-5.14-2.31-5.14-5.14s2.31-5.14,5.14-5.14,5.14,2.31,5.14,5.14-2.31,5.14-5.14,5.14ZM13.39,15.43c-2.29,0-4.14,1.86-4.14,4.14s1.86,4.14,4.14,4.14,4.14-1.86,4.14-4.14-1.86-4.14-4.14-4.14Z"/><path class="cls-1" d="M38.38,15.43c-2.84,0-5.14-2.31-5.14-5.14s2.31-5.14,5.14-5.14,5.14,2.31,5.14,5.14-2.31,5.14-5.14,5.14ZM38.38,6.15c-2.28,0-4.14,1.86-4.14,4.14s1.86,4.14,4.14,4.14,4.14-1.86,4.14-4.14-1.86-4.14-4.14-4.14Z"/><path class="cls-1" d="M63.67,24.72c-2.84,0-5.14-2.31-5.14-5.14s2.31-5.14,5.14-5.14,5.14,2.31,5.14,5.14-2.31,5.14-5.14,5.14ZM63.67,15.43c-2.28,0-4.14,1.86-4.14,4.14s1.86,4.14,4.14,4.14,4.14-1.86,4.14-4.14-1.86-4.14-4.14-4.14Z"/><path class="cls-1" d="M21.11,55.91h-6.68c-.85,0-1.54-.69-1.54-1.54v-14.76h1v14.76c0,.3.24.54.54.54h6.68v1Z"/><polygon class="cls-1" points="64.17 55.91 56.52 55.91 56.52 54.91 63.17 54.91 63.17 39.61 64.17 39.61 64.17 55.91"/><path class="cls-1" d="M24.13,39.76H2.56l.02-7.14c1.51-5.48,6.71-9.14,12.08-8.52,4.46.52,8.26,3.95,9.45,8.53l.02.13v7.01ZM3.56,38.76h19.57v-5.95c-1.11-4.16-4.55-7.26-8.58-7.73-4.88-.56-9.58,2.75-10.99,7.73v5.94Z"/><path class="cls-1" d="M49.16,30.74h-21.57l.02-7.14c1.51-5.48,6.71-9.13,12.08-8.52,4.46.52,8.26,3.95,9.45,8.53l.02.13v7.01ZM28.59,29.74h19.57v-5.95c-1.11-4.16-4.55-7.26-8.58-7.73-4.89-.57-9.58,2.75-10.99,7.73v5.94Z"/><path class="cls-1" d="M74.46,39.78h-21.57l.02-7.14c1.51-5.48,6.72-9.14,12.08-8.52,4.46.52,8.26,3.95,9.45,8.53l.02.13v7.01ZM53.89,38.78h19.57v-5.95c-1.11-4.16-4.55-7.26-8.58-7.73-4.88-.56-9.58,2.75-10.99,7.73v5.94Z"/><rect class="cls-1" x="37.88" y="30.24" width="1" height="7.66"/><path class="cls-1" d="M41.02,72.83h-4.88c-.74,0-1.34-.58-1.38-1.31l-.07-1.35-3.61-1.71-1.37,1.18c-.56.51-1.43.47-1.94-.08l-3.52-3.81c-.5-.55-.49-1.39.04-1.91l1.02-1.01-1.44-3.59-1.81.02c-.38,0-.74-.12-1.01-.38-.27-.26-.42-.62-.42-1v-5.42c0-.38.16-.76.45-1.02.28-.26.67-.38,1.05-.36l1.75.15,1.55-3.59-.96-1.26c-.54-.66-.49-1.62.12-2.22l3.06-3.06c.65-.65,1.7-.65,2.35,0l.97.97,3.75-1.73.05-1.33c0-.89.72-1.61,1.61-1.61h4.43c.89,0,1.61.72,1.61,1.61v.98l3.65,2.02,1.19-1.1c.54-.54,1.41-.54,1.95,0l3.61,3.61c.54.54.54,1.41,0,1.95l-1.1,1.1,1.66,3.65h1.56c.37,0,.73.14,1,.41.27.26.42.61.42.99v5.18c0,.72-.56,1.32-1.28,1.38l-1.53.11-1.81,3.43,1.09,1.28c.48.53.48,1.33,0,1.86l-3.38,3.72c-.26.29-.63.45-1.01.45h0c-.38,0-.75-.16-1.01-.44l-1.1-1.18-3.88,1.33.02,1.66c.02.38-.12.74-.38,1.01-.26.27-.62.43-1,.43ZM31.05,67.45c.15,0,.31.03.46.1l3.56,1.64c.37.17.61.52.63.92l.07,1.36c.01.2.18.36.38.36h4.88c.1,0,.2-.04.27-.12.07-.08.11-.17.11-.28l-.07-1.58c-.02-.48.27-.91.72-1.07l3.79-1.35c.4-.15.86-.04,1.15.28l1.1,1.18c.07.08.18.12.28.12.11,0,.21-.04.28-.12l3.38-3.72c.13-.15.13-.37,0-.51l-1.08-1.19c-.3-.33-.37-.82-.16-1.22l1.75-3.39c.17-.33.51-.55.88-.58l1.53-.11c.2-.01.35-.18.35-.38v-5.18c0-.1-.04-.2-.11-.27-.07-.07-.15-.11-.28-.11l-1.49.04c-.42-.01-.82-.23-1-.62l-1.67-3.56c-.19-.41-.11-.9.21-1.22l1.1-1.1c.15-.15.15-.39,0-.54l-3.61-3.61c-.15-.15-.39-.15-.54,0l-1.09,1.09c-.34.34-.85.42-1.28.19l-3.61-1.95c-.35-.19-.57-.55-.57-.95v-.98c0-.33-.27-.61-.61-.61h-4.43c-.33,0-.61.27-.61.61v1.26c0,.41-.24.8-.62.98l-3.66,1.75c-.41.2-.91.11-1.23-.21l-.97-.97c-.25-.25-.68-.25-.93,0l-3.06,3.06c-.24.24-.26.62-.05.88l.95,1.18c.25.31.31.73.16,1.09l-1.46,3.54c-.18.44-.6.71-1.09.66l-1.75-.15c-.11,0-.21.03-.29.1-.08.07-.12.17-.12.28v5.42c0,.1.04.2.12.27s.17.12.28.1l1.74-.07c.45,0,.87.25,1.04.67l1.45,3.5c.17.4.08.87-.23,1.18l-1.02,1.01c-.14.14-.15.38-.01.53l3.52,3.81c.14.15.38.17.54.02l1.28-1.17c.2-.19.46-.28.73-.28Z"/><path class="cls-1" d="M38.46,65.8c-5.89,0-10.69-4.79-10.69-10.69s4.79-10.69,10.69-10.69,10.69,4.79,10.69,10.69-4.79,10.69-10.69,10.69ZM38.46,45.43c-5.34,0-9.69,4.35-9.69,9.69s4.35,9.69,9.69,9.69,9.69-4.35,9.69-9.69-4.35-9.69-9.69-9.69Z"/></svg>