<?xml version="1.0" encoding="UTF-8"?><svg id="Layer_1" xmlns="http://www.w3.org/2000/svg" viewBox="0 0 80 80"><defs><style>.cls-1{fill:#fd6f39;}</style></defs><path class="cls-1" d="M40,77.65c-20.76,0-37.65-16.89-37.65-37.65S19.24,2.35,40,2.35s37.65,16.89,37.65,37.65-16.89,37.65-37.65,37.65ZM40,3.15C19.68,3.15,3.15,19.68,3.15,40s16.53,36.85,36.85,36.85,36.85-16.53,36.85-36.85S60.32,3.15,40,3.15Z"/><path class="cls-1" d="M18.93,51.52c-.42-.05-1.12-.22-1.7-.83-.5-.51-.68-1.09-.75-1.48v-29.23c-.01-.27.03-.94.55-1.53.48-.54,1.07-.69,1.37-.74h42.66c.3-.02.98.04,1.58.62.65.62.69,1.42.68,1.65l.21,28.49c0,.35-.09,1.54-1.09,2.37-.65.54-1.38.65-1.75.67H18.93ZM61.08,18.72H18.47c-.07.01-.42.09-.69.4-.29.33-.31.7-.31.85v29.16c.03.12.14.52.47.87.38.39.82.5,1.05.53h41.67c.22-.03.71-.1,1.14-.46.69-.57.73-1.43.73-1.6l-.21-28.49c0-.1,0-.57-.38-.92-.33-.31-.72-.34-.86-.34Z"/><path class="cls-1" d="M59.34,45.82h0l-38.32-.06c-.92,0-1.67-.75-1.67-1.67l-.03-21.92c0-.92.74-1.67,1.66-1.67l38.23-.2h.01c.44,0,.86.17,1.17.48.32.31.49.73.5,1.18l.12,22.18c0,.45-.17.87-.49,1.19-.32.32-.74.49-1.18.49ZM59.23,21.3h0l-38.23.2c-.37,0-.67.3-.67.67l.03,21.92c0,.37.3.67.67.67l38.32.06h0c.18,0,.35-.07.47-.2.13-.13.2-.29.19-.47l-.12-22.18c0-.18-.07-.35-.2-.47-.13-.12-.29-.19-.47-.19Z"/><path class="cls-1" d="M48.4,58.12l-16.74-.03,2.17-7.58h12.37s2.2,7.6,2.2,7.6ZM32.99,57.1l14.08.02-1.62-5.6h-10.86s-1.6,5.58-1.6,5.58Z"/><path class="cls-1" d="M49.72,62.28h-19.61c-.97,0-1.76-.79-1.76-1.76v-1.64c0-.97.79-1.76,1.76-1.76h19.61c.97,0,1.76.79,1.76,1.76v1.64c0,.97-.79,1.76-1.76,1.76ZM30.11,58.12c-.42,0-.76.34-.76.76v1.64c0,.42.34.76.76.76h19.61c.42,0,.76-.34.76-.76v-1.64c0-.42-.34-.76-.76-.76h-19.61Z"/><path class="cls-1" d="M24.77,35.6c-1.14,0-2.06-.92-2.06-2.06s.92-2.06,2.06-2.06,2.06.92,2.06,2.06-.92,2.06-2.06,2.06ZM24.77,32.48c-.58,0-1.06.48-1.06,1.06s.48,1.06,1.06,1.06,1.06-.48,1.06-1.06-.48-1.06-1.06-1.06Z"/><path class="cls-1" d="M29.72,30.47c-1.14,0-2.06-.92-2.06-2.06s.92-2.06,2.06-2.06,2.06.92,2.06,2.06-.92,2.06-2.06,2.06ZM29.72,27.35c-.58,0-1.06.48-1.06,1.06s.48,1.06,1.06,1.06,1.06-.48,1.06-1.06-.48-1.06-1.06-1.06Z"/><path class="cls-1" d="M33.9,34.72c-1.14,0-2.06-.92-2.06-2.06s.92-2.06,2.06-2.06,2.06.92,2.06,2.06-.92,2.06-2.06,2.06ZM33.9,31.6c-.58,0-1.06.48-1.06,1.06s.48,1.06,1.06,1.06,1.06-.48,1.06-1.06-.48-1.06-1.06-1.06Z"/><path class="cls-1" d="M40.56,28.14c-1.14,0-2.06-.92-2.06-2.06s.92-2.06,2.06-2.06,2.06.92,2.06,2.06-.92,2.06-2.06,2.06ZM40.56,25.02c-.58,0-1.06.48-1.06,1.06s.48,1.06,1.06,1.06,1.06-.48,1.06-1.06-.48-1.06-1.06-1.06Z"/><polygon class="cls-1" points="26.08 32.69 25.38 31.97 28.28 29.16 28.97 29.88 26.08 32.69"/><rect class="cls-1" x="31.34" y="29.08" width="1" height="2.86" transform="translate(-12.22 32.39) rotate(-46.22)"/><polygon class="cls-1" points="35.5 32.08 34.79 31.38 39.56 26.5 40.27 27.2 35.5 32.08"/><path class="cls-1" d="M28.16,39.62h-5.81c-.28,0-.5-.22-.5-.5s.22-.5.5-.5h5.81c.28,0,.5.22.5.5s-.22.5-.5.5Z"/><path class="cls-1" d="M32.55,42.62h-9.72c-.28,0-.5-.22-.5-.5s.22-.5.5-.5h9.72c.28,0,.5.22.5.5s-.22.5-.5.5Z"/><rect class="cls-1" x="45.48" y="24.04" width="11.62" height="3.11" rx="1.08" ry="1.08"/><rect class="cls-1" x="41.29" y="38.39" width="4.57" height="3.03" rx=".84" ry=".84" transform="translate(83.49 -3.67) rotate(90)"/><rect class="cls-1" x="45.42" y="36.43" width="8.35" height="3.03" rx=".52" ry=".52" transform="translate(87.54 -11.65) rotate(90)"/><rect class="cls-1" x="49.59" y="34.62" width="11.97" height="3.03" rx=".52" ry=".52" transform="translate(91.71 -19.44) rotate(90)"/></svg>