<?xml version="1.0" encoding="UTF-8"?><svg id="Layer_1" xmlns="http://www.w3.org/2000/svg" viewBox="0 0 80 80"><defs><style>.cls-1{fill:#fd6f39;}</style></defs><path class="cls-1" d="M40,77.65c-20.76,0-37.65-16.89-37.65-37.65S19.24,2.35,40,2.35s37.65,16.89,37.65,37.65-16.89,37.65-37.65,37.65ZM40,3.15C19.68,3.15,3.15,19.68,3.15,40s16.53,36.85,36.85,36.85,36.85-16.53,36.85-36.85S60.32,3.15,40,3.15Z"/><path class="cls-1" d="M40,63.11h-.07c-9.53,0-18.86-1.78-27.72-5.27l-.33-.13V21.76l.33-.13c3.1-1.22,6.32-2.22,9.57-2.98,4.08-.95,8.28-1.54,12.48-1.73l.05,1.05c-4.14.19-8.27.77-12.29,1.71-3.08.72-6.14,1.66-9.09,2.81v34.52c8.64,3.35,17.73,5.06,27,5.06h.07c9.3,0,18.4-1.7,27.07-5.06V22.45c-3.01-1.37-6.16-2.45-9.37-3.2-4.18-.98-8.5-1.42-12.8-1.29l-.03-1.06c4.4-.13,8.8.32,13.07,1.32,3.39.79,6.71,1.94,9.88,3.41l.31.14v35.94l-.33.13c-8.89,3.5-18.24,5.27-27.79,5.27Z"/><rect class="cls-1" x="36.97" y="16.89" width="6.4" height="1.06"/><polygon class="cls-1" points="13.84 23.75 12.1 22.55 12.7 21.68 14.44 22.88 13.84 23.75"/><polygon class="cls-1" points="21.05 29.8 19.99 29.8 19.99 27.97 18.48 26.93 19.08 26.06 21.05 27.41 21.05 29.8"/><path class="cls-1" d="M21.05,45.36h-1.06v-3.89h1.06v3.89ZM21.05,37.58h-1.06v-3.89h1.06v3.89Z"/><polygon class="cls-1" points="19.14 53.04 18.51 52.19 19.99 51.1 19.99 49.26 21.05 49.26 21.05 51.63 19.14 53.04"/><rect class="cls-1" x="12.19" y="56.2" width="2.11" height="1.06" transform="translate(-31.09 18.95) rotate(-36.42)"/><path class="cls-1" d="M67.28,57.78l-1.07-.81.64-.84,1.07.81-.64.84ZM62.85,54.41l-3.36-2.55.64-.84,3.36,2.55-.64.84ZM59.87,47.45h-1.06v-4.22h1.06v4.22ZM59.87,39.01h-1.06v-4.22h1.06v4.22ZM59.87,30.57h-1.06v-2.73l1.64-1.19.62.86-1.21.87v2.19ZM64.49,25.02l-.62-.86,3.42-2.48.62.86-3.42,2.48Z"/><path class="cls-1" d="M30.5,29.15l-.96-.44c1.94-4.24,6.16-6.84,10.75-6.71,4.26.15,8.17,2.78,9.96,6.71l-.96.44c-1.63-3.57-5.17-5.96-9.04-6.09-4.14-.15-8,2.25-9.76,6.09Z"/><path class="cls-1" d="M39.85,52.8c-.14,0-.29,0-.43-.01-2.03-.13-4.16-1.22-6.31-3.24-1.52-1.42-2.71-3.23-3.44-5.23l.99-.36c.68,1.85,1.77,3.51,3.17,4.82,1.97,1.85,3.88,2.84,5.66,2.96,3.63.24,7.42-3.02,9.24-7.92l.99.37c-1.92,5.14-5.93,8.61-9.87,8.61Z"/><path class="cls-1" d="M48.89,57.77c-1.16-.92-2.07-2.11-2.64-3.44-.99-2.34-.68-4.51-.41-5.59l1.02.26c-.24.95-.51,2.86.36,4.92.5,1.17,1.3,2.22,2.32,3.03l-.66.83Z"/><path class="cls-1" d="M31.39,58.04l-.81-.68c.56-.67,1.02-1.4,1.38-2.18,1.09-2.37.97-4.69.68-6.22l1.04-.2c.32,1.68.45,4.23-.75,6.86-.4.86-.91,1.68-1.53,2.42Z"/><path class="cls-1" d="M51.84,42.33h-10.53l-.07-.44c-.11-.68-.56-1.23-1.12-1.36-.34-.08-.73,0-1.07.21-.42.26-.72.68-.83,1.19l-.09.41h-9.75c-1.18,0-2.14-.96-2.14-2.14v-7.09c0-1.18.96-2.14,2.14-2.14h23.47c1.18,0,2.14.96,2.14,2.14v7.09c0,1.18-.96,2.14-2.14,2.14ZM42.17,41.27h9.67c.6,0,1.09-.49,1.09-1.09v-7.09c0-.6-.49-1.09-1.09-1.09h-23.47c-.6,0-1.09.49-1.09,1.09v7.09c0,.6.49,1.09,1.09,1.09h8.94c.23-.6.64-1.1,1.18-1.44.58-.36,1.26-.48,1.88-.33.83.2,1.52.89,1.8,1.77Z"/></svg>