<?xml version="1.0" encoding="UTF-8"?>
<svg id="Layer_1" xmlns="http://www.w3.org/2000/svg" version="1.1" viewBox="0 0 80 80">
  <!-- Generator: Adobe Illustrator 29.2.1, SVG Export Plug-In . SVG Version: 2.1.0 Build 116)  -->
  <defs>
    <style>
      .st0 {
        fill: #fd6f39;
      }

      .st1 {
        stroke-linecap: round;
      }

      .st1, .st2 {
        fill: none;
        stroke: #fd6f39;
        stroke-miterlimit: 10;
      }
    </style>
  </defs>
  <path class="st2" d="M40.3,70.5c-.2,0-.4,0-.5-.1-.5-.2-.9-.7-.9-1.3l-.6-12c0-.4.1-.8.4-1.1l12.3-12.2c.4-.4,1.1-.5,1.6-.3.6.2.9.8.9,1.3l.2,7.7c.1,3.2-1.1,6.3-3.3,8.6l-9,9c-.3.3-.7.4-1.1.4Z"/>
  <path class="st0" d="M39.7,59c-.5,0-1-.2-1.4-.6l-16.7-16.7c-.8-.8-.8-2,0-2.8,1.7-1.7,16.5-16.7,23.6-23.6,2-1.9,4.5-3.5,7.5-4.5,2.3-.8,4.9-1.4,7.7-1.6,4.7-.4,8.4.2,8.5.2.8.1,1.5.8,1.6,1.6,0,.4.6,3.9.2,8.5-.2,2.8-.8,5.4-1.6,7.7-1,3-2.6,5.5-4.5,7.5-6.6,6.8-20.7,20.8-23.5,23.5h0c-.4.4-.9.6-1.4.6ZM63.8,10c-1,0-2.1,0-3.2.1-2.7.2-5.2.7-7.5,1.5-2.8,1-5.2,2.4-7.2,4.3-7.1,6.9-21.9,21.9-23.6,23.6-.4.4-.4,1,0,1.4l16.7,16.7c.4.4,1,.4,1.4,0h0c2.8-2.8,16.9-16.7,23.5-23.6,1.8-1.9,3.3-4.3,4.3-7.2.8-2.2,1.3-4.8,1.5-7.5.4-4.6-.2-8.1-.2-8.3,0-.4-.4-.7-.8-.8-.1,0-2.1-.3-5-.3Z"/>
  <path class="st2" d="M23,41.7s0,0,0,0l-12-.6c-.6,0-1.1-.4-1.3-.9-.2-.5,0-1.2.3-1.6l9-9c2.3-2.3,5.4-3.5,8.6-3.3l7.7.2c.6,0,1.1.4,1.3.9.2.6,0,1.2-.3,1.6l-12.2,12.3c-.3.3-.7.4-1.1.4Z"/>
  <path class="st2" d="M56.5,29.4c-1.6,0-3.1-.6-4.2-1.7-1.1-1.1-1.7-2.6-1.7-4.2s.6-3.1,1.7-4.2c2.3-2.3,6.1-2.3,8.4,0,1.1,1.1,1.7,2.6,1.7,4.2s-.6,3.1-1.7,4.2h0,0c-1.1,1.1-2.6,1.7-4.2,1.7ZM56.5,20.5c-.8,0-1.5.3-2.1.9-.6.6-.9,1.3-.9,2.1s.3,1.5.9,2.1c.6.6,1.3.9,2.1.9s1.5-.3,2.1-.9c0,0,0,0,0,0,.6-.6.9-1.3.9-2.1s-.3-1.5-.9-2.1c-.6-.6-1.3-.9-2.1-.9Z"/>
  <line class="st1" x1="22.9" y1="46.6" x2="15.2" y2="54.3"/>
  <line class="st1" x1="33.4" y1="57.1" x2="25.7" y2="64.8"/>
  <line class="st1" x1="28.6" y1="51.4" x2="16.2" y2="63.8"/>
</svg>