<?xml version="1.0" encoding="UTF-8"?><svg id="Layer_1" xmlns="http://www.w3.org/2000/svg" viewBox="0 0 80 80"><defs><style>.cls-1{fill:#fd6f39;}</style></defs><path class="cls-1" d="M41.96,33.36c-.65-.19-1.16-.41-1.54-.68s-.57-.5-.57-.72c0-.18.11-.44.33-.8.22-.35.42-.53.6-.53.04,0,.2.1.5.29.3.2.68.37,1.13.53.45.16.95.24,1.5.24,1.74,0,2.6-.72,2.6-2.15,0-.6-.2-1.08-.58-1.43-.39-.35-1.08-.67-2.07-.96-1.4-.41-2.37-.92-2.9-1.53-.53-.61-.8-1.43-.8-2.46,0-.74.19-1.41.57-1.99.38-.58.9-1.04,1.57-1.37.66-.33,1.42-.49,2.27-.49.9,0,1.71.12,2.43.35.72.23,1.08.5,1.08.8,0,.23-.1.53-.3.89-.2.36-.39.54-.54.54-.05-.02-.29-.14-.7-.36-.42-.22-.99-.33-1.71-.33-.67,0-1.24.15-1.69.45-.45.3-.68.71-.68,1.22,0,.6.16,1.08.48,1.43.32.35.85.65,1.59.88,1.13.35,2,.7,2.59,1.05.59.35,1.02.77,1.28,1.28s.39,1.17.39,1.98-.21,1.48-.62,2.11c-.42.63-.98,1.12-1.7,1.49-.72.36-1.51.54-2.38.54-.76,0-1.47-.09-2.11-.28Z"/><path class="cls-1" d="M39.08,71.83h-17.49c-1.02,0-1.84-.83-1.84-1.84v-2.3c0-1.02.83-1.84,1.84-1.84h17.49c1.02,0,1.84.83,1.84,1.84v2.3c0,1.02-.83,1.84-1.84,1.84ZM21.59,66.85c-.46,0-.84.38-.84.84v2.3c0,.46.38.84.84.84h17.49c.46,0,.84-.38.84-.84v-2.3c0-.46-.38-.84-.84-.84h-17.49Z"/><path class="cls-1" d="M21.93,66.85c-.19,0-.38-.11-.46-.3l-2.83-6.61c-.27-.63-.44-1.31-.49-2l-.21-2.65c-.02-.28.18-.52.46-.54.27-.02.52.18.54.46l.21,2.65c.05.58.19,1.15.42,1.69l2.83,6.61c.11.25,0,.55-.26.66-.06.03-.13.04-.2.04Z"/><path class="cls-1" d="M38.65,66.85c-.14,0-.28-.06-.38-.17-.18-.21-.16-.53.05-.71,1.09-.94,2.02-2.03,2.75-3.26.95-1.58,1.56-3.33,1.8-5.18v-8.25c-.02-.15-.15-1.17-1.05-1.8-1.14-.8-2.48-.22-2.5-.21l-.7.31v-16.19c-.18-.86-.87-1.6-1.72-1.76-1.11-.21-2.26.6-2.57,1.82v12.99l-.9-1.23c-.76-1.03-2.08-1.46-3.13-1.01-.59.25-1.06.78-1.3,1.45-.22.62-.22,1.31,0,1.94.07.14.14.29.19.45l-.92.39c-.07-.14-.14-.29-.19-.43-.45-.81-1.35-1.3-2.23-1.17-.54.08-1.04.4-1.38.87-.37.51-.52,1.14-.41,1.76l-.97.24c-.32-.93-1.21-1.53-2.19-1.48-.93.05-1.73.71-1.98,1.6v4.66c0,.28-.22.5-.5.5s-.5-.22-.5-.5v-4.84c.35-1.35,1.55-2.34,2.93-2.41.89-.04,1.71.27,2.33.84.11-.34.27-.66.48-.95.5-.68,1.24-1.15,2.04-1.27.76-.11,1.52.07,2.15.48.03-.34.1-.69.21-1.01.33-.93,1.01-1.67,1.85-2.03,1.11-.47,2.41-.27,3.42.45v-10.45c.43-1.76,2.1-2.94,3.75-2.63,1.25.23,2.26,1.3,2.52,2.65v14.85c.69-.14,1.78-.19,2.78.52,1.22.86,1.43,2.19,1.47,2.57v8.36c-.26,2.05-.91,3.93-1.93,5.63-.79,1.32-1.79,2.49-2.96,3.5-.09.08-.21.12-.33.12Z"/><path class="cls-1" d="M44.18,42.93c-.4,0-.8-.01-1.2-.04-.28-.02-.48-.26-.46-.53.02-.28.25-.48.53-.46,7.2.5,13.98-4.07,16.12-10.86,2.24-7.08-1.09-15.04-7.73-18.52-6.12-3.21-13.69-2.04-18.41,2.85-4.99,5.16-5.71,13.35-1.71,19.48.15.23.09.54-.15.69-.23.15-.54.09-.69-.15-4.25-6.52-3.48-15.23,1.83-20.72,5.03-5.2,13.09-6.45,19.59-3.04,7.06,3.7,10.59,12.18,8.21,19.71-2.2,6.96-8.65,11.6-15.94,11.6Z"/><path class="cls-1" d="M44.58,39.11c-1.7,0-3.41-.32-5.05-.99-.26-.1-.38-.4-.27-.65.1-.26.39-.38.65-.27,5.47,2.24,11.86.26,14.87-4.59,3.23-5.22,1.61-12.43-3.62-16.08-4.37-3.05-10.27-2.89-14.36.38-4.56,3.65-5.76,10.39-2.79,15.68.14.24.05.55-.19.68-.24.13-.55.05-.68-.19-3.21-5.71-1.9-13,3.04-16.95,4.43-3.55,10.83-3.72,15.56-.42,5.65,3.94,7.4,11.76,3.89,17.42-2.36,3.81-6.62,5.98-11.04,5.98Z"/><path class="cls-1" d="M22.88,22.56h-5.43c-.28,0-.5-.22-.5-.5s.22-.5.5-.5h5.43c.28,0,.5.22.5.5s-.22.5-.5.5Z"/><path class="cls-1" d="M20.16,25.19c-.28,0-.5-.22-.5-.5v-5.29c0-.28.22-.5.5-.5s.5.22.5.5v5.29c0,.28-.22.5-.5.5Z"/><path class="cls-1" d="M64.93,12.51h-5.43c-.28,0-.5-.22-.5-.5s.22-.5.5-.5h5.43c.28,0,.5.22.5.5s-.22.5-.5.5Z"/><path class="cls-1" d="M62.21,15.14c-.28,0-.5-.22-.5-.5v-5.29c0-.28.22-.5.5-.5s.5.22.5.5v5.29c0,.28-.22.5-.5.5Z"/><path class="cls-1" d="M55.8,48.55h-5.43c-.28,0-.5-.22-.5-.5s.22-.5.5-.5h5.43c.28,0,.5.22.5.5s-.22.5-.5.5Z"/><path class="cls-1" d="M53.09,51.18c-.28,0-.5-.22-.5-.5v-5.29c0-.28.22-.5.5-.5s.5.22.5.5v5.29c0,.28-.22.5-.5.5Z"/><path class="cls-1" d="M44.3,36.98c-.57,0-1.03-.46-1.03-1.03v-18.56c0-.57.46-1.03,1.03-1.03s1.03.46,1.03,1.03v18.56c0,.57-.46,1.03-1.03,1.03Z"/></svg>