<?xml version="1.0" encoding="UTF-8"?><svg id="Layer_1" xmlns="http://www.w3.org/2000/svg" viewBox="0 0 80 80"><defs><style>.cls-1{fill:#fd6f39;}</style></defs><path class="cls-1" d="M40,77.65c-20.76,0-37.65-16.89-37.65-37.65S19.24,2.35,40,2.35s37.65,16.89,37.65,37.65-16.89,37.65-37.65,37.65ZM40,3.15C19.68,3.15,3.15,19.68,3.15,40s16.53,36.85,36.85,36.85,36.85-16.53,36.85-36.85S60.32,3.15,40,3.15Z"/><path class="cls-1" d="M21.44,34.72c-3.97,0-7.19-3.23-7.19-7.19s3.23-7.19,7.19-7.19,7.19,3.23,7.19,7.19-3.23,7.19-7.19,7.19ZM21.44,21.33c-3.41,0-6.19,2.78-6.19,6.19s2.78,6.19,6.19,6.19,6.19-2.78,6.19-6.19-2.78-6.19-6.19-6.19Z"/><path class="cls-1" d="M58.1,34.72c-3.97,0-7.19-3.23-7.19-7.19s3.23-7.19,7.19-7.19,7.19,3.23,7.19,7.19-3.23,7.19-7.19,7.19ZM58.1,21.33c-3.41,0-6.19,2.78-6.19,6.19s2.78,6.19,6.19,6.19,6.19-2.78,6.19-6.19-2.78-6.19-6.19-6.19Z"/><path class="cls-1" d="M39.92,38.05c-4.48,0-8.13-3.65-8.13-8.13s3.65-8.13,8.13-8.13,8.13,3.65,8.13,8.13-3.65,8.13-8.13,8.13ZM39.92,22.79c-3.93,0-7.13,3.2-7.13,7.13s3.2,7.13,7.13,7.13,7.13-3.2,7.13-7.13-3.2-7.13-7.13-7.13Z"/><path class="cls-1" d="M39.92,38.05c-4.48,0-8.13-3.65-8.13-8.13s3.65-8.13,8.13-8.13,8.13,3.65,8.13,8.13-3.65,8.13-8.13,8.13ZM39.92,22.79c-3.93,0-7.13,3.2-7.13,7.13s3.2,7.13,7.13,7.13,7.13-3.2,7.13-7.13-3.2-7.13-7.13-7.13Z"/><path class="cls-1" d="M10.5,51.11c-.28,0-.5-.22-.5-.5v-8.21c0-.13.03-.26.09-.37.79-1.57,1.93-2.96,3.3-4.05,1.27-1,2.76-1.75,4.31-2.18.32-.09.67.03.88.32.91,1.25,2.39,1.92,3.85,1.76,1.61-.18,2.59-1.3,2.93-1.78.19-.26.5-.39.82-.33.93.18,1.83.48,2.67.91,1.11.56,2.1,1.33,2.94,2.26.18.21.17.52-.04.71-.21.18-.52.17-.71-.04-.76-.84-1.65-1.53-2.65-2.04-.72-.37-1.5-.63-2.3-.8-.47.62-1.65,1.88-3.56,2.09-1.79.21-3.57-.59-4.71-2.07-1.38.4-2.7,1.07-3.83,1.97-1.25.99-2.3,2.28-3.03,3.71l.02,8.13c0,.28-.22.5-.5.5ZM25.99,36.75h0,0Z"/><path class="cls-1" d="M14.54,51.41c-.28,0-.5-.22-.5-.5v-6.29c0-.28.22-.5.5-.5s.5.22.5.5v6.29c0,.28-.22.5-.5.5Z"/><path class="cls-1" d="M31.15,57.15c-.28,0-.5-.22-.5-.5v-6.29c0-.28.22-.5.5-.5s.5.22.5.5v6.29c0,.28-.22.5-.5.5Z"/><path class="cls-1" d="M48.58,56.85c-.28,0-.5-.22-.5-.5v-6.29c0-.28.22-.5.5-.5s.5.22.5.5v6.29c0,.28-.22.5-.5.5Z"/><path class="cls-1" d="M26.7,57.4c-.28,0-.5-.22-.5-.5l.03-8.92c.45-1.48,1.63-4.21,4.55-6.04,1.85-1.16,3.7-1.49,4.92-1.56.24-.01.48.07.65.26.43.46,1.99,1.96,4.29,1.73,1.76-.17,2.9-1.25,3.31-1.71.18-.2.44-.3.69-.27,1.69.17,3.32.75,4.71,1.66,2.84,1.88,3.94,4.62,4.34,6.09l.03.22v8.19c0,.28-.22.5-.5.5s-.5-.22-.5-.5v-8.19c-.29-1.02-1.26-3.71-3.92-5.47-1.54-1.02-3.09-1.37-4.16-1.49-.53.58-1.87,1.78-3.9,1.97-2.64.25-4.47-1.38-5.05-1.98-1.11.08-2.74.39-4.37,1.41-2.74,1.71-3.79,4.4-4.12,5.47v8.64c0,.28-.21.5-.49.5ZM35.77,41.38h0,0Z"/><path class="cls-1" d="M69.5,50.86c-.28,0-.5-.22-.5-.5v-8.03c-.41-.99-1.44-2.95-3.64-4.17-.93-.52-1.95-.84-3.03-.96-.51.61-2.09,2.21-4.54,2.07-2.39-.11-3.8-1.75-4.25-2.36-.64-.02-1.57.06-2.54.56-1.1.56-1.75,1.37-2.1,1.96-.14.24-.45.31-.69.17-.24-.14-.31-.45-.17-.69.42-.7,1.19-1.67,2.5-2.34,1.22-.62,2.38-.71,3.14-.66.25.01.48.14.62.35.31.45,1.49,1.92,3.53,2.01,2.07.08,3.42-1.33,3.78-1.78.18-.22.44-.33.72-.3,1.25.12,2.43.49,3.51,1.09,2.47,1.38,3.62,3.56,4.1,4.74.04.09.06.2.06.3v8.03c0,.28-.22.5-.5.5ZM62.24,37.19s0,0,0,0t0,0ZM62.4,37.13s0,0,0,0c0,0,0,0,0,0ZM53.64,36.91h0,0Z"/><path class="cls-1" d="M37.52,33.46c-.11,0-.22-.03-.31-.11-.22-.17-.26-.48-.09-.7l2.29-2.94v-5.55c0-.28.22-.5.5-.5s.5.22.5.5v5.89l-2.51,3.22c-.1.13-.25.19-.39.19Z"/></svg>