<?xml version="1.0" encoding="UTF-8"?><svg id="Layer_1" xmlns="http://www.w3.org/2000/svg" viewBox="0 0 80 80"><defs><style>.cls-1{fill:#fd6f39;}</style></defs><path class="cls-1" d="M56.43,72.72c-.48,0-.97-.09-1.43-.27-8.6-3.35-20.95-10.08-30.98-23.16-6.41-8.35-10.96-18.27-13.18-28.67-.18-.87-.08-1.75.31-2.55,1.25-2.59,2.96-4.88,5.07-6.82,1.55-1.42,3.31-2.62,5.21-3.56,1.66-.82,3.65-.39,4.83,1.04l7.36,8.93c1.06,1.28,1.2,3.1.37,4.54l-2.72,4.66c-.34.58-.47,1.26-.38,1.91.46,3.2,1.73,7.97,5.21,12.51,5,6.52,11.76,8.95,15.35,9.81.79.2,1.61.06,2.29-.38l1.03-.65c1.59-1.01,3.7-.75,5,.62l8.37,8.77c1.28,1.35,1.47,3.37.46,4.91-1.17,1.79-2.62,3.38-4.3,4.7-2.02,1.6-4.31,2.77-6.79,3.49-.36.1-.72.16-1.08.16ZM23.19,8.28c-.45,0-.9.1-1.32.31-1.81.9-3.49,2.04-4.97,3.4-2.02,1.85-3.65,4.04-4.85,6.51-.29.59-.37,1.25-.23,1.9,2.18,10.26,6.68,20.04,12.99,28.27,9.89,12.89,22.07,19.53,30.55,22.84.61.24,1.26.27,1.87.09,2.36-.68,4.53-1.8,6.45-3.32,1.59-1.26,2.96-2.76,4.08-4.47.76-1.16.61-2.67-.35-3.67l-8.37-8.77c-.98-1.02-2.55-1.22-3.75-.46l-1.03.65c-.92.58-2.01.76-3.06.5-3.72-.9-10.73-3.41-15.91-10.18-3.61-4.71-4.93-9.66-5.41-12.98-.13-.87.05-1.78.5-2.55l2.72-4.66c.63-1.07.52-2.44-.28-3.4l-7.36-8.93c-.58-.71-1.43-1.09-2.3-1.09Z"/></svg>