<?xml version="1.0" encoding="UTF-8"?>
<svg id="Layer_1" xmlns="http://www.w3.org/2000/svg" version="1.1" viewBox="0 0 80 80">
  <!-- Generator: Adobe Illustrator 29.2.1, SVG Export Plug-In . SVG Version: 2.1.0 Build 116)  -->
  <defs>
    <style>
      .st0 {
        fill: none;
        stroke: #fd6f39;
        stroke-miterlimit: 10;
      }
    </style>
  </defs>
  <g id="Layer_11" data-name="Layer_1">
    <g>
      <circle class="st0" cx="40" cy="40" r="39.4"/>
      <g>
        <g>
          <g>
            <path class="st0" d="M40.2,39.1c-7.2,0-13-5.8-13-13s5.8-13,13-13,13,5.8,13,13-5.8,13-13,13Z"/>
            <g>
              <path class="st0" d="M41.5,35.9h-2.6c-.3,0-.6-.2-.6-.5l-.2-1.6c-.6-.2-1.2-.4-1.7-.7l-1.3,1c-.2.2-.6.2-.8,0l-1.9-1.9c-.2-.2-.2-.6,0-.8l1-1.3c-.3-.5-.5-1.1-.7-1.7l-1.6-.2c-.3,0-.5-.3-.5-.6v-2.6c0-.3.2-.6.5-.6l1.6-.2c.2-.6.4-1.2.7-1.7l-1-1.3c-.2-.2-.2-.6,0-.8l1.9-1.9c.2-.2.6-.2.8,0l1.3,1c.5-.3,1.1-.5,1.7-.7l.2-1.6c0-.3.3-.5.6-.5h2.6c.3,0,.6.2.6.5l.2,1.6c.6.2,1.2.4,1.7.7l1.3-1c.2-.2.6-.2.8,0l1.9,1.9c.2.2.2.6,0,.8l-1,1.3c.3.5.5,1.1.7,1.7l1.6.2c.3,0,.5.3.5.6v2.6c0,.3-.2.6-.5.6l-1.6.2c-.2.6-.4,1.2-.7,1.7l1,1.3c.2.2.2.6,0,.8l-1.9,1.9c-.2.2-.6.2-.8,0l-1.3-1c-.5.3-1.1.5-1.7.7l-.2,1.6c0,.3-.3.5-.6.5Z"/>
              <path class="st0" d="M40.2,31.2c-2.8,0-5.1-2.3-5.1-5.1s2.3-5.1,5.1-5.1,5.1,2.3,5.1,5.1-2.3,5.1-5.1,5.1Z"/>
            </g>
          </g>
          <g>
            <path class="st0" d="M22.5,43.3c-.2,0-.3,0-.5-.2,0,0,0,0,0,0s0,0,0,0,0,0,0-.1c0,0,0,0,0-.1s0,0,0-.1c0,0,0,0,0-.1s0,0,0,0c0,0,0,0,0,0,.1-.1.3-.2.5-.2s.3,0,.5.2c0,0,0,0,0,0s0,0,0,0,0,0,0,.1c0,0,0,0,0,.1,0,.2,0,.3-.2.5-.1,0-.3.2-.5.2h0Z"/>
            <path class="st0" d="M22.5,47.6s0,0-.1,0c0,0,0,0-.1,0s0,0-.1,0c0,0,0,0-.1,0s0,0,0,0,0,0,0,0,0,0,0-.1c0,0,0,0,0-.1s0,0,0-.1c0,0,0,0,0-.1s0,0,0,0c0,0,0,0,0,0,0,0,0,0,.1,0s0,0,.1,0,0,0,.1,0c0,0,.2,0,.2,0,0,0,0,0,.1,0s0,0,.1,0c0,0,0,0,.1,0s0,0,0,0,0,0,0,0,0,0,0,.1c0,0,0,0,0,.1s0,0,0,.1c0,0,0,0,0,.1s0,0,0,0c0,0,0,0,0,0-.1.1-.3.2-.5.2h0Z"/>
            <path class="st0" d="M22.5,51.8s0,0-.1,0c0,0,0,0-.1,0s0,0-.1,0c0,0,0,0-.1,0s0,0,0,0,0,0,0,0,0,0,0-.1c0,0,0,0,0-.1,0-.2,0-.3.2-.5s.3-.2.5-.2.3,0,.5.2.2.3.2.5,0,0,0,.1c0,0,0,0,0,.1s0,0,0,0c0,0,0,0,0,0,0,0,0,0-.1,0s0,0-.1,0,0,0-.1,0c0,0,0,0,0,0h0Z"/>
          </g>
          <line class="st0" x1="24.3" y1="42.7" x2="58.5" y2="42.7"/>
          <line class="st0" x1="24.1" y1="47" x2="58.3" y2="47"/>
          <line class="st0" x1="24.1" y1="51.2" x2="58.3" y2="51.2"/>
        </g>
        <path class="st0" d="M31.2,63.8h17.9c.9,0,1.5.7,1.5,1.6h0c0,.9-.7,1.5-1.5,1.5h-17.9c-.9,0-1.5-.7-1.5-1.6h0c0-.9.7-1.5,1.5-1.5Z"/>
        <line class="st0" x1="34.5" y1="63.8" x2="35.9" y2="59.4"/>
        <line class="st0" x1="45.8" y1="63.8" x2="44.4" y2="59.4"/>
        <polyline class="st0" points="53 23.6 63.3 23.6 63.3 55.4 17.2 55.4 17.2 23.6 27.4 23.6"/>
        <path class="st0" d="M28.8,19.8h-12.2c-1.8,0-3.2,1.4-3.2,3.2v33.2c0,1.8,1.4,3.2,3.2,3.2h46.9c1.8,0,3.2-1.4,3.2-3.2V23c0-1.8-1.4-3.2-3.2-3.2h-11.9"/>
      </g>
    </g>
  </g>
</svg>