<?xml version="1.0" encoding="UTF-8"?>
<svg xmlns="http://www.w3.org/2000/svg" version="1.1" viewBox="0 0 80 80">
  <defs>
    <style>
      .cls-1 {
        fill: none;
        stroke: #1292ee;
        stroke-miterlimit: 10;
      }
    </style>
  </defs>
  <!-- Generator: Adobe Illustrator 28.6.0, SVG Export Plug-In . SVG Version: 1.2.0 Build 709)  -->
  <g>
    <g id="Layer_1">
      <g>
        <g>
          <path class="cls-1" d="M54.8,45.9l-5.38-.81c-.62-.09-1.09-.63-1.08-1.26v-3.34c-1.2-.52-2.32-1.19-3.34-2.02l-2.95,1.59c-.55.3-1.25.15-1.64-.37l-3.24-4.38c-.39-.52-.32-1.23.12-1.67l2.38-2.35c-.45-1.21-.77-2.49-.96-3.78l-3.2-.99c-.61-.18-.98-.78-.89-1.4l.81-5.38c.09-.62.63-1.09,1.26-1.08h3.34c.52-1.2,1.19-2.32,2.02-3.34l-1.59-2.95c-.3-.55-.15-1.25.37-1.64l4.38-3.24c.52-.39,1.23-.32,1.67.12l2.35,2.38c1.21-.45,2.49-.77,3.78-.96l.99-3.2c.18-.61.78-.98,1.4-.89l5.38.81c.62.09,1.09.63,1.08,1.26v3.34c1.2.52,2.32,1.19,3.34,2.02l2.95-1.59c.55-.3,1.25-.15,1.64.37l3.24,4.38c.39.52.32,1.23-.12,1.67l-2.38,2.35c.45,1.21.77,2.49.96,3.78l3.2.99c.61.18.98.78.89,1.4l-.81,5.38c-.09.62-.63,1.09-1.26,1.08h-3.34c-.52,1.2-1.19,2.32-2.02,3.34l1.59,2.95c.3.55.15,1.25-.37,1.64l-4.38,3.24c-.52.39-1.23.32-1.67-.12l-2.35-2.38c-1.21.45-2.49.77-3.78.96l-.99,3.2c-.18.61-.78.98-1.4.89Z"/>
          <path class="cls-1" d="M53.57,35.77c-5.71-.86-9.65-6.19-8.8-11.9s6.19-9.65,11.9-8.8c5.71.86,9.65,6.19,8.8,11.9s-6.19,9.65-11.9,8.8Z"/>
        </g>
        <g>
          <path class="cls-1" d="M30.64,52.56h-1.16c-.37.84-.84,1.64-1.43,2.36l1.12,2.08c.21.39.11.88-.26,1.16l-3.09,2.28c-.37.27-.87.23-1.18-.09l-1.66-1.68c-.85.32-1.75.54-2.67.67l-.7,2.26c-.12.43-.55.69-.99.63l-3.8-.57c-.44-.07-.77-.44-.76-.89v-2.36c-.85-.37-1.64-.84-2.36-1.43l-2.08,1.12c-.39.21-.88.11-1.16-.26l-2.28-3.09c-.27-.37-.23-.87.09-1.18l1.68-1.66c-.32-.85-.54-1.75-.67-2.67l-2.26-.7c-.43-.12-.69-.55-.63-.99l.57-3.8c.07-.44.44-.77.89-.76h2.36c.37-.85.84-1.64,1.43-2.36l-1.12-2.08c-.21-.39-.11-.88.26-1.16l3.09-2.28c.37-.27.87-.23,1.18.09l1.66,1.68c.85-.32,1.75-.54,2.67-.67l.7-2.26c.05-.16.14-.3.26-.41"/>
          <path class="cls-1" d="M26.15,48.87c0,.05-.02.1-.02.15-.68,3.95-4.39,6.65-8.38,6.06-4.03-.6-6.81-4.37-6.21-8.4s4.37-6.81,8.4-6.21"/>
        </g>
        <line class="cls-1" x1="5.15" y1="26.3" x2="14.73" y2="23.91"/>
        <line class="cls-1" x1="7.47" y1="11.9" x2="16" y2="17.95"/>
        <line class="cls-1" x1="61.41" y1="56.25" x2="68.62" y2="62.2"/>
        <line class="cls-1" x1="18.35" y1="4.44" x2="20.64" y2="14.64"/>
        <line class="cls-1" x1="56.64" y1="58.63" x2="56.64" y2="67.01"/>
        <line class="cls-1" x1="71" y1="50.25" x2="62.62" y2="50.25"/>
        <path class="cls-1" d="M34.01,64.3h12.29v8.73c0,1.4-1.14,2.54-2.54,2.54h-7.21c-1.4,0-2.54-1.14-2.54-2.54v-8.73h0Z"/>
        <line class="cls-1" x1="34.01" y1="69.1" x2="46.3" y2="69.1"/>
        <path class="cls-1" d="M40.6,10.98c-1.12-.05-2.27,0-3.43.13-9.9,1.14-17.8,9.23-18.72,19.15-.83,8.81,3.71,16.65,10.71,20.64,0,0,0,0,0,0,.7.4,2.68,1.42,2.68,10.98,0,2.53,3.53,2.41,3.53,2.41h10.93s2.06.14,2.06-2.09-1.73-10.16,6.06-13.64"/>
        <path class="cls-1" d="M31.66,19.26s-7.37,3.54-7.29,13.41c.04,5.14,2.69,9.97,7.13,12.57.8.47,1.33.68,1.33.68,0,0,6.67,2.3,6.89,8.68"/>
        <line class="cls-1" x1="39.72" y1="57.43" x2="39.72" y2="61.02"/>
      </g>
    </g>
  </g>
</svg>