<?xml version="1.0" encoding="UTF-8"?><svg id="Layer_1" xmlns="http://www.w3.org/2000/svg" viewBox="0 0 80 80"><defs><style>.cls-1{fill:#fd6f39;}</style></defs><g id="Layer_1-2"><path class="cls-1" d="M54.99,46.41c-.08,0-.17,0-.25-.02h0s-5.38-.81-5.38-.81c-.87-.13-1.52-.89-1.51-1.76v-3.01c-1.04-.48-2.01-1.06-2.89-1.75l-2.66,1.43c-.77.42-1.75.2-2.28-.51l-3.24-4.38c-.52-.7-.45-1.7.17-2.32l2.15-2.13c-.37-1.04-.64-2.14-.83-3.26l-2.9-.9c-.83-.24-1.36-1.08-1.24-1.95l.81-5.38c.13-.87.91-1.52,1.76-1.51h3.01c.48-1.04,1.06-2.01,1.75-2.89l-1.43-2.66c-.42-.77-.2-1.75.51-2.28l4.38-3.24c.7-.53,1.7-.45,2.32.17l2.13,2.15c1.04-.36,2.13-.64,3.26-.83l.9-2.9c.25-.84,1.08-1.36,1.95-1.24l5.38.81c.87.13,1.52.89,1.51,1.76v3.01c1.04.48,2.01,1.06,2.89,1.75l2.66-1.43c.77-.42,1.75-.2,2.28.51l3.24,4.38c.52.7.45,1.7-.17,2.32l-2.15,2.13c.36,1.04.64,2.13.83,3.26l2.9.9c.83.24,1.36,1.08,1.24,1.95l-.81,5.38c-.13.87-.91,1.52-1.76,1.51h-3.01c-.48,1.04-1.06,2.01-1.75,2.89l1.43,2.66c.42.77.2,1.75-.51,2.28l-4.38,3.24c-.7.52-1.7.45-2.32-.17l-2.13-2.15c-1.04.36-2.13.64-3.26.83l-.9,2.9c-.22.75-.92,1.25-1.7,1.25ZM54.89,45.4c.38.06.74-.17.85-.54l1.08-3.51.31-.05c1.29-.19,2.52-.5,3.68-.93l.3-.11,2.58,2.61c.27.27.71.3,1.01.07l4.38-3.24c.31-.23.41-.66.23-1l-1.75-3.25.21-.26c.79-.96,1.44-2.05,1.95-3.22l.13-.3h3.68c.38,0,.7-.28.75-.65l.81-5.38c.05-.38-.17-.74-.54-.85l-3.51-1.08-.05-.31c-.19-1.29-.5-2.52-.93-3.68l-.11-.3,2.61-2.58c.27-.27.3-.71.07-1.01l-3.24-4.38c-.23-.31-.66-.41-1-.23l-3.25,1.75-.26-.21c-.96-.78-2.05-1.44-3.22-1.95l-.3-.13v-3.67c0-.38-.27-.71-.65-.77l-5.38-.81c-.37-.05-.74.17-.85.54l-1.08,3.51-.31.05c-1.29.19-2.52.5-3.68.93l-.3.11-2.58-2.61c-.27-.27-.71-.3-1.01-.07l-4.38,3.24c-.31.23-.41.66-.23,1l1.75,3.25-.21.26c-.79.97-1.44,2.05-1.95,3.22l-.13.3h-3.68c-.38,0-.7.28-.75.65l-.81,5.38c-.05.38.17.74.54.85l3.51,1.08.05.31c.19,1.28.5,2.52.93,3.68l.11.3-2.61,2.58c-.27.27-.3.71-.07,1.01l3.24,4.38c.23.31.66.42,1,.23l3.25-1.75.26.21c.96.78,2.05,1.44,3.22,1.95l.3.13v3.67c0,.38.27.71.65.77l5.38.81Z"/><path class="cls-1" d="M55.13,36.38c-.54,0-1.08-.04-1.62-.12h0c-5.97-.9-10.11-6.49-9.22-12.47.89-5.98,6.49-10.12,12.47-9.22,5.97.9,10.11,6.49,9.22,12.47-.81,5.43-5.5,9.34-10.84,9.34ZM53.66,35.27c5.44.8,10.52-2.95,11.33-8.38.81-5.43-2.95-10.51-8.38-11.33-5.45-.8-10.52,2.95-11.33,8.38-.81,5.43,2.95,10.51,8.38,11.33h0Z"/><path class="cls-1" d="M18.76,62.73c-.06,0-.13,0-.19-.01l-3.81-.57c-.71-.11-1.2-.7-1.19-1.4v-2.03c-.69-.32-1.33-.71-1.91-1.16l-1.79.96c-.62.33-1.37.16-1.8-.4l-2.28-3.1c-.42-.58-.36-1.35.14-1.84l1.45-1.43c-.23-.68-.41-1.4-.54-2.15l-1.96-.61c-.65-.18-1.07-.84-.98-1.54l.57-3.81c.11-.69.68-1.19,1.36-1.19h2.06c.33-.69.71-1.33,1.16-1.91l-.96-1.79c-.33-.62-.16-1.37.4-1.8l3.09-2.28c.58-.42,1.35-.36,1.84.14l1.43,1.45c.68-.23,1.4-.41,2.15-.54l.61-1.96c.07-.24.21-.46.4-.63l.68.73c-.06.05-.1.12-.12.19l-.79,2.56-.31.04c-.91.13-1.77.35-2.56.64l-.3.11-1.89-1.91c-.14-.15-.36-.16-.53-.04l-3.09,2.28c-.16.12-.21.34-.12.52l1.28,2.38-.21.26c-.54.66-1,1.41-1.36,2.24l-.13.3h-2.69c-.23-.02-.37.14-.4.34l-.57,3.8c-.03.19.09.38.27.43l2.58.8.04.31c.13.91.34,1.77.64,2.56l.11.3-1.91,1.89c-.15.14-.16.36-.04.53l2.28,3.09c.12.16.34.21.52.12l2.38-1.28.26.21c.66.54,1.41,1,2.24,1.36l.3.13v2.69c0,.2.14.36.34.4l3.8.57c.2.03.38-.09.43-.27l.8-2.58.31-.04c.91-.13,1.77-.35,2.56-.64l.3-.11,1.89,1.91c.14.14.36.16.53.04l3.09-2.28c.16-.12.21-.34.12-.52l-1.28-2.38.21-.26c.53-.65.99-1.4,1.36-2.24l.13-.3h1.49v1h-.84c-.33.7-.72,1.34-1.16,1.91l.96,1.79c.33.62.16,1.37-.4,1.8l-3.09,2.28c-.58.42-1.35.36-1.84-.14l-1.43-1.45c-.68.23-1.4.41-2.15.54l-.61,1.96c-.16.58-.72.99-1.34.99Z"/><path class="cls-1" d="M18.88,55.66c-.39,0-.79-.03-1.19-.09-2.08-.31-3.92-1.42-5.17-3.11-1.25-1.7-1.77-3.78-1.46-5.86.64-4.3,4.68-7.27,8.97-6.63l-.15.99c-3.77-.56-7.27,2.04-7.83,5.79-.27,1.82.18,3.63,1.28,5.12,1.09,1.48,2.7,2.45,4.51,2.72,3.75.55,7.17-1.93,7.81-5.65l.02-.1,1,.04-.02.17c-.67,3.92-3.96,6.62-7.76,6.62Z"/><rect class="cls-1" x="5.02" y="24.6" width="9.87" height="1" transform="translate(-5.78 3.16) rotate(-14.01)"/><rect class="cls-1" x="11.25" y="9.69" width="1" height="10.46" transform="translate(-7.22 15.87) rotate(-54.65)"/><rect class="cls-1" x="64.53" y="54.55" width="1" height="9.35" transform="translate(-22.04 71.68) rotate(-50.47)"/><rect class="cls-1" x="19.01" y="4.31" width="1" height="10.45" transform="translate(-1.61 4.5) rotate(-12.65)"/><rect class="cls-1" x="56.15" y="58.63" width="1" height="8.38"/><rect class="cls-1" x="62.63" y="49.74" width="8.38" height="1"/><path class="cls-1" d="M43.77,76.06h-7.21c-1.68,0-3.04-1.36-3.04-3.04v-9.23h13.29v9.23c0,1.68-1.36,3.04-3.04,3.04ZM34.52,64.8v8.23c0,1.12.92,2.04,2.04,2.04h7.21c1.12,0,2.04-.92,2.04-2.04v-8.23h-11.29Z"/><rect class="cls-1" x="34.02" y="68.6" width="12.29" height="1"/><path class="cls-1" d="M46.38,64.79c-.06,0-.09,0-.1,0h-10.9c-.08,0-2.12.06-3.27-1.05-.5-.49-.76-1.11-.76-1.86,0-9.16-1.81-10.19-2.4-10.53-7.49-4.27-11.79-12.56-10.98-21.13.95-10.19,9-18.43,19.16-19.6,1.23-.14,2.41-.18,3.51-.13l-.04,1c-1.05-.04-2.18,0-3.35.13-9.69,1.12-17.38,8.98-18.28,18.7-.77,8.19,3.33,16.1,10.46,20.16.89.51,2.93,1.67,2.93,11.42,0,.47.15.84.45,1.14.84.82,2.55.77,2.56.77h10.95s.71.03,1.14-.38c.28-.26.42-.67.42-1.21,0-.27-.03-.62-.06-1.04-.22-2.95-.72-9.86,6.41-13.05l.41.91c-6.5,2.9-6.04,9.09-5.82,12.07.03.45.06.83.06,1.12,0,.83-.25,1.49-.74,1.95-.63.59-1.47.65-1.75.65Z"/><path class="cls-1" d="M39.23,54.61c-.21-5.95-6.49-8.2-6.55-8.23-.04-.02-.6-.24-1.42-.72-4.51-2.64-7.33-7.62-7.38-13-.08-10.07,7.5-13.83,7.57-13.86l.43.9c-.29.14-7.08,3.54-7.01,12.96.04,5.03,2.68,9.68,6.88,12.14.75.44,1.26.64,1.26.65.05.02,6.98,2.48,7.21,9.13l-1,.04Z"/><rect class="cls-1" x="39.23" y="57.43" width="1" height="3.59"/></g></svg>