<?xml version="1.0" encoding="UTF-8"?><svg id="Layer_1" xmlns="http://www.w3.org/2000/svg" viewBox="0 0 80 80"><defs><style>.cls-1{fill:#fd6f39;}</style></defs><path class="cls-1" d="M23.02,73.19s-.03,0-.05,0c-.27-.03-.48-.27-.45-.55.23-2.3.31-4.65.25-6.98-.1-3.76-.17-6.24-1.24-9.08-.89-2.38-2.33-4.58-4.27-6.54-.19-.2-.19-.51,0-.71.2-.19.51-.19.71,0,2.04,2.06,3.55,4.38,4.49,6.89,1.13,3,1.2,5.54,1.3,9.39.06,2.39-.02,4.79-.26,7.13-.03.26-.24.45-.5.45Z"/><path class="cls-1" d="M50.71,72.3c-.27,0-.49-.21-.5-.48l-.21-6.48,5.1-.14c.95.02,2.37-.12,3.8-.9,2.71-1.47,3.6-4.21,3.82-5.01l1.33-9.78c.1-.73.54-1.38,1.18-1.74l6.35-3.6-6.73-11.78c-.22-.39-.32-.79-.31-1.24.09-2.9-.33-10.29-6.2-16.31-5.13-5.27-11.48-6.34-13.97-6.55-.28-.02-.48-.27-.46-.54.02-.27.28-.46.54-.46,2.6.22,9.23,1.34,14.6,6.85,6.13,6.3,6.58,14.02,6.48,17.04,0,.26.05.48.18.71l7.23,12.65-7.22,4.09c-.37.21-.62.58-.68,1l-1.35,9.84c-.31,1.22-1.34,4.08-4.32,5.7-1.29.7-2.77,1.06-4.28,1.02l-4.08.11.18,5.48c0,.28-.21.51-.48.52h-.02Z"/><path class="cls-1" d="M28.77,47.46h-2.33c-1.41,0-2.56-1.15-2.56-2.56v-2.71c-.72-.15-1.41-.38-2.07-.7-.77-.37-1.48-.85-2.12-1.42l-2.62,2.27c-1.02.88-2.55.82-3.49-.14l-1.01-1.02c-.97-.98-.98-2.58-.02-3.58l2.08-2.15c-.43-.59-.81-1.22-1.12-1.88-.25-.53-.45-1.09-.61-1.66-.19-.67-.88-1.13-1.58-1.08l-1.38.09c-.71.04-1.4-.21-1.91-.69-.51-.48-.81-1.16-.81-1.86v-2.13c0-1.37,1.07-2.49,2.44-2.55l3.15-.15c.12-.71.3-1.41.55-2.08.31-.82.71-1.6,1.2-2.33l-1.86-2.1c-.84-.95-.86-2.39-.03-3.36l1.17-1.37c.87-1.01,2.34-1.19,3.43-.42l3.1,2.21c.46-.49.99-.89,1.58-1.21.67-.36,1.42-.6,2.17-.7v-2.6c0-1.29.96-2.38,2.24-2.54l1.91-.24c.7-.09,1.39.11,1.94.56.55.45.88,1.08.93,1.79l.23,3.11c.69.08,1.35.25,1.99.51.79.31,1.53.75,2.18,1.3l1.83-1.88c.93-.95,2.41-1.04,3.45-.19l1.51,1.24c.55.45.89,1.11.93,1.81.05.7-.2,1.4-.68,1.92l-1.15,1.23c-.47.5-.56,1.24-.21,1.83.3.52.59,1.07.84,1.62.32.7.6,1.43.84,2.17l2.38.22c1.32.12,2.32,1.22,2.32,2.55v1.59c0,1.41-1.15,2.56-2.56,2.56h-2.49c-.07.77-.24,1.52-.49,2.25-.2.58-.46,1.16-.77,1.7-.32.56-.21,1.3.28,1.79l.65.66c.98,1,.99,2.56.01,3.57l-1.11,1.15c-.94.97-2.47,1.04-3.5.17l-1.83-1.56c-.56.46-1.18.84-1.85,1.13-.78.34-1.6.57-2.44.66l-.24,2.87c-.11,1.32-1.23,2.35-2.55,2.35ZM19.73,38.72l.33.33c.64.63,1.37,1.15,2.18,1.54.7.34,1.44.57,2.21.69l.42.07v3.55c0,.86.7,1.56,1.56,1.56h2.33c.8,0,1.49-.63,1.55-1.43l.3-3.72.43-.02c.88-.05,1.73-.25,2.53-.61.71-.31,1.35-.73,1.92-1.25l.33-.29,2.49,2.12c.62.53,1.56.49,2.13-.1l1.11-1.15c.59-.61.59-1.57,0-2.17l-.65-.66c-.8-.81-.98-2.04-.43-2.99.28-.49.51-1,.69-1.52.27-.79.43-1.61.47-2.45l.02-.48h3.43c.86,0,1.56-.7,1.56-1.56v-1.59c0-.81-.61-1.47-1.41-1.55l-3.05-.28-.1-.32c-.24-.81-.54-1.6-.89-2.36-.24-.52-.51-1.04-.8-1.53-.57-.98-.43-2.19.34-3.02l1.15-1.23c.3-.32.45-.73.42-1.17-.03-.43-.23-.83-.57-1.1l-1.51-1.24c-.63-.52-1.53-.46-2.1.12l-2.51,2.57-.36-.34c-.66-.62-1.41-1.1-2.24-1.42-.68-.27-1.39-.43-2.12-.48l-.43-.03-.29-3.96c-.03-.43-.23-.82-.57-1.09-.33-.27-.76-.4-1.18-.34l-1.91.24c-.78.1-1.36.76-1.36,1.54v3.53l-.47.02c-.54.03-1.36.16-2.22.62-.61.33-1.15.77-1.59,1.32l-.3.36-3.85-2.75c-.66-.47-1.56-.36-2.08.25l-1.17,1.37c-.5.59-.5,1.47.02,2.04l2.39,2.7-.24.33c-.54.74-.98,1.56-1.3,2.42-.27.73-.46,1.5-.56,2.27l-.05.42-3.98.18c-.83.04-1.49.72-1.49,1.56v2.13c0,.43.17.84.49,1.13.32.3.73.44,1.17.42l1.38-.09c1.21-.09,2.29.68,2.6,1.81.14.52.33,1.02.55,1.5.33.72.76,1.4,1.26,2.02l.28.34-2.69,2.78c-.58.6-.58,1.58.01,2.18l1.01,1.02c.58.58,1.51.62,2.12.08l3.31-2.87Z"/><path class="cls-1" d="M27.66,34.7c-4.06,0-7.37-3.3-7.37-7.37s3.3-7.37,7.37-7.37,7.37,3.3,7.37,7.37-3.3,7.37-7.37,7.37ZM27.66,20.96c-3.51,0-6.37,2.86-6.37,6.37s2.86,6.37,6.37,6.37,6.37-2.86,6.37-6.37-2.86-6.37-6.37-6.37Z"/></svg>