<?xml version="1.0" encoding="UTF-8"?><svg id="Layer_1" xmlns="http://www.w3.org/2000/svg" viewBox="0 0 80 80"><defs><style>.cls-1{fill:#f36f3e;}</style></defs><path class="cls-1" d="M11.38,48.84h-.73v-31.97c0-2.95,2.4-5.36,5.36-5.36h40.84c2.95,0,5.36,2.4,5.36,5.36v5.18h-.73v-5.18c0-2.55-2.08-4.63-4.63-4.63H16.01c-2.55,0-4.63,2.08-4.63,4.63v31.97Z"/><path class="cls-1" d="M21.42,30.5c-1.45,0-2.63-1.18-2.63-2.63s1.18-2.63,2.63-2.63,2.63,1.18,2.63,2.63-1.18,2.63-2.63,2.63ZM21.42,25.95c-1.05,0-1.91.86-1.91,1.91s.86,1.91,1.91,1.91,1.91-.86,1.91-1.91-.86-1.91-1.91-1.91Z"/><path class="cls-1" d="M31.04,23.26c-1.45,0-2.63-1.18-2.63-2.63s1.18-2.63,2.63-2.63,2.64,1.18,2.64,2.63-1.18,2.63-2.64,2.63ZM31.04,18.72c-1.05,0-1.91.86-1.91,1.91s.86,1.91,1.91,1.91,1.91-.86,1.91-1.91-.86-1.91-1.91-1.91Z"/><path class="cls-1" d="M41.02,30.14c-1.45,0-2.63-1.18-2.63-2.63s1.18-2.63,2.63-2.63,2.63,1.18,2.63,2.63-1.18,2.63-2.63,2.63ZM41.02,25.6c-1.05,0-1.91.86-1.91,1.91s.86,1.91,1.91,1.91,1.91-.86,1.91-1.91-.86-1.91-1.91-1.91Z"/><path class="cls-1" d="M51.19,20.99c-1.45,0-2.63-1.18-2.63-2.63s1.18-2.63,2.63-2.63,2.63,1.18,2.63,2.63-1.18,2.63-2.63,2.63ZM51.19,16.45c-1.05,0-1.91.86-1.91,1.91s.86,1.91,1.91,1.91,1.91-.86,1.91-1.91-.86-1.91-1.91-1.91Z"/><rect class="cls-1" x="22.45" y="23.84" width="7.5" height=".73" transform="translate(-9.24 20.15) rotate(-36.21)"/><rect class="cls-1" x="35.76" y="20.13" width=".73" height="7.6" transform="translate(-4.45 39.14) rotate(-54.08)"/><rect class="cls-1" x="41.64" y="22.7" width="9.16" height=".73" transform="translate(-3.42 37.35) rotate(-42.57)"/><path class="cls-1" d="M24.67,44.14h-6.5v-10.76h6.5v10.76ZM18.9,43.41h5.05v-9.31h-5.05v9.31Z"/><path class="cls-1" d="M34.29,44.14h-6.5v-14.88h6.5v14.88ZM28.52,43.41h5.05v-13.42h-5.05v13.42Z"/><path class="cls-1" d="M44.27,44.14h-6.5v-11.85h6.5v11.85ZM38.5,43.41h5.05v-10.4h-5.05v10.4Z"/><path class="cls-1" d="M49.06,44.14H16.12c-.2,0-.36-.16-.36-.36s.16-.36.36-.36h32.94c.2,0,.36.16.36.36s-.16.36-.36.36Z"/><path class="cls-1" d="M58.34,54.88h0l-49.11-.02c-.74-.1-2.47-.51-3.71-2.17-1.16-1.56-1.14-3.23-1.08-3.88l.03-.33h15.02c.2,0,.36.16.36.36s-.16.36-.36.36H5.14c-.02.69.1,1.91.96,3.05,1.11,1.48,2.72,1.82,3.19,1.88l49.05.02c.2,0,.36.16.36.36s-.16.36-.36.36Z"/><path class="cls-1" d="M64.41,68.48h-4.32c-.56,0-1.01-.45-1.01-1.01v-13.6c0-.56.45-1.01,1.01-1.01h4.32c.56,0,1.01.45,1.01,1.01v13.6c0,.56-.45,1.01-1.01,1.01ZM60.09,53.59c-.16,0-.28.13-.28.28v13.6c0,.16.13.28.28.28h4.32c.16,0,.28-.13.28-.28v-13.6c0-.16-.13-.28-.28-.28h-4.32Z"/><rect class="cls-1" x="60.51" y="50.21" width=".73" height="3.01"/><rect class="cls-1" x="62.78" y="50.17" width=".73" height="3.01"/><path class="cls-1" d="M62.25,50.54c-7.35,0-13.34-5.98-13.34-13.34s5.98-13.34,13.34-13.34,13.34,5.98,13.34,13.34-5.98,13.34-13.34,13.34ZM62.25,24.59c-6.95,0-12.61,5.66-12.61,12.61s5.66,12.61,12.61,12.61,12.61-5.66,12.61-12.61-5.66-12.61-12.61-12.61Z"/><path class="cls-1" d="M61.99,42.78c-3.81,0-7.33-2.34-8.86-5.94l-.09-.21,2.5-2.94c1.22-1.44,2.75-2.43,4.41-2.88,1-.27,2.03-.36,3.06-.26,1.25.12,2.44.51,3.54,1.16,1.07.63,2.01,1.53,2.79,2.67l1.55,2.28-.08.18c-1.44,3.41-4.71,5.73-8.33,5.92-.17,0-.33.01-.5.01ZM53.89,36.76c1.53,3.36,4.92,5.45,8.56,5.28,3.28-.18,6.25-2.25,7.62-5.3l-1.33-1.95c-.72-1.05-1.58-1.88-2.56-2.45-1.01-.59-2.1-.95-3.24-1.06-.95-.09-1.89-.01-2.8.24-1.52.41-2.91,1.33-4.04,2.65l-2.21,2.59Z"/><path class="cls-1" d="M62.05,39.68c-.8,0-1.59-.31-2.17-.91-.86-.89-1.08-2.29-.54-3.48.08-.18.3-.26.48-.18.18.08.26.3.18.48-.42.92-.26,1.99.4,2.67.81.84,2.22.91,3.16.16.91-.73,1.16-2.06.58-3.03-.46-.77-1.38-1.2-2.35-1.09-.19.02-.38-.12-.4-.32-.02-.2.12-.38.32-.4,1.24-.14,2.44.42,3.05,1.43.77,1.28.44,3.02-.75,3.97-.57.46-1.27.68-1.96.68Z"/></svg>