<?xml version="1.0" encoding="UTF-8"?><svg id="Layer_1" xmlns="http://www.w3.org/2000/svg" viewBox="0 0 80 80"><defs><style>.cls-1{fill:#fd6f39;}</style></defs><path class="cls-1" d="M26.78,71.12h-1.96c-1.23,0-2.23-1-2.23-2.23v-2.21c-.59-.13-1.16-.32-1.7-.58-.63-.31-1.22-.69-1.75-1.16l-2.15,1.86c-.88.77-2.22.71-3.05-.12l-.85-.86c-.85-.86-.85-2.25-.02-3.12l1.7-1.76c-.35-.49-.66-1-.91-1.54-.21-.45-.38-.92-.52-1.41-.15-.53-.65-.88-1.25-.85l-1.16.07c-.63.04-1.22-.18-1.67-.6-.45-.42-.7-1.01-.7-1.63v-1.79c0-1.19.93-2.17,2.13-2.23l2.58-.12c.1-.58.25-1.15.46-1.7.25-.68.58-1.32.98-1.93l-1.53-1.72c-.73-.83-.75-2.09-.02-2.93l.99-1.15c.76-.88,2.04-1.04,2.99-.36l2.55,1.82c.38-.39.82-.72,1.3-.98.55-.3,1.16-.5,1.79-.59v-2.12c0-1.12.84-2.07,1.95-2.21l1.61-.2c.61-.07,1.21.1,1.69.49.48.39.77.95.81,1.56l.19,2.55c.56.07,1.11.21,1.63.42.65.26,1.26.61,1.8,1.06l1.49-1.53c.81-.83,2.11-.91,3.01-.17l1.27,1.04c.48.39.77.96.81,1.58.04.61-.18,1.22-.6,1.67l-.97,1.03c-.37.4-.44.98-.17,1.45.26.44.5.9.71,1.37.27.58.5,1.17.7,1.78l1.96.18c1.16.11,2.03,1.06,2.03,2.22v1.34c0,1.23-1,2.23-2.23,2.23h-2.02c-.07.63-.2,1.24-.41,1.84-.17.5-.39.98-.65,1.44-.25.44-.16,1.02.22,1.41l.55.56c.86.87.86,2.24.01,3.12l-.94.97c-.82.84-2.16.91-3.05.15l-1.49-1.27c-.46.37-.98.68-1.52.92-.64.29-1.32.47-2.01.55l-.19,2.35c-.09,1.15-1.07,2.05-2.22,2.05ZM19.18,63.58l.33.33c.53.53,1.14.96,1.81,1.29.58.28,1.2.47,1.84.58l.42.07v3.05c0,.68.55,1.23,1.23,1.23h1.96c.64,0,1.17-.5,1.23-1.13l.26-3.2.43-.02c.73-.04,1.44-.21,2.1-.51.58-.26,1.12-.61,1.59-1.04l.33-.29,2.15,1.83c.49.42,1.23.38,1.68-.08l.94-.97c.47-.48.46-1.24,0-1.72l-.55-.56c-.7-.71-.85-1.78-.38-2.61.23-.41.43-.83.58-1.27.22-.66.35-1.34.39-2.04l.02-.48h2.96c.68,0,1.23-.55,1.23-1.23v-1.34c0-.64-.48-1.17-1.12-1.23l-2.62-.24-.1-.32c-.2-.68-.45-1.34-.75-1.97-.2-.44-.43-.87-.67-1.28-.5-.85-.38-1.91.3-2.63l.97-1.03c.24-.25.35-.58.33-.92-.02-.34-.18-.65-.45-.87l-1.27-1.04c-.5-.41-1.21-.37-1.66.09l-2.17,2.22-.36-.34c-.54-.51-1.17-.91-1.86-1.18-.56-.22-1.16-.36-1.76-.4l-.43-.03-.25-3.4c-.02-.34-.18-.65-.45-.86-.26-.22-.6-.31-.93-.27l-1.61.2c-.61.08-1.08.6-1.08,1.22v3.04l-.47.02c-.45.02-1.13.13-1.84.52-.5.27-.95.65-1.31,1.09l-.3.36-3.3-2.35c-.53-.37-1.23-.29-1.65.2l-.99,1.15c-.4.46-.39,1.16.01,1.62l2.05,2.31-.24.33c-.45.62-.82,1.3-1.08,2.02-.23.61-.39,1.25-.47,1.89l-.05.42-3.41.16c-.66.03-1.17.57-1.17,1.23v1.79c0,.34.14.66.39.9.25.24.58.36.92.33l1.16-.07c1.05-.07,2,.6,2.27,1.58.12.43.27.85.46,1.25.28.6.63,1.17,1.05,1.69l.28.34-2.31,2.39c-.46.48-.46,1.25,0,1.72l.85.86c.45.46,1.19.49,1.68.07l2.84-2.46Z"/><path class="cls-1" d="M25.84,60.37c-3.46,0-6.28-2.82-6.28-6.28s2.82-6.28,6.28-6.28,6.28,2.82,6.28,6.28-2.82,6.28-6.28,6.28ZM25.84,48.81c-2.91,0-5.28,2.37-5.28,5.28s2.37,5.28,5.28,5.28,5.28-2.37,5.28-5.28-2.37-5.28-5.28-5.28Z"/><path class="cls-1" d="M13.14,38.62c-.28,0-.5-.22-.5-.5V9.97c0-.28.22-.5.5-.5s.5.22.5.5v28.16c0,.28-.22.5-.5.5Z"/><polygon class="cls-1" points="17.23 13.28 16.5 13.96 13.15 10.35 9.79 13.96 9.06 13.28 13.15 8.88 17.23 13.28"/><path class="cls-1" d="M69.64,67.38h-28.09c-.28,0-.5-.22-.5-.5s.22-.5.5-.5h28.09c.28,0,.5.22.5.5s-.22.5-.5.5Z"/><polygon class="cls-1" points="66.32 70.97 65.64 70.24 69.25 66.88 65.64 63.52 66.32 62.79 70.72 66.88 66.32 70.97"/><rect class="cls-1" x="49.82" y="64.62" width="1" height="2"/><path class="cls-1" d="M50.82,60.23h-1v-4.38h1v4.38ZM50.82,51.47h-1v-4.38h1v4.38ZM50.82,42.7h-1v-4.38h1v4.38Z"/><rect class="cls-1" x="49.82" y="31.94" width="1" height="2"/><rect class="cls-1" x="45.55" y="28.49" width="2" height="1"/><path class="cls-1" d="M41.21,29.49h-4.34v-1h4.34v1ZM32.52,29.49h-4.34v-1h4.34v1ZM23.83,29.49h-4.34v-1h4.34v1Z"/><rect class="cls-1" x="13.15" y="28.49" width="2" height="1"/><rect class="cls-1" x="57.76" y="64.88" width="1" height="2"/><path class="cls-1" d="M58.76,60.65h-1v-4.22h1v4.22ZM58.76,52.21h-1v-4.22h1v4.22ZM58.76,43.77h-1v-4.22h1v4.22ZM58.76,35.32h-1v-4.22h1v4.22Z"/><rect class="cls-1" x="57.76" y="24.88" width="1" height="2"/><rect class="cls-1" x="53.02" y="21.19" width="2" height="1"/><path class="cls-1" d="M48.88,22.19h-4.14v-1h4.14v1ZM40.59,22.19h-4.14v-1h4.14v1ZM32.3,22.19h-4.14v-1h4.14v1ZM24.01,22.19h-4.15v-1h4.15v1Z"/><rect class="cls-1" x="13.72" y="21.19" width="2" height="1"/><path class="cls-1" d="M50.7,33.06l-3.85-4.08,16.58-16.2-1.59-1.94c-.23-.3-.28-.69-.12-1.04.16-.34.49-.56.87-.58l7.8-.29c.28,0,.57.1.76.31.2.21.29.49.27.78h0s-.73,7.37-.73,7.37c-.04.38-.28.69-.63.83-.35.14-.75.07-1.03-.19l-1.69-1.51-16.65,16.52ZM48.25,29l2.47,2.63,16-15.81c.36-.35.92-.36,1.29-.03l1.69,1.51.73-7.36-7.8.29,1.59,2.01c.3.38.27.92-.08,1.26l-15.88,15.51ZM70.42,9.93h0s0,0,0,0h0Z"/></svg>