<?xml version="1.0" encoding="UTF-8"?><svg id="Layer_1" xmlns="http://www.w3.org/2000/svg" viewBox="0 0 80 80"><defs><style>.cls-1{fill:#f36f3e;}</style></defs><path class="cls-1" d="M52.58,66.74H11.32c-1.13,0-2.04-.92-2.04-2.04V17.62l.11-.13,7.24-8.39h35.94c1.13,0,2.05.92,2.05,2.04v22.2l-12.48,3.95.36,13.01c.43,2.31,1.76,6.87,5.77,10.63,1.75,1.63,3.76,2.91,5.98,3.79l.4.16-.12.41c-.25.85-1.05,1.45-1.96,1.45ZM10.22,17.97v46.73c0,.6.49,1.1,1.1,1.1h41.26c.34,0,.65-.15.85-.39-2.14-.92-4.09-2.19-5.79-3.78-4.21-3.95-5.6-8.72-6.06-11.22l-.39-13.8,12.5-3.95V11.14c0-.6-.5-1.1-1.11-1.1H17.07l-6.84,7.93Z"/><path class="cls-1" d="M9.75,18.27v-.95c1.88,0,4.06-.01,6.19-.18.27-.02.58-.56.57-.97l-.2-6.59.95-.03.2,6.59c.02.76-.51,1.87-1.44,1.94-2.16.17-4.37.19-6.27.19Z"/><path class="cls-1" d="M57.21,70.91H17.33c-1.49,0-2.69-1.21-2.69-2.69v-1.95h.95v1.95c0,.96.78,1.75,1.75,1.75h39.88c.96,0,1.74-.78,1.74-1.75v-3.39h.95v3.39c0,1.49-1.21,2.69-2.69,2.69Z"/><path class="cls-1" d="M59.9,33.34h-.95v-17.21c0-.96-.78-1.74-1.74-1.74h-3.05v-.95h3.05c1.48,0,2.69,1.21,2.69,2.69v17.21Z"/><path class="cls-1" d="M25.35,33.25h-9.22v-9.55h9.22v9.55ZM17.07,32.31h7.33v-7.66h-7.33v7.66Z"/><path class="cls-1" d="M25.35,46.58h-9.22v-9.55h9.22v9.55ZM17.07,45.63h7.33v-7.66h-7.33v7.66Z"/><path class="cls-1" d="M25.35,59.39h-9.22v-9.55h9.22v9.55ZM17.07,58.44h7.33v-7.66h-7.33v7.66Z"/><path class="cls-1" d="M21.07,30.45l-3.28-2.62c-.2-.16-.24-.46-.07-.66s.46-.24.66-.07l2.63,2.1,5.3-5.12c.19-.18.49-.18.67.01.18.19.18.49-.01.67l-5.9,5.7Z"/><path class="cls-1" d="M21.07,43.54l-3.28-2.62c-.2-.16-.24-.46-.07-.66s.46-.24.66-.07l2.63,2.1,5.3-5.12c.19-.18.49-.18.67.01.18.19.18.49-.01.67l-5.9,5.7Z"/><path class="cls-1" d="M21.22,56.7l-3.28-2.62c-.2-.16-.24-.46-.07-.66.16-.2.46-.24.66-.07l2.63,2.1,5.3-5.12c.19-.18.49-.18.67.01.18.19.18.49-.01.67l-5.9,5.7Z"/><path class="cls-1" d="M48.32,26.6h-18.5c-.26,0-.47-.21-.47-.47s.21-.47.47-.47h18.5c.26,0,.47.21.47.47s-.21.47-.47.47Z"/><path class="cls-1" d="M47.81,31.17h-18.5c-.26,0-.47-.21-.47-.47s.21-.47.47-.47h18.5c.26,0,.47.21.47.47s-.21.47-.47.47Z"/><path class="cls-1" d="M41.43,39.73h-12.12c-.26,0-.47-.21-.47-.47s.21-.47.47-.47h12.12c.26,0,.47.21.47.47s-.21.47-.47.47Z"/><path class="cls-1" d="M41.67,44.26h-12.12c-.26,0-.47-.21-.47-.47s.21-.47.47-.47h12.12c.26,0,.47.21.47.47s-.21.47-.47.47Z"/><path class="cls-1" d="M41.43,52.87h-12.12c-.26,0-.47-.21-.47-.47s.21-.47.47-.47h12.12c.26,0,.47.21.47.47s-.21.47-.47.47Z"/><path class="cls-1" d="M44.35,57.35h-15c-.26,0-.47-.21-.47-.47s.21-.47.47-.47h15c.26,0,.47.21.47.47s-.21.47-.47.47Z"/><path class="cls-1" d="M56.27,66.38l-.12-.03c-.52-.14-1.33-.38-2.26-.76-2.33-.93-4.44-2.27-6.27-3.98-4.21-3.95-5.6-8.72-6.06-11.22l-.39-13.8,15.1-4.78,3.28,1.07c3.61,1.17,7.22,2.34,10.83,3.52l.33.11v13.29c-.29,2.64-1.4,7.6-5.61,11.71-1.59,1.57-3.44,2.82-5.5,3.74-1.36.6-2.5.93-3.22,1.11l-.12.03ZM42.15,37.28l.36,13.01c.43,2.31,1.76,6.87,5.77,10.63,1.75,1.63,3.76,2.91,5.98,3.79.82.33,1.54.55,2.04.69.69-.17,1.72-.48,2.94-1.02,1.95-.87,3.71-2.06,5.22-3.55,4-3.91,5.05-8.63,5.33-11.09v-12.55c-3.5-1.14-7-2.27-10.5-3.41l-3-.97-14.13,4.47Z"/><path class="cls-1" d="M61.27,57.64h-10.63c-.8,0-1.45-.65-1.45-1.45v-6.99c0-.8.65-1.45,1.45-1.45h10.63c.8,0,1.45.65,1.45,1.45v1.54c0,.26-.21.47-.47.47s-.47-.21-.47-.47v-1.54c0-.28-.23-.5-.5-.5h-10.63c-.28,0-.5.23-.5.5v6.99c0,.28.23.5.5.5h10.63c.28,0,.5-.23.5-.5v-3.65c0-.26.21-.47.47-.47s.47.21.47.47v3.65c0,.8-.65,1.45-1.45,1.45Z"/><path class="cls-1" d="M61.01,48.23h-.95v-3.05c0-.27-.03-.48-.08-.66-.55-1.77-2.15-2.97-3.99-3-.02,0-.04,0-.06,0-1.84,0-3.51,1.23-4.05,3.01-.05.18-.08.39-.08.65v3.06h-.95v-3.06c0-.35.04-.65.12-.92.68-2.2,2.72-3.7,5.03-3.68,2.25.03,4.21,1.51,4.88,3.67.08.27.13.58.13.94v3.05Z"/><path class="cls-1" d="M58.95,48.23h-.95v-2.54c0-.43-.11-.82-.32-1.13-.48-.72-1.33-1.11-2.1-.98-.79.13-1.46.8-1.67,1.66v3h-.95v-3.16c.3-1.25,1.28-2.23,2.46-2.43,1.15-.19,2.34.35,3.04,1.39.31.46.48,1.04.48,1.66v2.54Z"/></svg>