<?xml version="1.0" encoding="UTF-8"?><svg id="Layer_1" xmlns="http://www.w3.org/2000/svg" viewBox="0 0 80 80"><defs><style>.cls-1{fill:none;stroke:#fd6f39;stroke-miterlimit:10;stroke-width:2px;}.cls-2{fill:#fd6f39;}</style></defs><polygon class="cls-1" points="26.08 32.18 26.08 47.74 39.51 55.18 53.47 48.67 53.47 32.18 39.78 25.53 26.08 32.18"/><polyline class="cls-1" points="26.08 32.18 39.78 38.56 53.47 32.18"/><line class="cls-1" x1="39.78" y1="38.56" x2="39.78" y2="55.18"/><path class="cls-1" d="M57.33,29.3c2.81-1.86,5.61-3.71,8.42-5.57"/><polygon class="cls-2" points="64.29 28.76 65.26 24.06 60.56 23.1 62.96 21.51 67.66 22.47 66.7 27.17 64.29 28.76"/><path class="cls-1" d="M58.71,50.72c2.96,1.6,5.92,3.2,8.88,4.8"/><polygon class="cls-2" points="62.47 56.6 67.07 55.23 65.69 50.64 68.23 52.01 69.6 56.6 65 57.97 62.47 56.6"/><path class="cls-1" d="M40.07,61.36c-.16,3.36-.32,6.72-.48,10.08"/><polygon class="cls-2" points="36.39 67.3 39.62 70.85 43.17 67.62 43.03 70.49 39.48 73.72 36.26 70.17 36.39 67.3"/><path class="cls-1" d="M21.18,50.61c-2.93,1.66-5.86,3.31-8.78,4.97"/><polygon class="cls-2" points="14.19 50.67 12.91 55.29 17.53 56.57 15.02 57.99 10.4 56.71 11.68 52.09 14.19 50.67"/><path class="cls-1" d="M20.73,29.61c-2.69-2.03-5.37-4.05-8.06-6.08"/><polygon class="cls-2" points="17.89 23.23 13.14 23.89 13.81 28.64 11.51 26.91 10.85 22.16 15.6 21.49 17.89 23.23"/><path class="cls-1" d="M39.36,18.65c.07-3.36.13-6.73.2-10.09"/><polygon class="cls-2" points="42.87 12.61 39.55 9.15 36.09 12.48 36.15 9.6 39.61 6.28 42.93 9.74 42.87 12.61"/></svg>