<?xml version="1.0" encoding="UTF-8"?>
<svg id="Layer_1" xmlns="http://www.w3.org/2000/svg" version="1.1" viewBox="0 0 80 80">
  <!-- Generator: Adobe Illustrator 29.2.1, SVG Export Plug-In . SVG Version: 2.1.0 Build 116)  -->
  <defs>
    <style>
      .st0 {
        stroke-miterlimit: 10;
        stroke-width: 1px;
      }

      .st0, .st1, .st2 {
        fill: none;
        stroke: #fd6f39;
      }

      .st3 {
        fill: #fd6f39;
      }

      .st1 {
        stroke-linecap: round;
      }

      .st1, .st2 {
        stroke-miterlimit: 10;
      }
    </style>
  </defs>
  <g id="Layer_11" data-name="Layer_1">
    <g>
      <g>
        <path class="st2" d="M41.1,36l-2.4,2.4c-.4.4-1.1.5-1.6.1l-2.5-1.9c-1.1.6-2.2,1.1-3.4,1.4l-.5,3.1c0,.6-.6,1-1.2,1h-5.1c-.6,0-1.1-.4-1.2-1l-.5-3.1c-1.2-.3-2.3-.8-3.4-1.4l-2.5,1.9c-.5.4-1.1.3-1.6-.1l-3.6-3.7c-.4-.4-.5-1.1-.1-1.6l1.9-2.5c-.6-1.1-1.1-2.2-1.4-3.4l-3.1-.5c-.6,0-1-.6-1-1.2v-5.1c0-.6.4-1.1,1-1.2l3.1-.5c.3-1.2.8-2.3,1.4-3.4l-1.9-2.5c-.4-.5-.3-1.1.1-1.6l3.6-3.7c.4-.4,1.1-.5,1.6-.1l2.5,1.9c1.1-.6,2.2-1.1,3.4-1.4l.5-3.1c0-.6.6-1,1.2-1h5.1c.6,0,1.1.4,1.2,1l.5,3.1c1.2.3,2.3.8,3.4,1.4l2.5-1.9c.5-.4,1.2-.3,1.6.1l3.7,3.7c.4.4.5,1.1.1,1.6l-1.9,2.5c.6,1.1,1.1,2.2,1.4,3.4l3.1.5c.3,0,.6.2.8.5"/>
        <path class="st2" d="M26.9,32.9c-5.5,0-9.9-4.4-9.9-9.9s4.4-9.9,9.9-9.9,9.9,4.4,9.9,9.9-4.4,9.9-9.9,9.9Z"/>
      </g>
      <line class="st1" x1="26.9" y1="13.1" x2="26.9" y2="17"/>
      <line class="st1" x1="26.9" y1="28.7" x2="26.9" y2="32.6"/>
      <line class="st1" x1="36.8" y1="23" x2="33" y2="23"/>
      <line class="st1" x1="29.6" y1="23" x2="26.9" y2="23"/>
      <line class="st1" x1="26.9" y1="23" x2="26.9" y2="19.2"/>
      <line class="st1" x1="21" y1="23" x2="17.1" y2="23"/>
      <path class="st1" d="M39.5,31.6c0,6.2,7.5,11.2,16.9,11.2s16.9-5,16.9-11.2-10.2-19.1-16.9-19.1-7.3,3.1-10.6,7c-3.5,4.1-6.2,9-6.2,12.1h0Z"/>
      <path class="st1" d="M53.7,13.1c-2.7-5.7-5.9-7.6-5.7-8.5,0-.5.7-.8,1.3-1,.5-.2,1.9-.4,2.4-.1,1,.4,2.5.6,4.4.8.7,0,1.4,0,2.1-.2,3.4-1,5.2-.8,6.1-.3.7.4.9,1.3.3,1.9-1.5,1.7-5,5.6-4.9,7.6"/>
      <path class="st3" d="M56.5,39.3c-.2,0-.4,0-.6-.2-.2-.2-.2-.3-.2-.6v-2l.4.4c-1,0-1.9-.2-2.7-.4s-1.5-.6-2-1c-.2-.1-.3-.3-.4-.5s0-.3,0-.5,0-.3.2-.5c.1-.1.3-.2.4-.2.2,0,.4,0,.6.2.5.3,1,.6,1.7.8s1.5.3,2.4.3,1.4,0,1.9-.3.9-.5,1.1-.9.4-.8.4-1.2,0-.7-.3-1c-.2-.3-.5-.5-.8-.7s-.9-.4-1.5-.5l-2.2-.5c-1.3-.3-2.2-.7-2.8-1.4-.6-.6-.9-1.5-.9-2.5s.2-1.5.6-2.2,1-1.2,1.7-1.5c.7-.4,1.6-.6,2.5-.6l-.3.3v-2c0-.2,0-.4.2-.6.2-.1.3-.2.6-.2s.4,0,.6.2c.2.2.2.4.2.6v2l-.3-.3c.7,0,1.4.1,2.1.4s1.4.6,1.9,1.1c.2.1.3.3.3.4s0,.3,0,.5-.1.3-.2.4c-.1.1-.3.1-.4.2-.2,0-.4,0-.6-.2-.5-.3-1-.6-1.5-.8-.6-.2-1.2-.3-2-.3s-1.8.2-2.4.7-.9,1.1-.9,1.9.2,1.1.6,1.5,1,.6,1.8.8l2.2.5c1.3.3,2.3.7,3,1.3s1,1.4,1,2.5-.2,1.5-.6,2.1c-.4.6-1,1.1-1.7,1.4s-1.5.6-2.5.6l.4-.4v2.1c0,.2,0,.4-.2.6s-.3.2-.6.2h0Z"/>
      <path class="st0" d="M3.7,49.4l5.7-1.5c1.3-.3,2.6.4,2.9,1.7l6.2,22.7c.3,1.3-.4,2.6-1.7,2.9l-5.7,1.5c-.3,0-.7-.1-.8-.5l-7.1-26.1c0-.3.1-.7.5-.8Z"/>
      <path class="st1" d="M12.9,51.6l6.1-1.7s8.6-7.4,20.5-.6h16.4s3.7.8,3.9,4.2c0,.1,0,.3,0,.4,0,3.7-3.4,4.5-3.4,4.5h-14.5"/>
      <path class="st2" d="M60.2,53.7l9.7-5.5c1-.6,2.1-.8,3.2-.7,1.6.2,3.5.9,3.6,3.4.1,1.6-.6,3.1-1.7,4.2-3.7,3.6-14.8,13.7-23.8,16.3-11,3.2-26.4-3-26.4-3l-6.8,1.9"/>
    </g>
  </g>
</svg>