<?xml version="1.0" encoding="UTF-8"?>
<svg id="Layer_1" xmlns="http://www.w3.org/2000/svg" version="1.1" viewBox="0 0 80 80">
  <!-- Generator: Adobe Illustrator 29.2.1, SVG Export Plug-In . SVG Version: 2.1.0 Build 116)  -->
  <defs>
    <style>
      .st0 {
        fill: none;
        stroke: #fd6f39;
        stroke-miterlimit: 10;
      }
    </style>
  </defs>
  <g id="Layer_11">
    <g>
      <g>
        <path class="st0" d="M23.5,38.3h-3.1c-.4,0-.7-.3-.7-.6l-.3-1.9c-.7-.2-1.4-.5-2.1-.9l-1.6,1.2c-.3.2-.7.2-1,0l-2.2-2.2c-.3-.3-.3-.7,0-1l1.2-1.5c-.4-.6-.6-1.4-.9-2.1l-1.9-.3c-.4,0-.6-.4-.6-.7v-3.1c0-.4.3-.7.6-.7l1.9-.3c.2-.7.5-1.4.9-2.1l-1.2-1.5c-.2-.3-.2-.7,0-1l2.2-2.2c.3-.3.7-.3,1,0l1.6,1.2c.6-.4,1.4-.6,2.1-.9l.3-1.9c0-.4.4-.6.7-.6h3.1c.4,0,.7.3.7.6l.3,1.9c.7.2,1.4.5,2.1.9l1.5-1.2c.3-.2.7-.2,1,0l2.2,2.2c.3.3.3.7,0,1l-1.2,1.5c.4.6.6,1.4.9,2.1l1.9.3c.4,0,.6.4.6.7v3.1c0,.4-.3.7-.6.7l-1.9.3c-.2.7-.5,1.4-.9,2.1l1.2,1.5c.2.3.2.7,0,1l-2.2,2.2c-.3.3-.7.3-1,0l-1.5-1.2c-.6.4-1.4.7-2.1.9l-.3,1.9c0,.4-.4.6-.7.6Z"/>
        <path class="st0" d="M22,32.6c-3.3,0-6.1-2.7-6.1-6.1s2.7-6.1,6.1-6.1,6.1,2.7,6.1,6.1-2.7,6.1-6.1,6.1Z"/>
      </g>
      <path class="st0" d="M33.1,62.4h16.4c.8,0,1.4.6,1.4,1.4h0c0,.8-.6,1.4-1.4,1.4h-16.4c-.8,0-1.4-.6-1.4-1.4h0c0-.8.6-1.4,1.4-1.4Z"/>
      <line class="st0" x1="36.1" y1="62.4" x2="37.4" y2="58.3"/>
      <line class="st0" x1="46.5" y1="62.4" x2="45.2" y2="58.3"/>
      <polyline class="st0" points="56.2 54.7 20.3 54.7 20.3 40.7"/>
      <polyline class="st0" points="35.4 25.7 62.5 25.7 62.5 39"/>
      <path class="st0" d="M65.5,39.1v-14c0-1.6-1.3-2.9-2.9-2.9h-27.2"/>
      <path class="st0" d="M16.9,40.5v14.9c0,1.6,1.3,2.9,2.9,2.9h36.5"/>
      <g>
        <rect class="st0" x="57.9" y="40.3" width="11.9" height="19" rx="1.6" ry="1.6"/>
        <polygon class="st0" points="66.5 41.7 61.2 41.7 60.5 40.3 67.2 40.3 66.5 41.7"/>
        <circle class="st0" cx="63.8" cy="57" r="1.2"/>
        <line class="st0" x1="67.8" y1="44.5" x2="67.8" y2="55.5"/>
      </g>
    </g>
  </g>
</svg>