<?xml version="1.0" encoding="UTF-8"?><svg id="Layer_1" xmlns="http://www.w3.org/2000/svg" viewBox="0 0 80 80"><defs><style>.cls-1{fill:#f36f3e;}.cls-2{opacity:.46;}.cls-3{fill:#fd6f39;}</style></defs><path class="cls-1" d="M26.64,63.36c-.65,0-1.29-.25-1.79-.73L5.16,43.27c-1-.99-1.02-2.61-.03-3.61l30.05-30.66c.57-.58,1.4-.86,2.2-.74l10.31,1.54-.15.99-10.31-1.54c-.49-.07-.99.09-1.34.45L5.84,40.36c-.6.61-.59,1.6.02,2.2l19.69,19.35c.6.58,1.54.6,2.15.02l31.07-29.25c.35-.33.53-.82.48-1.31l-1.84-16.46c-.07-.48-.4-2.16-1.95-3.31-1.35-1-2.81-1-3.38-.95l-.09-1c.68-.06,2.43-.07,4.06,1.14,1.86,1.38,2.27,3.4,2.35,3.99l1.84,16.47c.09.79-.21,1.6-.79,2.14l-31.07,29.25c-.49.46-1.12.7-1.75.7Z"/><path class="cls-1" d="M27.52,74.24c-.61,0-1.21-.22-1.69-.67L5.09,53.96c-.55-.52-.83-1.24-.76-1.98.04-.54.2-1.05.45-1.52.37-.68.95-1.25,1.64-1.61.24-.13.55-.03.67.21.13.25.03.55-.21.67-.3.16-.86.52-1.23,1.2-.19.35-.3.73-.33,1.13-.04.43.13.86.46,1.17l20.73,19.6c.56.53,1.45.53,2.01,0l31.71-30.24c.34-.32.5-.79.44-1.25l-.65-4.75c-.04-.27.15-.53.43-.56.27-.05.53.15.56.43l.65,4.75c.11.78-.17,1.57-.74,2.11l-31.71,30.24c-.47.45-1.09.68-1.7.68Z"/><path class="cls-1" d="M48.39,24.76c-2.79,0-5.07-2.27-5.07-5.07s2.27-5.07,5.07-5.07,5.07,2.27,5.07,5.07-2.27,5.07-5.07,5.07ZM48.39,15.63c-2.24,0-4.07,1.82-4.07,4.07s1.82,4.07,4.07,4.07,4.07-1.82,4.07-4.07-1.82-4.07-4.07-4.07Z"/><path class="cls-1" d="M63.56,29.85c-.21,0-.4-.13-.47-.34-.09-.26.05-.55.31-.63,3.97-1.36,6.8-4.75,7.39-8.86.61-4.27-1.46-8.66-5.15-10.92-3.1-1.89-7.07-2.11-10.35-.56-4.47,2.11-7.11,7.34-6.4,12.73.04.27-.16.53-.43.56-.27.03-.53-.16-.56-.43-.76-5.81,2.1-11.47,6.96-13.76,3.58-1.69,7.91-1.45,11.3.62,4.09,2.5,6.3,7.18,5.62,11.91-.64,4.48-3.73,8.18-8.06,9.66-.05.02-.11.03-.16.03Z"/><path class="cls-3" d="M26.34,30.58c.3,0,.65.08,1.07.26,2.26.93,4.3,2.79,6.17,4.65l.04.04.06.06c1.47,1.52,2.61,2.94,3.49,4.33l.13.2c.66,1.03,1.66,2.59.91,3.55l-.22.28c-.44.57-.9,1.16-1.37,1.73-.4.48-.91.71-1.57.71-.27,0-.57-.04-.88-.12-1.11-.27-1.93-.79-2.45-1.54l-.1-.15q-.48-.69-.98-1.51l-.03-.05c-.47-.78-1.03-1.48-1.6-2.19-.11-.14-.23-.27-.36-.41-.13-.12-.26-.24-.39-.35l-.12-.1c-.65-.54-1.31-1.09-2.08-1.55q-.8-.48-1.44-.96l-.2-.15c-.94-.7-1.34-1.73-1.51-2.48-.25-1.1-.05-1.9.63-2.44.57-.46,1.17-.91,1.75-1.34l.29-.21c.22-.16.47-.24.76-.24M26.34,30.08c-.38,0-.73.1-1.06.34-.69.52-1.38,1.03-2.05,1.57-.87.7-1.09,1.71-.81,2.94.25,1.07.77,2.08,1.7,2.77.88.65.79.6,1.71,1.15.76.45,1.44,1.03,2.12,1.59.13.1.25.21.36.33.11.12.22.24.32.37.55.69,1.1,1.39,1.56,2.14.57.93.52.86,1.12,1.73.66.94,1.67,1.48,2.74,1.74.35.09.69.13,1,.13.78,0,1.44-.28,1.95-.89.55-.66,1.07-1.34,1.6-2.02,1.02-1.31-.3-3.2-1.01-4.32-1.01-1.6-2.24-3.05-3.55-4.41-.02-.02-.04-.04-.05-.06-.02-.02-.04-.04-.06-.05-1.81-1.8-3.95-3.77-6.34-4.75-.44-.18-.86-.29-1.26-.29h0Z"/><path class="cls-3" d="M33.04,36.47l-.93-.95-3.22-.14-.07-2.64-.93-.94.09,3.55-4.13-.18.93.94,3.22.14.07,2.8.93.94-.09-3.7,4.13.18Z"/><path class="cls-3" d="M32.97,39.89c0-.14-.05-.26-.14-.35-.09-.09-.2-.14-.34-.14-.14,0-.25.04-.34.13-.1.09-.15.21-.15.35,0,.14.04.25.13.34.09.1.21.15.35.15.14,0,.26-.05.35-.14.09-.09.14-.2.14-.34ZM33.42,41.78l.15-.15.46.47c.27.28.57.48.89.61.32.13.63.17.94.12.3-.05.57-.18.79-.39s.35-.47.4-.77c.05-.3,0-.61-.11-.93-.12-.32-.32-.62-.6-.9l-1.57-1.59c-.27-.28-.59-.47-.94-.57-.35-.1-.7-.1-1.05,0-.35.09-.67.28-.95.55l-2.34,2.3.63.64,2.35-2.31c.24-.23.51-.35.82-.34.31,0,.58.12.81.36l1.6,1.62c.23.24.38.48.43.73.06.25.01.45-.13.59s-.34.18-.6.13c-.25-.06-.49-.2-.73-.44l-.86-.88c-.12-.12-.25-.18-.41-.18-.15,0-.29.06-.41.17l-.38.37c-.11.11-.15.24-.14.41l.34,2.92,1.01,1.03-.43-3.55Z"/><g class="cls-2"><path class="cls-3" d="M33.42,35.75c-.06-.06-.17-.06-.23,0s-.06.17,0,.23.17.06.23,0,.06-.17,0-.23ZM33.23,35.94s-.04-.11,0-.15.11-.04.15,0,.04.11,0,.15-.11.04-.15,0Z"/></g><g class="cls-2"><path class="cls-3" d="M33.35,35.82s-.06-.02-.09,0-.02.06,0,.09.06.02.09,0,.02-.06,0-.09ZM33.28,35.89s-.02-.04,0-.06.04-.02.06,0,.02.04,0,.06-.04.02-.06,0Z"/></g><g class="cls-2"><path class="cls-3" d="M33.81,36.33s0-.03,0-.05c0-.02-.02-.03-.03-.03-.01,0-.03,0-.05,0-.03.01-.04.05-.03.08,0,0,0,.01.01.02,0,0,.01.01.02.01.01,0,.03,0,.05,0,.01,0,.03-.02.03-.03ZM33.77,36.34s-.02,0-.03,0c0,0-.02-.01-.02-.02,0-.02,0-.04.02-.05,0,0,.02,0,.03,0,0,0,0,0,.01,0,0,0,0,0,0,.01,0,0,0,.02,0,.03,0,0,0,0,0,.01s0,0-.01,0Z"/></g><g class="cls-2"><path class="cls-3" d="M33.86,36.2c-.06-.06-.16-.06-.23,0s-.06.16,0,.23.16.06.23,0,.06-.16,0-.23ZM33.67,36.38s-.04-.11,0-.15.11-.04.15,0,.04.11,0,.15-.11.04-.15,0Z"/></g><g class="cls-2"><path class="cls-3" d="M32.92,35.43s0-.03,0-.05c0-.01-.02-.03-.03-.03-.01,0-.03,0-.05,0-.03.01-.04.05-.03.08,0,0,0,.01.01.02s.01.01.02.01c.01,0,.03,0,.05,0,.01,0,.03-.02.03-.03ZM32.88,35.45s-.02,0-.03,0c0,0-.02-.01-.02-.02,0-.02,0-.04.02-.05,0,0,.02,0,.03,0,0,0,0,0,.01,0,0,0,0,0,0,.01,0,0,0,.02,0,.03,0,0,0,0,0,.01,0,0,0,0-.01,0Z"/></g><g class="cls-2"><path class="cls-3" d="M32.98,35.3c-.06-.06-.16-.06-.23,0s-.06.16,0,.23.16.06.23,0,.06-.16,0-.23ZM32.79,35.49s-.04-.11,0-.15.11-.04.15,0,.04.11,0,.15-.11.04-.15,0Z"/></g><path class="cls-3" d="M24.12,29.45h0v2.7h0c-.35,0-.64-.29-.64-.64v-1.42c0-.35.29-.64.64-.64Z" transform="translate(33.64 -6.86) rotate(52.34)"/><path class="cls-3" d="M38.53,44.1h0v2.7h0c-.35,0-.64-.29-.64-.64v-1.42c0-.35.29-.64.64-.64Z" transform="translate(39.73 104.8) rotate(-141.42)"/><path class="cls-3" d="M36.42,37.5c-.68-.86-1.42-1.69-2.18-2.48-.02-.02-.04-.04-.05-.06-.02-.02-.04-.04-.06-.05-.74-.74-1.54-1.51-2.39-2.22.88-.07,1.45.37,1.97.89l1.86,1.89c.53.53.96,1.13.85,2.03h0Z"/></svg>