<?xml version="1.0" encoding="UTF-8"?><svg id="Layer_1" xmlns="http://www.w3.org/2000/svg" viewBox="0 0 80 80"><defs><style>.cls-1{fill:#fd6f39;}</style></defs><path class="cls-1" d="M39.47,61.42c-9.98,0-18.91-6.77-21.37-16.87-2.88-11.84,4.4-23.81,16.24-26.7,11.84-2.89,23.81,4.4,26.7,16.24.8,3.27.84,6.72.12,9.98l-.1.44-.44-.05c-.46-.05-.94-.07-1.48-.07-2.78,0-5.49.78-7.83,2.24-2.13,1.33-3.91,3.19-5.13,5.39l-.44.87c-.94,1.97-1.42,4.1-1.42,6.32,0,.42.02.82.05,1.23l.03.44-.43.09c-1.51.31-3.01.46-4.49.46ZM39.56,18.22c-1.65,0-3.32.19-4.99.6-11.3,2.75-18.25,14.19-15.5,25.49,2.67,10.93,13.26,17.78,24.26,15.75-.02-.28-.03-.57-.03-.86,0-2.37.51-4.64,1.52-6.77l.46-.89c1.32-2.37,3.21-4.36,5.49-5.77,2.5-1.57,5.4-2.39,8.36-2.39.4,0,.78.01,1.14.04.59-2.98.52-6.11-.21-9.09-2.35-9.63-11-16.1-20.5-16.1Z"/><path class="cls-1" d="M44.9,74.66h-.47c-3.16-.04-6.3-.07-9.46-.11h-.45s-.59-6.38-.59-6.38c-1.72-.57-3.43-1.25-5.09-2.01-1.69-.79-3.34-1.67-4.89-2.62-1.52,1.36-3.04,2.71-4.56,4.06l-.34.3-7.5-7.09,4.05-4.96c-.92-1.37-1.7-2.84-2.31-4.36-.74-1.87-1.23-3.82-1.46-5.81l-6.78-.53.24-10.36.44-.05c1.96-.21,3.93-.42,5.9-.62.2-2.01.71-3.96,1.51-5.79.67-1.54,1.53-2.99,2.57-4.3-1.31-1.55-2.61-3.08-3.93-4.62l-.29-.34,7.03-7.42,5.64,4.19c1.68-1,3.42-1.87,5.18-2.59,1.48-.6,2.98-1.1,4.59-1.53l.39-6.69h.47c3.17-.02,6.35-.04,9.53-.05h.44s.77,6.44.77,6.44c1.58.35,3.16.85,4.68,1.49,1.75.73,3.45,1.66,5.05,2.78l.54-.42c1.46-1.16,2.92-2.31,4.38-3.47l.35-.27,7.18,7-.24.35c-1.15,1.69-2.31,3.38-3.46,5.06l-.22.32c.7,1.1,1.35,2.32,1.96,3.61.86,1.86,1.54,3.77,2.06,5.82,1.12.24,2.25.47,3.38.71l3.47.72-.18,9.81h-.48c-1.12.04-2.24.19-3.33.43-1.17.27-2.32.66-3.42,1.17l-.24.11-.23-.14c-1.88-1.13-3.95-1.82-6.15-2.05-.46-.05-.95-.07-1.48-.07-2.78,0-5.49.78-7.83,2.24-2.13,1.33-3.91,3.19-5.13,5.39l-.44.87c-.94,1.97-1.42,4.1-1.42,6.32,0,.42.02.82.05,1.23.19,2.35.92,4.55,2.16,6.54l.34.54-.6.2c-.28.09-.55.18-.82.26-.17,2.07-.33,4.14-.5,6.22l-.04.47ZM35.43,73.55c2.85.04,5.69.07,8.54.1.16-2.04.32-4.07.49-6.1l.03-.34.33-.1c.17-.05.34-.1.52-.16-1.13-1.98-1.79-4.14-1.98-6.44-.03-.43-.06-.87-.06-1.31,0-2.37.51-4.64,1.52-6.77l.46-.89c1.32-2.37,3.21-4.36,5.49-5.77,2.5-1.57,5.4-2.39,8.36-2.39.58,0,1.09.03,1.59.08,2.26.23,4.39.92,6.33,2.05,1.09-.48,2.22-.86,3.38-1.12,1-.23,2.03-.37,3.05-.43l.14-8.04-2.66-.55c-1.23-.26-2.46-.51-3.69-.77l-.31-.06-.08-.31c-.52-2.11-1.2-4.05-2.07-5.94-.64-1.36-1.33-2.63-2.07-3.77l-.18-.28.59-.87c1.07-1.57,2.15-3.13,3.22-4.71l-5.95-5.8c-1.34,1.07-2.69,2.13-4.04,3.2l-1.12.89-.31-.22c-1.63-1.17-3.37-2.14-5.16-2.89-1.58-.67-3.21-1.17-4.85-1.51l-.35-.07-.75-6.27c-2.87,0-5.75.02-8.61.04l-.38,6.48-.35.09c-1.69.43-3.27.95-4.81,1.58-1.81.74-3.61,1.64-5.33,2.69l-.29.18-5.47-4.06-5.8,6.12c1.31,1.53,2.61,3.06,3.91,4.6l.27.32-.26.32c-1.09,1.33-2,2.81-2.69,4.39-.81,1.86-1.3,3.84-1.46,5.89l-.03.42-.41.04c-1.96.2-3.92.41-5.86.62l-.19,8.54,6.67.52.04.42c.19,2.04.68,4.04,1.44,5.95.63,1.57,1.44,3.08,2.42,4.47l.22.31-3.94,4.82,6.16,5.82c1.5-1.33,2.99-2.66,4.49-4l.28-.25.32.2c1.61,1.01,3.33,1.94,5.1,2.76,1.72.79,3.5,1.49,5.29,2.07l.31.1.57,6.13Z"/><path class="cls-1" d="M39.69,36.19c-3.23,0-5.86-2.86-5.86-6.38s2.63-6.38,5.86-6.38,5.86,2.86,5.86,6.38-2.63,6.38-5.86,6.38ZM39.69,24.42c-2.68,0-4.86,2.41-4.86,5.38s2.18,5.38,4.86,5.38,4.86-2.42,4.86-5.38-2.18-5.38-4.86-5.38Z"/><path class="cls-1" d="M27.42,53.16v-11.52l.13-.14c.94-1.01,5.99-6.01,13.55-5.25,5.48.55,9.03,3.86,10.3,5.25l.13.14v4.84l-.24.15c-2.13,1.32-3.91,3.19-5.13,5.39l-.5.98-18.24.16ZM28.42,42.03v10.12l16.62-.15.23-.46c1.27-2.28,3.08-4.22,5.25-5.62v-3.9c-1.29-1.38-4.56-4.29-9.53-4.79-6.77-.67-11.42,3.59-12.58,4.79Z"/><path class="cls-1" d="M33.7,53.15c-.28,0-.5-.22-.5-.5v-8.77c0-.28.22-.5.5-.5s.5.22.5.5v8.77c0,.28-.22.5-.5.5Z"/><path class="cls-1" d="M45.72,52.27c-.28,0-.5-.22-.5-.5v-7.89c0-.28.22-.5.5-.5s.5.22.5.5v7.89c0,.28-.22.5-.5.5Z"/><path class="cls-1" d="M59.12,75.02c-5.53,0-10.56-2.81-13.46-7.52-1.32-2.12-2.1-4.47-2.31-6.99-.03-.43-.06-.87-.06-1.31,0-2.37.51-4.64,1.52-6.77l.46-.89c1.32-2.37,3.21-4.36,5.49-5.77,2.5-1.57,5.4-2.39,8.36-2.39.58,0,1.09.03,1.59.08,2.34.24,4.55.97,6.56,2.18,4.8,2.9,7.66,7.97,7.66,13.56,0,8.72-7.09,15.81-15.81,15.81ZM59.12,44.38c-2.78,0-5.49.78-7.83,2.24-2.13,1.33-3.91,3.19-5.13,5.39l-.44.87c-.94,1.97-1.42,4.1-1.42,6.32,0,.42.02.82.05,1.23.2,2.35.92,4.55,2.16,6.54,2.72,4.41,7.44,7.04,12.61,7.04,8.17,0,14.81-6.64,14.81-14.81,0-5.24-2.68-9.99-7.18-12.71-1.88-1.13-3.95-1.82-6.15-2.05-.46-.05-.95-.07-1.48-.07Z"/><path class="cls-1" d="M55.18,63.96c-.35,0-.69-.12-.96-.37l-3.98-3.61c-.41-.37-.44-1-.07-1.41.37-.41,1-.44,1.41-.07l3.63,3.29,10.53-8.15c.44-.34,1.06-.26,1.4.18.34.44.26,1.06-.18,1.4l-10.9,8.44c-.26.2-.57.3-.88.3Z"/></svg>