<?xml version="1.0" encoding="UTF-8"?><svg id="Layer_1" xmlns="http://www.w3.org/2000/svg" viewBox="0 0 80 80"><defs><style>.cls-1{fill:#fd6f39;}</style></defs><path class="cls-1" d="M58.44,74.79c-5.76,0-11.01-2.93-14.03-7.83-1.38-2.22-2.19-4.67-2.4-7.28-.01-.12-.02-.25-.02-.37-.03-.3-.04-.64-.04-.99,0-1.28.15-2.55.44-3.79.27-1.14.65-2.24,1.14-3.26l.48-.93c1.38-2.47,3.35-4.54,5.71-6.01,1.44-.9,2.97-1.56,4.56-1.96,1.35-.36,2.75-.54,4.15-.54.23,0,.46,0,.69.02.28.01.65.02.98.06,2.41.24,4.71,1,6.83,2.27,5,3.02,7.98,8.3,7.98,14.14,0,9.08-7.39,16.47-16.48,16.47ZM58.48,42.83c-1.34-.03-2.66.17-3.94.5-1.49.38-2.93,1-4.28,1.84-2.22,1.38-4.07,3.32-5.36,5.63l-.46.9c-.46.95-.82,1.98-1.07,3.05-.28,1.17-.42,2.36-.42,3.56,0,.31,0,.63.04.94,0,.14.01.23.02.33.2,2.46.96,4.76,2.26,6.84,2.84,4.61,7.76,7.35,13.17,7.35,8.54,0,15.48-6.94,15.48-15.47,0-5.48-2.8-10.45-7.5-13.28-1.99-1.19-4.16-1.9-6.43-2.13-.3-.04-.61-.06-.91-.06-.23-.02-.42-.02-.6-.02Z"/><path class="cls-1" d="M43.93,75.46h-8.16c-.71,0-1.3-.51-1.42-1.2l-1.43-8.63c-.03-.18-.16-.32-.33-.35-1.1-.24-2.19-.58-3.23-1.03-.8-.34-1.59-.75-2.35-1.22-.16-.1-.35-.1-.49,0l-7.16,5.05c-.57.41-1.35.34-1.85-.16l-5.62-5.62c-.5-.5-.56-1.29-.15-1.86l5.15-7.09c.1-.14.11-.31.03-.46-.53-.98-1.02-2-1.46-3.02-.38-.9-.74-1.83-1.05-2.76-.05-.16-.18-.27-.34-.29l-8.54-1.44c-.69-.12-1.2-.71-1.2-1.42v-7.89c0-.71.51-1.31,1.21-1.42l8.49-1.35c.17-.03.3-.15.35-.32.29-1,.67-1.99,1.11-2.94.45-.95.97-1.87,1.55-2.74.1-.15.09-.34-.02-.49l-5.36-7.12c-.43-.57-.37-1.39.14-1.89l5.42-5.34c.49-.48,1.25-.55,1.82-.17l7.13,4.83c.13.09.29.1.44.03,1.05-.52,2.13-1,3.22-1.43,1.06-.42,2.15-.79,3.23-1.12.17-.05.28-.19.31-.36l1.18-8.47c.1-.71.71-1.24,1.42-1.24h7.58c.71,0,1.3.51,1.42,1.2l1.42,8.61c.03.19.17.33.36.36.99.16,1.96.44,2.88.83,1,.43,1.95.99,2.8,1.67.15.12.36.12.52,0l7.16-5.33c.58-.43,1.39-.36,1.89.15l5.8,5.96c.5.52.54,1.33.1,1.89l-5.4,6.83c-.11.14-.12.33-.02.49.56.9,1.05,1.86,1.47,2.84.34.81.43,1.35.5,1.77.07.43.11.67.4,1.04.58.73,1.51.88,3.11,1.08,3.08.39,5.35.66,6.97.85l.43.05.28,10.75-7.38.7-.1-1,6.45-.61-.24-8.95c-1.59-.19-3.73-.44-6.55-.8-1.56-.2-2.91-.37-3.77-1.45-.45-.57-.52-1.02-.6-1.5-.06-.39-.14-.84-.43-1.55-.39-.94-.86-1.85-1.4-2.71-.32-.51-.28-1.17.08-1.64l5.4-6.83c.14-.17.12-.42-.03-.58l-5.8-5.96c-.15-.16-.4-.18-.58-.05l-7.16,5.33c-.52.39-1.24.38-1.74-.02-.79-.63-1.66-1.14-2.58-1.53-.84-.36-1.73-.62-2.64-.76-.61-.1-1.09-.57-1.19-1.18l-1.42-8.61c-.04-.21-.22-.37-.43-.37h-7.58c-.22,0-.4.16-.43.38l-1.17,8.47c-.08.55-.47,1.02-1.01,1.18-1.06.32-2.12.68-3.15,1.09-1.06.42-2.12.89-3.14,1.4-.46.23-1.02.19-1.44-.1l-7.13-4.83c-.17-.12-.41-.1-.55.05l-5.42,5.34c-.16.15-.17.4-.04.58l5.36,7.12c.37.49.39,1.15.05,1.65-.55.83-1.05,1.7-1.48,2.61-.42.9-.78,1.84-1.06,2.8-.16.55-.6.94-1.16,1.03l-8.49,1.35c-.21.03-.37.22-.37.43v7.89c0,.21.15.4.37.43l8.54,1.44c.52.09.95.46,1.12.96.31.91.65,1.81,1.03,2.68.43.99.9,1.98,1.42,2.94.26.49.23,1.07-.1,1.52l-5.15,7.09c-.13.18-.11.41.04.57l5.62,5.62c.15.15.39.17.56.05l7.16-5.05c.47-.33,1.1-.35,1.59-.04.71.44,1.46.83,2.22,1.15.98.42,2.01.75,3.04.97.57.12,1,.58,1.1,1.17l1.43,8.63c.04.21.22.37.43.37h8.16c.22,0,.41-.17.43-.38l.58-4.83.99.12-.58,4.83c-.09.72-.7,1.26-1.43,1.26Z"/><path class="cls-1" d="M39.85,55.45c-8.44,0-15.31-6.87-15.31-15.31s6.87-15.31,15.31-15.31,15.31,6.87,15.31,15.31c0,.93-.08,1.85-.26,2.8l-.06.32-.31.08c-1.49.38-2.92,1-4.28,1.84-2.22,1.38-4.07,3.32-5.36,5.63l-.46.9c-.46.95-.82,1.98-1.07,3.05l-.07.31-.31.06c-1.03.21-2.08.32-3.13.32ZM39.85,25.83c-7.89,0-14.31,6.42-14.31,14.31s6.42,14.31,14.31,14.31c.88,0,1.76-.08,2.62-.24.26-1.03.62-2.02,1.07-2.95l.48-.93c1.38-2.47,3.35-4.54,5.71-6.01,1.34-.84,2.77-1.47,4.25-1.88.13-.78.19-1.54.19-2.31,0-7.89-6.42-14.31-14.31-14.31Z"/><path class="cls-1" d="M39.85,59.99c-10.95,0-19.85-8.9-19.85-19.85s8.9-19.85,19.85-19.85,19.86,8.91,19.86,19.85c0,.8-.04,1.56-.13,2.27l-.06.48-.48-.05c-.19-.02-.4-.02-.59-.02-1.32,0-2.63.17-3.9.5-1.49.38-2.93,1-4.28,1.84-2.22,1.38-4.07,3.32-5.36,5.63l-.46.9c-.46.95-.82,1.98-1.07,3.05-.28,1.17-.42,2.36-.42,3.56,0,.31,0,.63.04.94l.04.47-.47.07c-.88.12-1.79.18-2.71.18ZM39.85,21.29c-10.39,0-18.85,8.46-18.85,18.85s8.46,18.85,18.85,18.85c.71,0,1.42-.04,2.11-.12,0-.18-.01-.37-.01-.55,0-1.28.15-2.55.44-3.79.27-1.14.65-2.24,1.14-3.26l.48-.93c1.38-2.47,3.35-4.54,5.71-6.01,1.44-.9,2.97-1.56,4.56-1.96,1.41-.37,2.84-.56,4.35-.54.05-.54.08-1.1.08-1.69,0-10.39-8.46-18.85-18.86-18.85Z"/><path class="cls-1" d="M35.3,43.37c-.17,0-.33-.09-.43-.24-.14-.24-.07-.54.17-.69l4.31-2.58v-6.14c0-.28.22-.5.5-.5s.5.22.5.5v6.7l-4.79,2.87c-.08.05-.17.07-.26.07Z"/><path class="cls-1" d="M29.76,40.64h-2.92c-.28,0-.5-.22-.5-.5s.22-.5.5-.5h2.92c.28,0,.5.22.5.5s-.22.5-.5.5Z"/><path class="cls-1" d="M52.65,40.77h-2.9c-.28,0-.5-.22-.5-.5s.22-.5.5-.5h2.9c.28,0,.5.22.5.5s-.22.5-.5.5Z"/><path class="cls-1" d="M47.01,33.56c-.12,0-.24-.04-.34-.13-.2-.19-.22-.5-.03-.71l1.73-1.87c.19-.2.5-.22.71-.03.2.19.22.5.03.71l-1.73,1.87c-.1.11-.23.16-.37.16Z"/><path class="cls-1" d="M31.03,49.54c-.12,0-.24-.04-.34-.13-.2-.19-.22-.5-.03-.71l1.78-1.92c.19-.2.5-.22.71-.03.2.19.22.5.03.71l-1.78,1.92c-.1.11-.23.16-.37.16Z"/><path class="cls-1" d="M39.86,53.04c-.28,0-.5-.22-.5-.5v-2.45c0-.28.22-.5.5-.5s.5.22.5.5v2.45c0,.28-.22.5-.5.5Z"/><path class="cls-1" d="M39.72,30.77c-.28,0-.5-.22-.5-.5v-2.78c0-.28.22-.5.5-.5s.5.22.5.5v2.78c0,.28-.22.5-.5.5Z"/><path class="cls-1" d="M32.85,33.51c-.12,0-.23-.04-.33-.12l-1.94-1.7c-.21-.18-.23-.5-.05-.71.18-.21.5-.23.71-.05l1.94,1.7c.21.18.23.5.05.71-.1.11-.24.17-.38.17Z"/><path class="cls-1" d="M55.15,66.75l-6.55-6.55c-.39-.39-.39-1.02,0-1.41s1.02-.39,1.41,0l5.13,5.13,10.33-10.33c.39-.39,1.02-.39,1.41,0s.39,1.02,0,1.41l-11.74,11.74Z"/></svg>