<?xml version="1.0" encoding="UTF-8"?><svg id="Layer_1" xmlns="http://www.w3.org/2000/svg" viewBox="0 0 80 80"><defs><style>.cls-1{fill:#fd6f39;}</style></defs><path class="cls-1" d="M53.44,63.89H10.2c-2.27,0-4.12-1.85-4.12-4.12V15.3c0-2.27,1.85-4.12,4.12-4.12h8.84c.28,0,.5.22.5.5s-.22.5-.5.5h-8.84c-1.72,0-3.12,1.4-3.12,3.12v44.47c0,1.72,1.4,3.12,3.12,3.12h43.24c.28,0,.5.22.5.5s-.22.5-.5.5Z"/><path class="cls-1" d="M53.44,54.96H10.32c-.28,0-.5-.22-.5-.5s.22-.5.5-.5h43.12c.28,0,.5.22.5.5s-.22.5-.5.5Z"/><path class="cls-1" d="M19.47,54.3c-.28,0-.5-.22-.5-.5V7.24c0-.69.56-1.25,1.25-1.25h40.3c.69,0,1.25.56,1.25,1.25v11.38c0,.28-.22.5-.5.5s-.5-.22-.5-.5V7.24c0-.14-.11-.25-.25-.25H20.22c-.14,0-.25.11-.25.25v46.56c0,.28-.22.5-.5.5Z"/><path class="cls-1" d="M71.99,63.93h-.04l-3.08-.04c-.28,0-.5-.23-.49-.51,0-.28.2-.5.51-.49l3.08.04h.02c.48,0,.93-.19,1.28-.53.35-.34.54-.8.54-1.29l-.13-47.42c0-.84-.69-1.52-1.53-1.52h-10.88c-.28,0-.5-.22-.5-.5s.22-.5.5-.5h10.88c1.39,0,2.52,1.13,2.53,2.52l.13,47.41c0,.76-.29,1.47-.83,2.01-.53.53-1.23.81-1.98.81Z"/><path class="cls-1" d="M33.57,74.46c-.28,0-.5-.22-.5-.5v-10.51c0-.28.22-.5.5-.5s.5.22.5.5v10.51c0,.28-.22.5-.5.5Z"/><path class="cls-1" d="M47.3,74.68c-.28,0-.5-.22-.5-.5v-10.51c0-.28.22-.5.5-.5s.5.22.5.5v10.51c0,.28-.22.5-.5.5Z"/><path class="cls-1" d="M54.57,74.68H21.05c-.28,0-.5-.22-.5-.5s.22-.5.5-.5h33.52c.28,0,.5.22.5.5s-.22.5-.5.5Z"/><path class="cls-1" d="M43.07,54.96c-.28,0-.5-.22-.5-.5v-9.2c0-.24-.19-.43-.43-.43h-15.79c-.24,0-.43.19-.43.43v9.2c0,.28-.22.5-.5.5s-.5-.22-.5-.5v-9.2c0-.79.64-1.43,1.43-1.43h15.79c.79,0,1.43.64,1.43,1.43v9.2c0,.28-.22.5-.5.5Z"/><path class="cls-1" d="M43.69,40.2h-19.19c-.28,0-.5-.22-.5-.5s.22-.5.5-.5h19.19c.28,0,.5.22.5.5s-.22.5-.5.5Z"/><path class="cls-1" d="M43.69,35.79h-19.19c-.28,0-.5-.22-.5-.5s.22-.5.5-.5h19.19c.28,0,.5.22.5.5s-.22.5-.5.5Z"/><path class="cls-1" d="M43.47,31.38h-19.19c-.28,0-.5-.22-.5-.5s.22-.5.5-.5h19.19c.28,0,.5.22.5.5s-.22.5-.5.5Z"/><path class="cls-1" d="M53.78,31.38h-6.49c-.28,0-.5-.22-.5-.5s.22-.5.5-.5h6.49c.28,0,.5.22.5.5s-.22.5-.5.5Z"/><path class="cls-1" d="M53.78,35.79h-6.49c-.28,0-.5-.22-.5-.5s.22-.5.5-.5h6.49c.28,0,.5.22.5.5s-.22.5-.5.5Z"/><path class="cls-1" d="M53.78,40.2h-6.49c-.28,0-.5-.22-.5-.5s.22-.5.5-.5h6.49c.28,0,.5.22.5.5s-.22.5-.5.5Z"/><path class="cls-1" d="M55.71,25.26h-30.75c-.28,0-.5-.22-.5-.5s.22-.5.5-.5h30.75c.28,0,.5.22.5.5s-.22.5-.5.5Z"/><path class="cls-1" d="M55.19,21.47h-29.24c-.56,0-1.02-.46-1.02-1.02v-7.67c0-.56.46-1.02,1.02-1.02h29.24c.56,0,1.02.46,1.02,1.02v7.67c0,.56-.46,1.02-1.02,1.02ZM25.95,12.76l-.02,7.69,29.27.02s.02-.01.02-.02v-7.67l-29.27-.02Z"/><path class="cls-1" d="M61.36,74.68c-2.32,0-4.33-1.79-4.62-4.16v-.06s0-38.15,0-38.15l.03-.1,4.09-10.44.41-.05c.25.03.45.14.54.36l4.17,10.32v38.07c-.27,2.33-2.17,4.11-4.41,4.21-.07,0-.13,0-.2,0ZM57.74,70.43c.25,1.9,1.9,3.36,3.78,3.24,1.76-.08,3.24-1.48,3.46-3.27v-37.92s-3.7-9.04-3.7-9.04l-3.54,9.04v37.96ZM61.66,22.45h0s0,0,0,0Z"/><path class="cls-1" d="M65.47,32.89h-8.23c-.28,0-.5-.22-.5-.5s.22-.5.5-.5h8.23c.28,0,.5.22.5.5s-.22.5-.5.5Z"/><path class="cls-1" d="M65.38,66.67h-8.14c-.28,0-.5-.22-.5-.5s.22-.5.5-.5h8.14c.28,0,.5.22.5.5s-.22.5-.5.5Z"/></svg>