<?xml version="1.0" encoding="UTF-8"?><svg id="Layer_1" xmlns="http://www.w3.org/2000/svg" viewBox="0 0 80 80"><defs><style>.cls-1{fill:#fd6f39;}</style></defs><path class="cls-1" d="M32.57,34.05c-6.37,0-11.55-5.18-11.55-11.55s5.18-11.55,11.55-11.55,11.55,5.18,11.55,11.55-5.18,11.55-11.55,11.55ZM32.57,11.94c-5.82,0-10.55,4.73-10.55,10.55s4.73,10.55,10.55,10.55,10.55-4.73,10.55-10.55-4.73-10.55-10.55-10.55Z"/><path class="cls-1" d="M31.56,42.2l-6.29-1.63.76-3.76c-.66-.3-1.3-.64-1.92-1.03-1.05-.65-2.02-1.43-2.9-2.3l-3.09,2.14-3.66-5.65,3.2-1.87c-.29-.9-.52-1.83-.68-2.77-.19-1.06-.29-2.14-.31-3.22l-3.66-.82,1.5-6.46,3.62.88c.53-.96,1.13-1.88,1.78-2.76.58-.78,1.2-1.53,1.86-2.24l-1.89-3.26,5.32-3.51,2.17,3.38c.99-.31,2.01-.54,3.04-.68.92-.12,1.85-.17,2.78-.15l1.13-3.88,6.36,1.76-1.02,3.47c.83.41,1.62.89,2.35,1.44.83.61,1.59,1.3,2.29,2.07l3.39-2.08,3.54,5.52-3.4,2.1c.35.9.61,1.84.77,2.79.17.99.22,1.99.17,3l3.82,1.24-1.62,6.16-3.69-1.05c-.31.85-.71,1.66-1.19,2.42-.6.96-1.33,1.83-2.16,2.6l2.09,2.97-5.58,3.73-2.15-3.43c-.73.34-1.5.6-2.29.77-1.16.26-2.35.33-3.53.22l-.91,3.88ZM26.44,39.84l4.38,1.14.88-3.76.45.06c1.22.16,2.44.11,3.63-.16.85-.19,1.68-.49,2.47-.89l.41-.21,2.09,3.33,3.87-2.59-2.02-2.87.34-.3c.9-.77,1.68-1.67,2.31-2.68.52-.83.94-1.72,1.24-2.65l.15-.46,3.62,1.04,1.12-4.26-3.66-1.19.03-.39c.08-1.05.04-2.11-.13-3.15-.17-1.02-.46-2.01-.87-2.96l-.17-.4,3.26-2.01-2.46-3.84-3.27,2.01-.28-.32c-.72-.83-1.53-1.59-2.41-2.24-.8-.59-1.67-1.1-2.57-1.52l-.39-.18.97-3.32-4.43-1.23-1.08,3.68-.39-.02c-1-.04-2,0-2.99.13-1.09.15-2.18.4-3.22.75l-.37.12-2.04-3.18-3.69,2.43,1.79,3.09-.26.27c-.73.76-1.41,1.57-2.04,2.41-.7.94-1.34,1.95-1.89,2.98l-.18.34-3.38-.83-1.04,4.49,3.45.78v.4c0,1.16.1,2.32.29,3.45.18,1.02.44,2.03.77,3.01l.13.39-3,1.75,2.53,3.91,2.94-2.04.29.31c.9.94,1.91,1.76,3.01,2.45.68.43,1.41.8,2.15,1.12l.38.16-.73,3.62Z"/><path class="cls-1" d="M56.44,45.7c-3.19,0-5.79-2.6-5.79-5.79s2.6-5.79,5.79-5.79,5.79,2.6,5.79,5.79-2.6,5.79-5.79,5.79ZM56.44,35.13c-2.64,0-4.79,2.15-4.79,4.79s2.15,4.79,4.79,4.79,4.79-2.15,4.79-4.79-2.15-4.79-4.79-4.79Z"/><path class="cls-1" d="M56.46,50.24l-.41-1.96c-.32-.01-.63-.05-.95-.09-.58-.09-1.15-.24-1.7-.44l-1.06,1.68-3.29-2.21,1.17-1.58c-.28-.33-.54-.68-.77-1.05-.27-.42-.52-.86-.73-1.32l-1.95.36-.68-3.84,1.95-.32c.06-.51.15-1.01.27-1.51.1-.43.23-.87.38-1.29l-1.59-1.19,2.07-3.12,1.76,1.19c.38-.31.78-.59,1.19-.84.37-.22.75-.41,1.14-.58l-.25-2.11,3.84-.52.22,1.89c.42.03.83.1,1.24.2.46.11.92.26,1.36.45l1.2-1.7,3.18,2.17-1.21,1.71c.3.33.58.68.82,1.05.25.4.47.82.64,1.25l2.1-.19.54,3.71-1.98.25c0,.41-.02.81-.09,1.21-.08.52-.23,1.04-.43,1.53l1.62,1-2.16,3.31-1.74-1.21c-.25.26-.53.49-.82.7-.46.33-.96.59-1.49.78l.36,2.06-3.77.56ZM56.87,47.28l.38,1.83,1.82-.27-.33-1.92.43-.12c.58-.16,1.12-.42,1.61-.77.35-.25.67-.54.94-.87l.29-.35,1.63,1.13,1.04-1.59-1.51-.93.2-.41c.26-.53.44-1.08.53-1.66.08-.47.09-.96.05-1.44l-.04-.48,1.91-.24-.26-1.77-1.93.17-.12-.38c-.16-.49-.39-.96-.67-1.4-.27-.43-.6-.82-.97-1.18l-.31-.3,1.11-1.58-1.53-1.04-1.12,1.58-.38-.19c-.49-.24-1-.43-1.54-.55-.48-.11-.98-.18-1.47-.19h-.43s-.21-1.74-.21-1.74l-1.86.25.23,1.9-.37.14c-.46.18-.92.39-1.35.65-.47.28-.92.61-1.33.98l-.29.26-1.56-1.06-.99,1.49,1.43,1.07-.13.35c-.19.49-.34,1-.47,1.52-.14.58-.24,1.17-.29,1.75l-.04.39-1.71.28.33,1.85,1.74-.32.16.37c.23.54.5,1.05.81,1.53.28.43.6.85.95,1.23l.27.3-1.03,1.39,1.56,1.05.96-1.52.39.17c.59.25,1.22.43,1.86.53.39.06.79.09,1.18.09h.43Z"/><path class="cls-1" d="M22.33,77.26h-.28c-.53-.06-1.87-.31-2.91-1.47-1.31-1.45-1.18-3.21-1.1-3.71l.02-.17.14-.15,16.18-16.37c-.49-1.22-1.93-5.58.62-9.74,2.06-3.36,6-5.3,10.03-4.95l.32.03.17.35c.08.21.02.45-.14.6l-5.12,4.95c-.2.2-.27.49-.17.76l1.92,5.22c.05.14.16.25.29.3l4.97,1.96c.26.1.56.04.76-.16l5.56-5.52.37.09c.21.08.35.27.37.49.1,1.26.14,5.61-3.23,8.83-3.01,2.87-7.56,3.69-11.64,2.11l-17.13,16.54ZM19.01,72.36c-.04.46-.06,1.73.87,2.76.7.78,1.57,1.03,2.06,1.11l17.25-16.66.37.11c3.79,1.56,8.05.86,10.84-1.81,2.45-2.34,2.91-5.35,2.95-7.04l-4.62,4.59c-.48.48-1.2.63-1.84.38l-4.97-1.96c-.4-.16-.72-.48-.87-.89l-1.92-5.22c-.23-.64-.07-1.35.42-1.82l4.4-4.25c-3.3.04-6.41,1.74-8.11,4.51-2.56,4.17-.67,8.59-.44,9.08l.14.31-.26.32-16.28,16.48ZM54.06,50.13h0s0,0,0,0Z"/></svg>