<?xml version="1.0" encoding="UTF-8"?><svg id="Layer_1" xmlns="http://www.w3.org/2000/svg" viewBox="0 0 80 80"><defs><style>.cls-1{fill:#fd6f39;}</style></defs><path class="cls-1" d="M58.9,13.99H14.2c-1.87,0-3.39,1.52-3.39,3.39v26.22c0,1.18.6,2.22,1.51,2.82.54.36,1.18.57,1.88.57h34.64l.68-.13-.18-.46h0s-.08-.22-.08-.22c-.12-.34-.18-.69-.19-1.05-.01-.34.03-.69.11-1.04.04-.18.09-.36.17-.54.01-.07.04-.14.07-.21l.08-.17-.19-.53c-.03-.08-.06-.17-.09-.27-.05-.15-.11-.32-.18-.51l-.06-.19c-.52-1.49-.63-1.82-.56-2.17.05-.21.15-.54.51-.91l.18-.18-.05-.26s-.38-2.09,1.09-3.46c.76-.7,1.65-.87,2-.91l.16-.02.11-.1c.1-.09,2.37-2.07,5.18-1.28,1.5.42,2.43,1.43,2.89,2.06.06.36.21.95.59,1.59.01.02.02.03.03.05.06.09.12.19.18.27l.11.14.88,1.18h0s0-20.29,0-20.29c0-1.87-1.52-3.39-3.39-3.39ZM61.29,33.85c-.08-.11-.17-.24-.29-.37-.07-.08-.14-.16-.22-.25-.11-.11-.22-.23-.34-.34-.12-.12-.25-.23-.4-.35-.14-.11-.29-.22-.45-.33-.48-.33-1.05-.61-1.72-.8-2.98-.83-5.42.94-5.99,1.4-.52.08-1.53.34-2.41,1.15-1.52,1.42-1.49,3.41-1.42,4.12-.31.36-.51.76-.61,1.22-.12.64.03,1.08.59,2.7l.07.19c.1.3.2.57.27.78l.06.16c-.13.33-.22.67-.28,1.01-.11.62-.1,1.25.02,1.85H14.2c-1.32,0-2.39-1.07-2.39-2.39v-26.22c0-1.31,1.07-2.39,2.39-2.39h44.7c1.32,0,2.39,1.08,2.39,2.39v16.47Z"/><path class="cls-1" d="M30,29.28h-13.21c-1.06,0-1.92-.86-1.92-1.92v-5.72c0-1.06.86-1.92,1.92-1.92h13.21c1.06,0,1.92.86,1.92,1.92v5.72c0,1.06-.86,1.92-1.92,1.92ZM16.79,20.72c-.51,0-.92.41-.92.92v5.72c0,.51.41.92.92.92h13.21c.51,0,.92-.41.92-.92v-5.72c0-.51-.41-.92-.92-.92h-13.21Z"/><path class="cls-1" d="M30,41.46h-13.21c-1.06,0-1.92-.86-1.92-1.92v-5.72c0-1.06.86-1.92,1.92-1.92h13.21c1.06,0,1.92.86,1.92,1.92v5.72c0,1.06-.86,1.92-1.92,1.92ZM16.79,32.9c-.51,0-.92.41-.92.92v5.72c0,.51.41.92.92.92h13.21c.51,0,.92-.41.92-.92v-5.72c0-.51-.41-.92-.92-.92h-13.21Z"/><path class="cls-1" d="M36.98,29.76c-.17,0-.34-.05-.48-.16-.26-.2-.37-.53-.28-.84l1.12-3.94c.02-.08,0-.18-.07-.23l-2.88-2.49c-.24-.2-.33-.51-.24-.81.09-.3.33-.51.64-.56l3.96-.61c.08-.01.15-.07.18-.14l1.45-3.78c.12-.3.4-.5.72-.5.35,0,.61.18.74.48l1.58,3.82c.03.08.11.13.19.14h0l4.15.33c.32.03.59.24.69.54.1.3,0,.63-.24.84l-3.13,2.67c-.06.05-.09.14-.08.22l.78,4c.06.3-.07.62-.32.79-.25.18-.59.19-.86.03l-3.39-2.05c-.07-.04-.16-.04-.23,0l-3.58,2.14c-.13.08-.27.11-.4.11ZM35.4,21.64l2.53,2.18c.36.31.51.81.38,1.27l-.98,3.43,3.12-1.87c.39-.23.88-.23,1.26,0l2.98,1.8-.68-3.53c-.08-.43.07-.88.41-1.17l2.74-2.33-3.64-.29c-.46-.04-.86-.33-1.04-.75l-1.37-3.32-1.26,3.28c-.16.41-.52.71-.96.77l-3.5.54Z"/><path class="cls-1" d="M51.67,29.76c-.17,0-.34-.06-.48-.16-.26-.2-.37-.53-.28-.84l1.12-3.94c.02-.08,0-.18-.07-.23l-2.88-2.49c-.23-.2-.33-.51-.24-.81.09-.3.33-.51.64-.56l3.96-.61c.08-.01.15-.07.18-.14l1.45-3.78c.12-.3.4-.5.72-.5.32.01.61.19.74.49l1.58,3.81c.03.08.11.13.19.14h0l4.15.33c.32.03.59.24.69.54.1.3,0,.63-.24.84l-3.13,2.67c-.06.05-.09.13-.08.21l.77,4c.06.3-.07.62-.32.79-.25.18-.59.19-.86.03l-3.39-2.05c-.07-.04-.16-.04-.23,0l-3.58,2.14c-.13.08-.27.11-.41.11ZM59.48,28.92s0,0,0,0h0ZM50.09,21.64l2.53,2.18c.36.31.51.81.38,1.26l-.98,3.43,3.12-1.87c.39-.23.88-.23,1.26,0l2.98,1.8-.68-3.53c-.08-.43.07-.88.41-1.17l2.74-2.33-3.64-.29c-.46-.04-.86-.33-1.04-.75l-1.37-3.32-1.26,3.28c-.16.41-.52.71-.96.77l-3.5.54Z"/><path class="cls-1" d="M66.43,29.76c-.17,0-.34-.05-.48-.16-.26-.2-.37-.53-.28-.84l1.12-3.94c.02-.08,0-.18-.07-.23l-2.88-2.49c-.24-.2-.33-.51-.24-.81.09-.3.33-.51.64-.56l3.96-.61c.08-.01.15-.07.18-.14l1.45-3.78c.12-.3.4-.5.72-.5.33.03.61.19.74.49l1.58,3.81c.03.08.11.13.19.14h0l4.15.33c.32.03.59.24.69.54.1.3,0,.63-.24.84l-3.13,2.67c-.06.05-.09.13-.08.21l.78,4c.06.31-.07.62-.32.79s-.59.19-.86.03l-3.39-2.05c-.07-.04-.16-.04-.23,0l-3.58,2.14c-.13.08-.27.11-.4.11ZM64.85,21.64l2.53,2.18c.36.31.51.81.38,1.27l-.98,3.43,3.12-1.87c.39-.23.88-.23,1.26,0l2.98,1.8-.68-3.53c-.08-.43.07-.88.41-1.17l2.74-2.33-3.64-.29c-.46-.04-.86-.33-1.04-.75l-1.37-3.32-1.26,3.28c-.16.41-.52.71-.96.77l-3.5.54Z"/><path class="cls-1" d="M47.3,32.9h-11.05c-.28,0-.5-.22-.5-.5s.22-.5.5-.5h11.05c.28,0,.5.22.5.5s-.22.5-.5.5Z"/><path class="cls-1" d="M43.42,37.18h-6.68c-.28,0-.5-.22-.5-.5s.22-.5.5-.5h6.68c.28,0,.5.22.5.5s-.22.5-.5.5Z"/><path class="cls-1" d="M42.08,41.46h-5.52c-.28,0-.5-.22-.5-.5s.22-.5.5-.5h5.52c.28,0,.5.22.5.5s-.22.5-.5.5Z"/><path class="cls-1" d="M71.5,60.76l-.14-.08c-.48-.19-.96-.38-1.44-.58l-.24-.09-1.42-.57-1.72-.69c-1.07-.43-2.13-.86-3.28-1.32-.44-.09-1.25-.34-1.93-1-.08-.08-.16-.16-.24-.25-.22-.25-.38-.52-.51-.78-.44-.91-.42-1.82-.37-2.25,0,0,0-.01,0-.01.07-.08.13-.17.2-.26l.12-.18c.25-.35.46-.71.63-1.09.12-.25.23-.5.32-.76.25-.73.36-1.41.4-1.93.01-.08.01-.15.02-.22v-.04c.16-.21.35-.47.55-.76.16-.24.33-.49.49-.76.67-1.13,1.17-2.44.56-3.23-.01-.03-.04-.06-.06-.08l-.02-.02c-.12-.13-.27-.23-.45-.29-.08-.04-.16-.06-.25-.08-.12-.03-.24-.04-.37-.05h-.09s.01-2.83.01-2.83c-.17-.87-.34-1.37-.82-1.67-.05-.04-.11-.07-.17-.08v1.85s-.02,3.83-.02,3.83l.57-.08c.15-.02.28-.03.39-.03h.09s.06,0,.09.01c.06.01.1.02.14.03.04,0,.08.02.1.04.03.02.05.03.07.05.24.31-.12,1.67-1.69,3.65h-.01s-.1.14-.1.14h0v.18c-.01.47-.08,1.21-.36,2.04-.13.37-.29.72-.48,1.06-.07.12-.14.23-.21.35-.09.13-.18.26-.27.39h-.01s-.01.02-.02.04c-.04.06-.08.11-.12.16-.05.06-.1.12-.17.2l-.02.14c-.03.23-.08.69-.02,1.28.07.79.35,1.79,1.11,2.69.93,1.08,2.11,1.46,2.64,1.56,1.06.43,2.13.86,3.19,1.29l3.38,1.35c.46.19.92.37,1.38.55,1.54,1.3,2.06,2.58,1.77,3.13h-.01c-.03.08-.1.18-.26.29-1.01-.02-2.02-.03-3.03-.04h-.39l-30.15-.33c.04-.26.11-.54.23-.84.05-.12.1-.24.17-.37.07-.14.15-.29.25-.43.13-.2.28-.37.44-.53.06-.07.12-.13.18-.18.23-.21.46-.37.68-.5.18-.1.35-.18.5-.25.18-.07.33-.13.45-.16.29-.12.57-.24.86-.36,2.52-1.05,5.05-2.1,7.6-3.17.43-.21,1.49-.86,2.04-2.18.23-.54.32-1.04.33-1.48.03-.59-.07-1.06-.14-1.3l-.05-.12c-.15-.26-.29-.52-.42-.79-.22-.42-.4-.85-.56-1.28-.27-.73-.47-1.49-.58-2.27l-.04-.2-.16-.13c-.34-.25-.95-.8-1.29-1.69h0s-.08-.22-.08-.22c-.12-.34-.18-.69-.19-1.05-.01-.34.03-.69.11-1.04.04-.18.09-.36.17-.54.01-.07.04-.14.07-.21l.08-.17-.19-.53c-.03-.08-.06-.17-.09-.27-.05-.15-.11-.32-.18-.51l-.06-.19c-.52-1.49-.63-1.82-.56-2.17.05-.21.15-.54.51-.91l.18-.18-.05-.26s-.38-2.09,1.09-3.46c.76-.7,1.65-.87,2-.91l.16-.02.11-.1c.1-.09,2.37-2.07,5.18-1.28,1.5.42,2.43,1.43,2.89,2.06.06.36.21.95.59,1.59.01.02.02.03.03.05.06.09.12.19.18.27l.11.14.88,1.18v-1.65s-.06-.09-.06-.09l-.03-.05s-.08-.11-.13-.17c-.04-.06-.08-.13-.12-.19-.34-.57-.45-1.09-.48-1.35l-.02-.11-.07-.1s-.05-.07-.08-.11c-.08-.11-.17-.24-.29-.37-.07-.08-.14-.16-.22-.25-.11-.11-.22-.23-.34-.34-.12-.12-.25-.23-.4-.35-.14-.11-.29-.22-.45-.33-.48-.33-1.05-.61-1.72-.8-2.98-.83-5.42.94-5.99,1.4-.52.08-1.53.34-2.41,1.15-1.52,1.42-1.49,3.41-1.42,4.12-.31.36-.51.76-.61,1.22-.12.64.03,1.08.59,2.7l.07.19c.1.3.2.57.27.78l.06.16c-.13.33-.22.67-.28,1.01-.11.64-.1,1.29.06,1.93.02.15.06.3.11.45h.02s.03.24.03.24l.07.08s.04.1.07.15c.03.07.06.13.09.19.05.11.11.21.17.31.03.06.07.13.12.19.04.07.09.14.14.2.04.06.08.11.12.16.06.08.12.15.19.22.14.16.28.29.41.41.04.03.08.07.12.1.05.3.11.6.19.9.11.46.25.91.41,1.36.16.45.35.9.57,1.33.02.04.04.08.06.12.12.25.26.49.4.73.09.36.21,1.16-.17,2.06-.03.07-.06.15-.1.21-.22.43-.5.75-.76.99-.28.24-.54.39-.68.46-1.4.59-2.8,1.17-4.2,1.75-1.11.46-2.22.93-3.31,1.38-.29.12-.58.24-.86.36-.02,0-.04,0-.06.02-.06.02-.13.04-.21.08-.1.03-.2.07-.31.12-.11.05-.23.1-.34.16-.16.08-.32.18-.48.29-.09.05-.18.12-.26.19-.38.29-.76.66-1.09,1.15-.07.1-.14.21-.19.31h-.01c-.05.1-.11.2-.15.3-.04.07-.07.13-.1.2-.03.08-.06.16-.09.24-.04.09-.07.17-.09.26,0,.02-.02.05-.02.08-.04.11-.07.21-.09.32-.06.25-.09.48-.1.69,0,.06-.02.11-.03.17-.01.03-.01.07-.01.1l-.02.52,31.06.33h.56c1.05.02,2.1.03,3.15.05h.13s.12-.06.12-.06c.37-.2.63-.45.79-.77.58-1.12-.25-2.9-2.08-4.41ZM48.42,46.49l.39-.08-.13.08h-.26Z"/><path class="cls-1" d="M20.82,66.01c-5.48,0-10.96,0-16.44,0-.49,0-1.45-.24-1.98-1.12-.42-.7-.44-1.55-.05-2.28l8.02-14.97c.4-.75,1.17-1.21,2.01-1.21l36.83-.36.12.33c.34.9.96,1.46,1.29,1.71l.17.12.03.2c.12.78.31,1.54.58,2.27.26.71.59,1.41.98,2.07l.05.12c.12.42.34,1.54-.19,2.78-.55,1.32-1.62,1.97-2.05,2.18-2.83,1.18-5.64,2.36-8.45,3.53-.47.14-1.53.55-2.26,1.63-.49.72-.64,1.45-.68,1.99l30.18-.02h0v1c-10.89.03-21.79.04-32.68.05-5.17,0-10.33,0-15.5,0ZM48.54,47.07l-36.16.36c-.48,0-.91.26-1.13.69l-8.02,14.97c-.22.41-.21.89.03,1.29.37.62,1.09.64,1.13.64,10.64.01,21.29,0,31.93,0,.5,0,1,0,1.5,0,.04-.67.22-1.63.86-2.57.88-1.3,2.1-1.82,2.75-2.01,2.76-1.15,5.57-2.32,8.37-3.49.3-.15,1.12-.65,1.54-1.66.38-.9.26-1.7.17-2.06-.41-.7-.76-1.43-1.03-2.17-.27-.73-.47-1.49-.6-2.27-.39-.32-.94-.87-1.33-1.7Z"/><path class="cls-1" d="M70.4,61.36l-4.24-1.69c-1.07-.43-2.13-.86-3.19-1.29-.53-.1-1.71-.48-2.64-1.56-1.33-1.56-1.17-3.43-1.09-3.97l.02-.14.09-.11c.52-.63.92-1.34,1.19-2.1.28-.83.35-1.57.36-2.04v-.22s.17-.15.17-.15c.39-.35.71-.72.95-1.09l.39-.62.43.59c.04.06.1.13.14.23l2.08,3.97c1.57,2.99,3.14,5.99,4.71,8.97l.63,1.19ZM60.21,53.14c-.06.55-.08,1.91.88,3.04.73.85,1.67,1.15,2.17,1.25,1.15.46,2.21.88,3.27,1.31l1.73.7c-1.36-2.59-2.72-5.18-4.08-7.78l-1.81-3.45c-.15.17-.31.34-.48.5-.03.54-.12,1.3-.41,2.13-.29.83-.72,1.6-1.27,2.29Z"/><path class="cls-1" d="M51.16,56.47h0l-39.94-.14c-.32,0-.62-.17-.79-.44-.17-.28-.19-.61-.05-.91l2.71-5.54c.24-.49.72-.79,1.26-.79h35.73c.28,0,.5.22.5.5s-.22.5-.5.5H14.35c-.16,0-.3.09-.37.23l-2.66,5.44,39.83.14c.28,0,.5.23.5.5,0,.28-.22.5-.5.5Z"/><path class="cls-1" d="M62.57,47.98l-.83-.56.28-.41c.36-.52.52-.97.6-1.26.1-.35.3-.99.08-1.22-.07-.07-.22-.12-.41-.13l-.5-.02.05-1,.5.02c.45.02.83.17,1.09.44.61.65.32,1.62.15,2.2-.11.36-.3.91-.74,1.54l-.28.41Z"/><path class="cls-1" d="M55.88,55.34c-.07,0-.14,0-.21,0-2.77-.11-4.22-2.3-4.38-2.55l-.27-.42.85-.53.27.42c.05.08,1.27,1.99,3.57,2.08,2.44.12,3.84-1.98,3.86-2l.27-.42.84.55-.27.42c-.07.1-1.65,2.46-4.53,2.46Z"/><path class="cls-1" d="M62.14,43.09l-.24-1.75c-.03-.21-.07-.43-.11-.64l-.02-.07v-.07c-.15-.75-.29-1.06-.58-1.25l-.13-.06c-.27-.14-.54-.13-.69-.11-.42-.02-.76,0-1.1.06-.61.08-1.21.28-1.77.58-.56.23-1.08.33-1.64.33-.78-.01-1.3-.19-1.63-.32l-2.58-.92c-.13-.01-.77-.01-1.27.43-.62.53-.6,1.29-.57,1.6v.07s0,.07,0,.07c-.03.2-.06.42-.08.66,0,.15-.01.3-.01.43v.43s-.57.09-.57.09l-.21-.07c-.25-.1-.4-.36-.4-.66l-.03-.1c-.54-1.55-.67-1.93-.57-2.42.07-.29.21-.71.64-1.16-.06-.43-.28-2.5,1.24-3.92.87-.8,1.88-1,2.28-1.04.18-.16,2.59-2.24,5.64-1.39,1.58.44,2.59,1.47,3.16,2.25l.07.1.02.12c.06.34.19.86.53,1.42l.28.4v-.04l.96,1.01c.28.48.47.98.56,1.49.16.96-.11,1.83-.24,2.25l-.02.07c-.06.18-.13.35-.2.52l-.71,1.62ZM56.26,32.69c-2,0-3.49,1.32-3.51,1.34l-.23.21-.32.04c-.3.04-1.07.18-1.72.78-1.16,1.08-.98,2.69-.94,3.01l.1.51-.37.37c-.29.29-.35.55-.38.67,0,.05,0,.1,0,.18.12-.42.36-.87.81-1.25.76-.68,1.73-.72,2.18-.64l2.68.95c.29.12.69.24,1.29.25.42,0,.81-.08,1.21-.23.62-.34,1.33-.57,2.05-.66.39-.06.81-.08,1.2-.06.16-.03.63-.05,1.12.19.11.03.22.09.31.16.27.16.45.38.59.65,0-.11-.01-.23-.03-.35-.03-.17-.08-.34-.14-.51l-.25-.25-1.51-1.96.07-.07c-.27-.53-.41-1-.48-1.36-.49-.64-1.31-1.44-2.55-1.78-.42-.12-.82-.17-1.2-.17Z"/><path class="cls-1" d="M49.59,45.72c-.2,0-.41-.04-.66-.11-.13-.05-.24-.09-.34-.13l-.46-.19.32-2.07.36.17c-.02-.15-.04-.31-.06-.49-.01-.21-.02-.36-.02-.52-.02-.45,0-.93.09-1.42-.05-.5-.02-1.6.91-2.4.76-.68,1.73-.72,2.18-.64l2.68.95c.29.12.69.24,1.29.25.42,0,.81-.08,1.21-.23.62-.34,1.33-.57,2.05-.66.39-.06.81-.08,1.2-.06.16-.03.63-.05,1.12.19.11.03.22.09.31.16.27.16.45.38.59.65,0-.11-.01-.23-.03-.35-.06-.36-.19-.72-.39-1.06-.36-.28-.67-.59-.94-.95l-.61-.76,1.58-1.25.62.81s0,.01.01.01l.08.08c.18.22.38.41.6.56l.2.2c.45.68.7,1.34.82,2.04.2,1.18-.13,2.25-.27,2.71l-.02.05c-.26.8-.66,1.55-1.18,2.22l-1.67,2.18-.12-2.75c-.02-.67-.09-1.34-.22-2.01l-.02-.12c-.09-.47-.16-.61-.18-.64,0,0-.02,0-.05,0s-.07,0-.13,0h-.07s-.12,0-.12,0c-.24-.02-.52,0-.82.04-.53.07-1.02.24-1.51.5-.41.17-1.16.42-2.09.42-.64,0-1.27-.12-1.93-.37l-2.39-.86c-.2.02-.36.08-.47.18-.28.24-.23.66-.22.74l.03.11-.03.24c-.08.52-.1,1.04-.05,1.55.03.3.07.56.12.78.12.64.26,1.41-.38,1.94-.25.2-.55.31-.89.31ZM49.23,44.66s0,0,0,0c.04.01.08.02.11.03h-.02s-.06-.02-.09-.03h0ZM49.85,43.53l.03.16c.02.1.04.22.06.33-.01-.1-.03-.22-.06-.35,0-.04-.02-.09-.03-.14ZM49.72,42.55c0,.07,0,.15.01.22.02.2.04.38.07.55-.03-.16-.05-.34-.07-.53,0-.08-.01-.16-.02-.24ZM61.95,41.74c.04.37.07.75.08,1.12h0s.04-.06.06-.08l-.14-1.04ZM49.73,41.65c0,.12-.01.24-.02.36,0-.12,0-.24.02-.36ZM63.06,40.92c-.08.23-.14.39-.21.55l-.12.27c.13-.26.23-.53.32-.8v-.02ZM61.17,39.31s.01,0,.02.01c.31.18.44.58.57,1.24v.04s0-.04,0-.04c-.16-.75-.29-1.06-.58-1.25h-.02ZM52.82,39.29l1.4.51c.36.14.95.32,1.62.31-.77-.01-1.29-.19-1.62-.32l-1.4-.5ZM57.48,39.78c-.05.02-.1.04-.16.06.06-.02.11-.04.15-.06,0,0,0,0,0,0ZM60.1,39.14c-.3,0-.57.02-.83.06-.51.07-1.01.21-1.49.44.47-.22.97-.36,1.49-.44.37-.06.72-.08,1.04-.05h.04c.16-.01.37-.01.57.05-.23-.08-.44-.07-.56-.05-.09,0-.18,0-.27,0ZM51.06,38.93c-.07.02-.13.04-.2.07.07-.03.13-.05.2-.07h0ZM62.81,37.25c.13.23.23.46.32.69-.08-.24-.19-.47-.32-.69ZM62.65,37.02l.09.12s-.03-.06-.05-.08h0s-.03-.02-.04-.03ZM62.45,36.87h0c-.18-.15-.34-.31-.5-.49h0c.15.17.32.34.5.49Z"/><path class="cls-1" d="M61.7,56.44h-.04l-1.58-.06.04-1,1.58.06-1.63-3.86.92-.39,1.65,3.84c.14.32.1.69-.1.98-.19.28-.5.44-.84.44Z"/><path class="cls-1" d="M38.99,63.74h-7.53c-.39,0-.75-.18-.99-.48-.24-.31-.32-.7-.23-1.08l.86-3.41c.14-.56.64-.95,1.22-.95h8.3c.55,0,1.03.35,1.2.88l.79,2.3-.95.33-.79-2.32c-.04-.12-.14-.19-.25-.19h-8.3c-.12,0-.22.08-.25.19l-.86,3.41c-.03.1.02.18.05.22.03.04.09.1.2.1h7.53v1Z"/></svg>