<?xml version="1.0" encoding="UTF-8"?><svg id="Layer_1" xmlns="http://www.w3.org/2000/svg" viewBox="0 0 80 80"><defs><style>.cls-1{fill:#fd6f39;}</style></defs><path class="cls-1" d="M36.69,45.74c-8.68,0-14.14-1.54-19.43-3.03l-.84-.24c-6.2-1.74-10.48-4.99-10.39-7.91.1-3.55,6.46-7.34,15.77-7.34h.53v1h-.53c-9.04,0-14.7,3.71-14.77,6.37-.07,2.38,4.08,5.35,9.66,6.92l.84.24c5.46,1.54,11.11,3.12,20.32,2.98,8.55-.13,17.2-1.25,25.73-3.33,5.54-1.58,9.41-4.27,9.39-6.52-.02-2.85-6.14-6.31-14.88-6.7l-.5-.02.05-1,.5.02c9.75.44,15.81,4.34,15.84,7.69.03,3.17-5.07,6.04-10.13,7.49-8.62,2.1-17.35,3.23-25.97,3.36-.4,0-.79,0-1.18,0Z"/><path class="cls-1" d="M44.52,72.34c-1.42,0-2.94-.02-4.69-.04h-.82c-3.84-.06-9.77-.26-16.88-1.34-4.71-.71-7.2-1.41-9.89-2.78-1.33-.67-2.61-1.47-3.81-2.38-1.52-1.14-2.4-2.87-2.4-4.74v-26.03h1v26.03c0,1.55.73,2.99,2,3.94,1.16.87,2.39,1.64,3.67,2.29,2.58,1.31,5,1.99,9.59,2.68,7.04,1.07,12.93,1.26,16.74,1.31h.82c5.2.08,8.33.13,12.82-.33,6.43-.66,11.36-1.88,14.64-3.63,1.28-.68,2.52-1.47,3.68-2.35,1.26-.95,1.99-2.38,1.99-3.93v-26.01h1v26.01c0,1.87-.87,3.59-2.39,4.73-1.21.91-2.49,1.73-3.81,2.43-3.4,1.81-8.44,3.07-15,3.74-3.02.31-5.43.39-8.25.39Z"/><rect class="cls-1" x="11.82" y="47.98" width="1" height="14.03"/><rect class="cls-1" x="67.1" y="48.66" width="1" height="12.96"/><path class="cls-1" d="M41.98,67.11v-2.1h-4.16v2.09l-.65-.21c-2.92-.92-5.21-3.2-6.12-6.12l-.2-.65h2.43v-4.01h-2.48l.17-.63c.83-3.03,3.2-5.49,6.21-6.43l.65-.2v2.36h4.23v-2.37l.65.2c2.99.92,5.32,3.26,6.22,6.25l.2.64h-2.37v4.35h2.3l-.22.66c-.96,2.88-3.28,5.12-6.19,5.99l-.64.19ZM37.69,64.01h4.44c.47,0,.85.38.85.85v.88c2.08-.81,3.75-2.42,4.64-4.47h-1.02c-.47,0-.85-.38-.85-.85v-4.64c0-.47.38-.86.85-.86h1.14c-.84-2.15-2.54-3.85-4.68-4.71v1.13c0,.47-.38.85-.86.85h-4.51c-.48,0-.87-.38-.87-.85v-1.12c-2.17.89-3.89,2.68-4.69,4.87h1.27c.48,0,.87.38.87.85v4.28c0,.48-.39.87-.87.87h-1.17c.85,2.08,2.5,3.74,4.58,4.58v-.84c0-.47.39-.85.87-.85Z"/><path class="cls-1" d="M33.4,61.12h-4.28c-.48,0-.85-.38-.85-.87v-4.28c0-.47.38-.85.85-.85h4.28c.48,0,.87.38.87.85v4.28c0,.48-.39.87-.87.87ZM29.26,60.12h4.01v-4.01h-4.01v4.01Z"/><path class="cls-1" d="M42.13,69.9h-4.44c-.47,0-.87-.4-.87-.87v-4.17c0-.47.39-.85.87-.85h4.44c.47,0,.85.38.85.85v4.17c0,.48-.38.87-.85.87ZM37.82,68.9h4.16v-3.89h-4.16v3.89Z"/><path class="cls-1" d="M50.8,61.27h-4.21c-.47,0-.85-.38-.85-.85v-4.64c0-.47.38-.86.85-.86h4.21c.47,0,.86.38.86.86v4.64c0,.47-.38.85-.86.85ZM46.74,60.27h3.92v-4.35h-3.92v4.35Z"/><path class="cls-1" d="M42.19,52.21h-4.51c-.48,0-.87-.38-.87-.85v-4c0-.47.39-.85.87-.85h4.51c.47,0,.86.38.86.85v4c0,.47-.38.85-.86.85ZM37.82,51.21h4.23v-3.7h-4.23v3.7Z"/><path class="cls-1" d="M21.25,43.47l-.97-.25.12-.48c.17-.67.64-1.94,1.83-2.97.66-.57,1.47-.99,2.33-1.21,1.29-.3,2.57-.61,3.87-.94.81-.2,1.61-.41,2.41-.61.85-.76,1.59-1.63,2.23-2.57.46-.69.87-1.43,1.2-2.19l.2-.46.92.4-.2.46c-.36.82-.79,1.61-1.29,2.35-.7,1.04-1.54,2-2.48,2.84l-.09.08-.12.03c-.84.22-1.68.43-2.53.64-1.3.32-2.6.64-3.88.94-.7.18-1.37.53-1.91,1-.99.85-1.37,1.91-1.52,2.46l-.12.48Z"/><path class="cls-1" d="M58.14,43.41l-.19-.46c-.29-.73-.72-1.37-1.27-1.89-.72-.69-1.39-1.09-2.1-1.26-1.11-.26-2.24-.56-3.34-.88-1.13-.33-2.27-.7-3.38-1.08l-.17-.1c-.8-.72-1.54-1.52-2.18-2.38-.6-.8-1.13-1.65-1.57-2.55l-.22-.45.9-.45.22.45c.42.84.92,1.64,1.48,2.39.59.78,1.25,1.51,1.98,2.17,1.07.37,2.15.72,3.24,1.03s2.19.61,3.29.86c.89.21,1.7.69,2.56,1.51.65.62,1.16,1.38,1.5,2.24l.19.46-.93.37Z"/><path class="cls-1" d="M29.02,26.91l-.34-7.41-.22-.23.17-.16c-.15-1.02-.19-2.1-.12-3.17.09-1.36.37-2.7.82-3.99l.07-.14c.4-.53,1.29-1.47,2.74-1.89,1.73-.5,3.23.05,3.92.39,1.08-.71,2.24-1.29,3.46-1.73,1.3-.47,2.66-.76,4.04-.88,1.11-.1,3.25-.04,5,1.47,1.99,1.71,2.09,4.22,2.14,5.29.03.79.11,2.63-1.05,4.36-.44.65-1.47,2.18-3.24,2.26-1.12.03-2.58-.5-3.07-1.6-.22-.5-.19-.96-.15-1.38.04-.45.07-.84-.18-1.35l-.05-.17h0s-.04-.28-.22-.34c-1.33-.47-3.45-.95-5.93-.57-3.11.48-5.45,2.28-7.15,3.85l.34,7.36-1,.05ZM43.96,16.37c.34.73.29,1.32.25,1.8-.03.35-.05.62.07.88.3.67,1.33,1.06,2.11,1.01,1.27-.05,2.04-1.2,2.46-1.82.98-1.46.92-3,.88-3.75-.04-.95-.13-3.15-1.79-4.58-1.47-1.27-3.3-1.31-4.26-1.23-1.3.11-2.57.39-3.8.83-1.24.44-2.41,1.04-3.48,1.78l-.26.18-.27-.16c-.39-.23-1.78-.92-3.42-.45-1.12.32-1.83,1.04-2.18,1.48-.41,1.18-.65,2.41-.74,3.65-.05.75-.04,1.52.03,2.27,1.76-1.54,4.08-3.15,7.13-3.61,2.69-.41,4.97.11,6.41.61.57.2.8.74.86,1.09Z"/><path class="cls-1" d="M41.27,28.09l.03-.61c.06-1.17-.75-2.02-1.54-2.13-.47-.07-.98.1-1.39.46-.47.41-.74,1.02-.74,1.65v.58s-8.61-1.22-8.61-1.22l-.36-8.02,15.08-.19.15.23s.96,1.41,2.61,1.34c1.09-.05,2.05-.71,2.52-1.7l.93-1.99.12,10.34-8.79,1.28ZM39.55,24.33c.12,0,.24,0,.35.03,1.22.18,2.19,1.28,2.37,2.58l6.78-.98-.06-5.79c-.66.6-1.52.96-2.44,1.01-1.77.11-2.91-1.05-3.33-1.56l-13.52.17.28,6.16,6.69.95c.12-.71.48-1.36,1.03-1.84.54-.47,1.19-.72,1.84-.72Z"/><path class="cls-1" d="M29.5,26.75l-.47-.16c-.66-.22-1.58-.68-2.25-1.64-.84-1.21-1.24-3.16-.16-4.59.75-1,1.9-1.28,2.51-1.35l.5-.06.12.99-.5.06c-.46.06-1.3.26-1.84.96-.75.99-.47,2.47.18,3.42.51.74,1.23,1.09,1.74,1.27l.47.16-.32.95Z"/><path class="cls-1" d="M49.23,26.28v-1s.5,0,.5,0c.33,0,.95-.07,1.48-.52.56-.48.68-1.12.77-1.64.11-.59.33-1.83-.35-2.38-.62-.5-1.62-.18-1.74-.14l-.47.16-.32-.95.47-.16c.27-.09,1.67-.5,2.68.31,1.15.92.84,2.61.71,3.33-.1.56-.27,1.5-1.1,2.22-.77.66-1.66.76-2.12.76h-.5Z"/><path class="cls-1" d="M39.58,34.37c-4.24,0-7.84-3.15-8.43-7.41l-.07-.5.99-.14.07.5c.53,3.83,3.81,6.67,7.62,6.55,3.63-.09,6.74-2.9,7.25-6.54l.07-.5.99.14-.07.5c-.57,4.12-4.1,7.3-8.21,7.4-.07,0-.14,0-.21,0Z"/><polygon class="cls-1" points="37.27 42.59 32.32 35.86 33.13 35.26 37.38 41.05 44.94 33.32 45.65 34.02 37.27 42.59"/><polygon class="cls-1" points="42.53 42.58 33.71 33.59 34.42 32.89 42.44 41.06 46.53 35.75 47.33 36.37 42.53 42.58"/><rect class="cls-1" x="39.24" y="38.38" width="1" height="7.16" transform="translate(-.97 .94) rotate(-1.34)"/><rect class="cls-1" x="36.56" y="21.33" width="6.06" height="1"/><path class="cls-1" d="M39.39,31.4c-1.43,0-2.32-1.04-2.43-1.16l-.32-.39.77-.63.32.39s.77.91,1.89.79c.89-.11,1.4-.79,1.49-.92l.28-.41.83.56-.28.41c-.19.28-.91,1.2-2.2,1.35-.12.01-.24.02-.36.02Z"/></svg>