<?xml version="1.0" encoding="UTF-8"?><svg id="Layer_1" xmlns="http://www.w3.org/2000/svg" viewBox="0 0 80 80"><defs><style>.cls-1{fill:#fd6f39;}</style></defs><path class="cls-1" d="M53.01,77.11h-26.77l-1.57-4.61c-.1-.74-.44-2.16-1.64-3.35-.87-.86-1.84-1.26-2.52-1.45h-9.3c-.26,0-1.21-.04-1.94-.82-.61-.66-.68-1.43-.69-1.73,0-.5.02-1,.07-1.5.05-.46.12-.91.21-1.35.07-.32.1-.64.08-.96-.02-.4-.11-.79-.27-1.17-.37-.22-.69-.49-.97-.81-.36-.41-.62-.87-.8-1.38l-.06-.17.56-1.39c.05-.11.11-.29.08-.5-.02-.14-.07-.25-.12-.34l-.72-.36c-.47-.28-.7-.76-.62-1.24.06-.4.31-.64.48-.77.13-.27.21-.55.25-.84.09-.77-.2-1.4-.42-1.75l-3.08-1.92c-.27-.24-.63-.64-.75-1.26-.15-.8.2-1.42.36-1.65l5.77-5.96c.22-.3.4-.71.47-1.13.11-.64-.04-1.17-.18-1.51l-.03-.12-.39-2.57c-.29-1.42-.39-2.9-.28-4.37.09-1.27.33-2.52.71-3.73.79-3.06,2.32-5.93,4.42-8.28,1.8-2,3.95-3.6,6.41-4.74,1.92-.74,3.89-1.27,5.9-1.58,2.36-.37,4.78-.45,7.17-.22.27.03.48.27.45.54-.03.28-.27.47-.54.45-2.31-.22-4.64-.14-6.92.22-1.93.3-3.84.81-5.66,1.51-2.3,1.07-4.35,2.59-6.05,4.49-2,2.23-3.46,4.96-4.21,7.89-.37,1.16-.59,2.34-.68,3.53-.1,1.38,0,2.76.27,4.12l.39,2.53c.18.46.36,1.17.22,2-.1.58-.34,1.14-.7,1.61l-5.76,5.94s-.23.38-.15.83c.07.35.28.57.37.65l3.26,2.08c.29.44.77,1.35.64,2.51-.05.46-.19.89-.42,1.31l-.07.13-.13.07s-.1.06-.12.14c-.01.08.04.16.11.21l.96.53c.15.18.33.49.39.9.05.35,0,.72-.16,1.04l-.41,1.02c.13.32.31.62.54.88.24.28.53.5.85.68l.14.08.07.15c.25.53.4,1.1.43,1.68.02.41,0,.83-.1,1.23-.09.4-.15.82-.2,1.24-.05.46-.07.93-.06,1.38,0,.19.05.66.42,1.06.46.49,1.09.5,1.2.5l9.5.02c.8.21,1.98.68,3.03,1.72,1.39,1.38,1.8,3,1.92,3.88l1.3,3.79h24.59l-2.18-5.53c-.55-1.55-.92-3.14-1.1-4.75-.16-1.4-.18-2.82-.06-4.23l.02-.1c.46-1.52.97-3.03,1.54-4.51.42-1.11.88-2.23,1.37-3.33.11-.25.41-.37.66-.25s.37.41.25.66c-.48,1.08-.93,2.18-1.35,3.28-.55,1.44-1.05,2.92-1.5,4.39-.11,1.33-.09,2.67.06,3.98.17,1.54.52,3.05,1.04,4.51l2.71,6.88Z"/><path class="cls-1" d="M48.32,53.9l-1.92-6.03c-.64-.15-1.26-.36-1.85-.64-.62-.29-1.2-.65-1.74-1.07l-5.67,3.3-5.9-6.22,3.04-5.53c-.39-.45-.7-.96-.93-1.5-.27-.65-.42-1.36-.44-2.06l-6.18-1.72-.13-8.58,6.26-1.67c.14-.62.33-1.22.58-1.81.24-.57.54-1.13.89-1.65l-3.01-5.48,5.88-5.82,5.14,3.3c.73-.51,1.5-.94,2.32-1.28.72-.29,1.47-.51,2.23-.66l1.53-5.89,8.01.05,1.58,5.98c.59.13,1.17.3,1.73.5.75.27,1.48.61,2.17,1.01l5.41-3.07,5.23,5.94-2.56,5.41c.35.52.64,1.08.86,1.66.28.73.46,1.49.54,2.27l6.15,1.43v7.66l-6.19,2.24c-.16.87-.43,1.71-.82,2.5-.18.37-.38.73-.61,1.08l2.76,5.13-5.73,6.3-5.02-2.91c-.54.38-1.12.71-1.74.96-.67.28-1.38.48-2.1.59l-2.1,6.04-7.7.23ZM42.9,44.94l.27.23c.55.46,1.15.85,1.8,1.15.61.29,1.25.5,1.91.62l.29.06,1.87,5.88,6.26-.19,2.08-5.97.31-.04c.74-.09,1.46-.28,2.14-.56.64-.27,1.24-.62,1.79-1.04l.27-.2,4.9,2.84,4.71-5.18-2.72-5.05.18-.25c.26-.38.5-.78.7-1.2.38-.79.64-1.63.78-2.51l.04-.29,6.08-2.2v-6.17l-6.1-1.42-.02-.37c-.05-.81-.22-1.59-.5-2.34-.23-.6-.54-1.16-.91-1.68l-.17-.24,2.53-5.34-4.26-4.84-5.21,2.95-.25-.15c-.71-.43-1.46-.79-2.24-1.08-.61-.22-1.25-.4-1.89-.53l-.31-.06-1.54-5.84-6.47-.04-1.5,5.76-.32.05c-.8.13-1.59.35-2.34.65-.85.35-1.65.8-2.38,1.35l-.28.21-5.05-3.24-4.77,4.73,2.94,5.37-.18.25c-.39.54-.71,1.12-.97,1.73-.26.62-.46,1.26-.58,1.91l-.06.31-6.11,1.63.11,7.05,6.21,1.73-.02.4c-.04.69.09,1.4.35,2.03.23.55.56,1.04.98,1.46l.26.27-3.04,5.53,4.85,5.11,5.59-3.26Z"/><path class="cls-1" d="M52.27,43.54c-8.36,0-15.16-6.8-15.16-15.16s6.8-15.16,15.16-15.16,15.16,6.8,15.16,15.16-6.8,15.16-15.16,15.16ZM52.27,14.23c-7.81,0-14.16,6.35-14.16,14.16s6.35,14.16,14.16,14.16,14.16-6.35,14.16-14.16-6.35-14.16-14.16-14.16Z"/><path class="cls-1" d="M52.27,39.35c-.28,0-.5-.22-.5-.5v-5.8c-.24-.81-.86-2.27-2.36-3.39-1.62-1.2-3.32-1.31-4.18-1.27-.28.03-.51-.2-.52-.48-.01-.28.2-.51.48-.52,1-.05,2.96.08,4.82,1.47,1.78,1.32,2.48,3.06,2.74,3.98l.02.14v5.87c0,.28-.22.5-.5.5Z"/><path class="cls-1" d="M52.07,27.71c-.28,0-.5-.22-.5-.5v-6.31c0-.28.22-.5.5-.5s.5.22.5.5v6.31c0,.28-.22.5-.5.5Z"/><path class="cls-1" d="M53.92,30.06c-.12,0-.25-.04-.34-.14-.2-.19-.21-.5-.02-.71.42-.45.91-.83,1.44-1.12.69-.38,1.45-.62,2.24-.7h2.01c.28,0,.5.22.5.5s-.22.5-.5.5h-1.96c-.61.07-1.24.26-1.81.58-.45.25-.85.56-1.2.93-.1.11-.23.16-.36.16Z"/><path class="cls-1" d="M45.21,25.03v5.79c0,.14-.16.23-.28.15l-4.29-2.89c-.1-.07-.1-.22,0-.29l4.29-2.89c.12-.08.28,0,.28.15Z"/><path class="cls-1" d="M54.97,21.73h-5.79c-.14,0-.23-.16-.15-.28l2.89-4.29c.07-.1.22-.1.29,0l2.89,4.29c.08.12,0,.28-.15.28Z"/><path class="cls-1" d="M59.25,30.82v-5.79c0-.14.16-.23.28-.15l4.29,2.89c.1.07.1.22,0,.29l-4.29,2.89c-.12.08-.28,0-.28-.15Z"/></svg>