<?xml version="1.0" encoding="UTF-8"?><svg id="Layer_1" xmlns="http://www.w3.org/2000/svg" viewBox="0 0 80 80"><defs><style>.cls-1{fill:#fd6f39;}</style></defs><path class="cls-1" d="M18.14,22.84c-3.22,0-5.85-2.62-5.85-5.85s2.62-5.85,5.85-5.85,5.85,2.62,5.85,5.85-2.62,5.85-5.85,5.85ZM18.14,12.14c-2.67,0-4.85,2.17-4.85,4.85s2.17,4.85,4.85,4.85,4.85-2.17,4.85-4.85-2.17-4.85-4.85-4.85Z"/><path class="cls-1" d="M57.4,31.61c-2.95,0-5.36-2.4-5.36-5.36s2.4-5.36,5.36-5.36,5.36,2.4,5.36,5.36-2.4,5.36-5.36,5.36ZM57.4,21.89c-2.4,0-4.36,1.96-4.36,4.36s1.96,4.36,4.36,4.36,4.36-1.96,4.36-4.36-1.95-4.36-4.36-4.36Z"/><path class="cls-1" d="M23.4,50.88h-14.48c-.92,0-1.67-.75-1.67-1.67v-20.88c0-.54.11-1.02.32-1.45,1.6-3.16,4.77-5.19,8.28-5.32,3.62-.12,6.98,1.77,8.77,4.95l1.31,2.62c.04.08.11.1.14.11.04,0,.11.01.18-.04l7.1-5.58c.3-.24.68-.35,1.07-.3.38.05.72.24.96.55l1.64,2.13c.48.62.37,1.53-.26,2.01l-9.51,7.37c-.36.28-.8.43-1.26.43h-.94v13.39c.01.92-.74,1.67-1.66,1.67ZM16.2,22.55c-.1,0-.21,0-.31,0-3.14.11-5.99,1.94-7.42,4.77-.14.28-.21.62-.21,1v20.88c0,.37.3.67.67.67h14.48c.37,0,.67-.3.67-.67v-13.4c0-.54.44-.99.99-.99h.94c.23,0,.46-.08.64-.22l9.5-7.37c.19-.15.23-.42.08-.61l-1.64-2.13c-.07-.09-.17-.15-.29-.17-.12-.02-.23.02-.32.09l-7.1,5.58c-.29.23-.66.31-1.01.23-.36-.08-.66-.31-.82-.64l-1.3-2.6c-1.54-2.74-4.42-4.42-7.54-4.42Z"/><path class="cls-1" d="M13.75,72.9h-3.32c-.45,0-.82-.37-.83-.81l-.39-21.7,1-.02.38,21.54h2.99v-21.53h1v21.7c0,.46-.37.83-.83.83Z"/><path class="cls-1" d="M22.07,72.9h-3.11c-.51,0-.93-.41-.94-.92l-.38-21.6,1-.02.38,21.6,3.05-.06-.06-21.53h1v21.59c0,.52-.42.94-.94.94Z"/><path class="cls-1" d="M58.28,72.9h-3.11c-.51,0-.92-.37-.94-.84l-.38-17.66,1-.02.38,17.51h2.99s0-17.5,0-17.5h1v17.65c0,.47-.42.86-.94.86Z"/><path class="cls-1" d="M65.51,72.61h-3.11c-.51,0-.93-.37-.94-.84l-.38-17.65,1-.02.38,17.51h2.99s0-17.5,0-17.5h1v17.65c0,.47-.42.86-.94.86Z"/><path class="cls-1" d="M29.72,27.51h-1V8.47c0-.76.62-1.37,1.37-1.37h19.89c.76,0,1.37.62,1.37,1.37v12.38h-1v-12.38c0-.21-.17-.37-.37-.37h-19.89c-.21,0-.37.17-.37.37v19.04Z"/><path class="cls-1" d="M50.69,35.94h-20.57c-.64,0-1.16-.52-1.16-1.16v-1.97h1v1.97c0,.09.07.16.16.16h20.57c.09,0,.16-.07.16-.16v-4.34h1v4.34c0,.64-.52,1.16-1.16,1.16Z"/><path class="cls-1" d="M47.18,13.39h-14.18c-.28,0-.5-.22-.5-.5s.22-.5.5-.5h14.18c.28,0,.5.22.5.5s-.22.5-.5.5Z"/><path class="cls-1" d="M47.5,17.76h-14.19c-.28,0-.5-.22-.5-.5s.22-.5.5-.5h14.19c.28,0,.5.22.5.5s-.22.5-.5.5Z"/><path class="cls-1" d="M47.5,21.89h-14.19c-.28,0-.5-.22-.5-.5s.22-.5.5-.5h14.19c.28,0,.5.22.5.5s-.22.5-.5.5Z"/><path class="cls-1" d="M46.92,26.11h-6.83c-.28,0-.5-.22-.5-.5s.22-.5.5-.5h6.83c.28,0,.5.22.5.5s-.22.5-.5.5Z"/><path class="cls-1" d="M46.92,30.25h-6.83c-.28,0-.5-.22-.5-.5s.22-.5.5-.5h6.83c.28,0,.5.22.5.5s-.22.5-.5.5Z"/><path class="cls-1" d="M68.09,54.9h-14.83v-19.82c0-.28.22-.5.5-.5s.5.22.5.5v18.82h12.83v-7.39c0-.28.22-.5.5-.5s.5.22.5.5v8.39Z"/><path class="cls-1" d="M63.41,50.48c-.38,0-.77-.14-1.07-.42l-1.2-1.13c-.31-.29-.49-.69-.49-1.12,0-.43.16-.83.47-1.13l5.37-5.26c.1-.1.16-.23.16-.37,0-.14-.06-.28-.16-.38l-4.58-4.43c-.2-.19-.2-.51-.01-.71.19-.2.51-.2.71-.01l4.58,4.43c.3.29.46.68.46,1.09,0,.41-.16.8-.46,1.09l-5.37,5.26c-.11.11-.17.25-.17.41,0,.15.07.3.18.4l1.2,1.13c.21.2.55.2.77,0l7.81-7.44c.18-.17.2-.46.03-.65l-6.69-7.86c-.1-.11-.21-.2-.34-.27l-1.99-.96c-.25-.12-.35-.42-.23-.67.12-.25.42-.35.67-.23l1.99.96c.26.13.48.3.67.52l6.69,7.85c.51.59.46,1.48-.11,2.02l-7.81,7.44c-.3.29-.69.43-1.07.43Z"/><path class="cls-1" d="M49.8,53.15c-.23,0-.46-.07-.66-.2l-2-1.33c-.49-.33-.67-.97-.42-1.5l7.17-16.71c.11-.25.4-.37.66-.26.25.11.37.4.26.66l-7.18,16.72c-.05.1-.02.21.06.26l2,1.33c.06.04.12.04.16.03.03,0,.09-.03.12-.1l3.34-6.42c.13-.25.43-.34.67-.21.25.13.34.43.21.67l-3.34,6.42c-.16.3-.43.52-.76.61-.1.03-.2.04-.3.04Z"/></svg>