<?xml version="1.0" encoding="UTF-8"?><svg id="Layer_1" xmlns="http://www.w3.org/2000/svg" viewBox="0 0 80 80"><defs><style>.cls-1{fill:#fd6f39;}</style></defs><path class="cls-1" d="M70.63,64.32h-29.89v-1h29.89c1.48,0,2.69-1.21,2.69-2.69V19.18c0-1.48-1.21-2.69-2.69-2.69H8.92c-1.48,0-2.69,1.21-2.69,2.69v8.67h-1v-8.67c0-2.03,1.65-3.69,3.69-3.69h61.71c2.03,0,3.69,1.65,3.69,3.69v41.45c0,2.03-1.65,3.69-3.69,3.69Z"/><path class="cls-1" d="M33.8,63.84l-1-.05c.15-2.94,0-13.17-8.32-21.18-7.73-7.45-17.26-7.71-20-7.61l-.04-1c2.83-.11,12.71.17,20.73,7.89,8.62,8.3,8.78,18.9,8.63,21.96Z"/><path class="cls-1" d="M24.29,63.88l-.99-.13c.05-.39,1.15-9.74-6.02-15.54-5.09-4.11-11.04-3.73-12.75-3.51l-.13-.99c1.81-.23,8.11-.64,13.5,3.72,7.6,6.14,6.44,16.02,6.38,16.44Z"/><path class="cls-1" d="M13.84,63.92l-.98-.21c.03-.15.79-3.79-1.84-6.54-2.64-2.76-6.32-2.15-6.48-2.13l-.17-.98c.44-.08,4.42-.67,7.37,2.42,2.94,3.08,2.19,7.01,2.09,7.45Z"/></svg>