<?xml version="1.0" encoding="UTF-8"?><svg id="Layer_1" xmlns="http://www.w3.org/2000/svg" viewBox="0 0 80 80"><defs><style>.cls-1{fill:#fd6f39;}</style></defs><path class="cls-1" d="M36.88,73.68H6.16v-30.7h19.06V6.31h48.61v48.61h-36.96v18.76ZM7.16,72.68h28.71v-18.76h36.96V7.31H26.22v36.67H7.16v28.7Z"/><path class="cls-1" d="M29.62,43.98h-3.9c-.28,0-.5-.22-.5-.5s.22-.5.5-.5h3.9c.28,0,.5.22.5.5s-.22.5-.5.5Z"/><path class="cls-1" d="M36.38,54.93c-.28,0-.5-.22-.5-.5v-3.04c0-.28.22-.5.5-.5s.5.22.5.5v3.04c0,.28-.22.5-.5.5Z"/><path class="cls-1" d="M17.78,65.74c-1.08,0-2.1-.53-2.7-1.44-.68-1.02-.72-2.32-.12-3.39l.08-.11L51.11,24.43l-2.84-.02c-1.37-.35-2.38-1.57-2.46-2.95-.08-1.53.95-2.92,2.46-3.32l.07-.02,12.05.15c.36,0,.71.15.96.41.25.26.39.61.39.97l-.2,12.36c-.35,1.32-1.53,2.23-2.88,2.23h-.01c-1.38,0-2.6-1-2.9-2.35v-.1s-.04-2.86-.04-2.86l-37.19,36.71-.15.03c-.19.03-.38.05-.57.05ZM15.8,61.45c-.39.73-.35,1.61.11,2.29.46.7,1.28,1.07,2.12.98L55.68,27.56c.17-.17.42-.22.64-.13.22.09.36.3.37.54l.03,3.77c.22.88,1.02,1.51,1.92,1.52h0c.88,0,1.65-.58,1.9-1.43l.18-12.18c0-.1-.04-.19-.1-.26-.07-.07-.16-.11-.25-.11l-11.91-.15c-1.02.29-1.71,1.24-1.65,2.28.05.94.73,1.76,1.65,2.03h3.63c.24,0,.45.14.55.36s.04.47-.12.64L15.8,61.45Z"/></svg>