<?xml version="1.0" encoding="UTF-8"?><svg id="Layer_1" xmlns="http://www.w3.org/2000/svg" viewBox="0 0 80 80"><defs><style>.cls-1{fill:#fd6f39;}</style></defs><polygon class="cls-1" points="40.72 53.06 7.47 53.06 7.47 10.58 40.72 10.58 40.72 15.96 39.72 15.96 39.72 11.58 8.47 11.58 8.47 52.06 39.72 52.06 39.72 47.91 40.72 47.91 40.72 53.06"/><polygon class="cls-1" points="44.11 56.84 3.98 56.84 3.98 6.98 44.42 6.98 44.42 13.11 43.42 13.11 43.42 7.98 4.98 7.98 4.98 55.84 43.11 55.84 43.11 50.71 44.11 50.71 44.11 56.84"/><path class="cls-1" d="M14.1,31.9c-1.31,0-2.38-1.07-2.38-2.38s1.07-2.38,2.38-2.38,2.38,1.07,2.38,2.38-1.07,2.38-2.38,2.38ZM14.1,28.14c-.76,0-1.38.62-1.38,1.38s.62,1.38,1.38,1.38,1.38-.62,1.38-1.38-.62-1.38-1.38-1.38Z"/><path class="cls-1" d="M20.12,24.36c-1.31,0-2.38-1.07-2.38-2.38s1.07-2.38,2.38-2.38,2.38,1.07,2.38,2.38-1.07,2.38-2.38,2.38ZM20.12,20.6c-.76,0-1.38.62-1.38,1.38s.62,1.38,1.38,1.38,1.38-.62,1.38-1.38-.62-1.38-1.38-1.38Z"/><path class="cls-1" d="M27.87,27c-1.31,0-2.38-1.07-2.38-2.38s1.07-2.38,2.38-2.38,2.38,1.07,2.38,2.38-1.07,2.38-2.38,2.38ZM27.87,23.24c-.76,0-1.38.62-1.38,1.38s.62,1.38,1.38,1.38,1.38-.62,1.38-1.38-.62-1.38-1.38-1.38Z"/><path class="cls-1" d="M33.8,19.31c-1.31,0-2.38-1.07-2.38-2.38s1.07-2.38,2.38-2.38,2.38,1.07,2.38,2.38-1.07,2.38-2.38,2.38ZM33.8,15.55c-.76,0-1.38.62-1.38,1.38s.62,1.38,1.38,1.38,1.38-.62,1.38-1.38-.62-1.38-1.38-1.38Z"/><rect class="cls-1" x="13.78" y="25.37" width="6.77" height="1" transform="translate(-13.68 22.29) rotate(-49.81)"/><rect class="cls-1" x="23.58" y="20.58" width="1" height="5.54" transform="translate(-5.91 38.35) rotate(-70.69)"/><rect class="cls-1" x="27.44" y="20.35" width="6.97" height="1" transform="translate(-4.39 32.83) rotate(-52.74)"/><path class="cls-1" d="M50.74,49.23c-9.6,0-17.41-7.81-17.41-17.41s7.81-17.41,17.41-17.41,17.41,7.81,17.41,17.41-7.81,17.41-17.41,17.41ZM50.74,15.41c-9.05,0-16.41,7.36-16.41,16.41s7.36,16.41,16.41,16.41,16.41-7.36,16.41-16.41-7.36-16.41-16.41-16.41Z"/><path class="cls-1" d="M50.74,45.87c-7.7,0-13.96-6.26-13.96-13.96s6.26-13.96,13.96-13.96,13.96,6.26,13.96,13.96-6.26,13.96-13.96,13.96ZM50.74,18.95c-7.15,0-12.96,5.82-12.96,12.96s5.81,12.96,12.96,12.96,12.96-5.82,12.96-12.96-5.82-12.96-12.96-12.96Z"/><polygon class="cls-1" points="49.32 36.09 45.1 31.82 45.81 31.11 49.33 34.68 56.79 27.37 57.49 28.09 49.32 36.09"/><rect class="cls-1" x="17.35" y="35.76" width="14.58" height="1"/><rect class="cls-1" x="14.02" y="46.61" width="19.98" height="1"/><rect class="cls-1" x="13.94" y="41.19" width="13.25" height="1"/><rect class="cls-1" x="28.93" y="41.19" width="4.3" height="1"/><rect class="cls-1" x="50.24" y="48.35" width="1" height="4.3"/><path class="cls-1" d="M50.76,73.36c-.1,0-.2,0-.3-.01-1.95-.14-3.57-1.68-3.85-3.66v-.05s0-.05,0-.05l.78-14.82c.13-1.76,1.6-3.12,3.35-3.12h0c1.78,0,3.25,1.4,3.35,3.18l.82,14.98v.06c-.39,2.04-2.14,3.5-4.15,3.5ZM47.61,69.6c.23,1.5,1.46,2.65,2.93,2.76,1.58.13,3.04-1.03,3.37-2.61l-.82-14.85c-.07-1.25-1.1-2.23-2.35-2.23h0c-1.23,0-2.26.96-2.35,2.19l-.78,14.76Z"/><rect class="cls-1" x="61.33" y="47.86" width="1" height="6.24" transform="translate(-17.33 38.49) rotate(-30.54)"/><rect class="cls-1" x="69.4" y="39.89" width="1" height="6.22" transform="translate(-2.42 81.8) rotate(-59.81)"/><rect class="cls-1" x="69.7" y="31.41" width="6.32" height="1"/><rect class="cls-1" x="66.78" y="20.37" width="6.24" height="1" transform="translate(-.92 38.39) rotate(-30.52)"/><rect class="cls-1" x="58.7" y="12.21" width="6.13" height="1" transform="translate(19.25 59.28) rotate(-59.23)"/><rect class="cls-1" x="50.24" y="6.64" width="1" height="6.36"/></svg>