<?xml version="1.0" encoding="UTF-8"?><svg id="Layer_1" xmlns="http://www.w3.org/2000/svg" viewBox="0 0 80 80"><defs><style>.cls-1{fill:#fd6f39;}</style></defs><path class="cls-1" d="M37.2,40.15c-10.08,0-18.29-8.21-18.29-18.29S27.12,3.57,37.2,3.57s18.29,8.2,18.29,18.29-8.21,18.29-18.29,18.29ZM37.2,4.57c-9.53,0-17.29,7.76-17.29,17.29s7.76,17.29,17.29,17.29,17.29-7.76,17.29-17.29-7.76-17.29-17.29-17.29Z"/><path class="cls-1" d="M37.2,70.4H3.51v-9.5c.38-2.32,1.25-4.49,2.5-6.37,1.22-1.84,2.79-3.39,4.64-4.61,5.6-3.1,14.65-6.8,26.16-6.9.15,0,.31,0,.46,0,11.7,0,20.9,3.73,26.58,6.88.61.43,1.16.87,1.65,1.35.29.27.55.55.78.81l-.75.66c-.21-.25-.45-.5-.72-.75-.46-.44-.96-.86-1.49-1.22-5.61-3.11-14.8-6.84-26.51-6.72-11.3.09-20.19,3.72-25.65,6.75-1.71,1.12-3.18,2.58-4.33,4.31-1.17,1.77-1.98,3.81-2.34,5.9v8.42h32.7v1Z"/><path class="cls-1" d="M72.71,76.43h-31.89c-2.08,0-3.78-1.7-3.78-3.78v-16.62c0-2.08,1.7-3.78,3.78-3.78h31.89c2.08,0,3.78,1.7,3.78,3.78v16.62c0,2.08-1.7,3.78-3.78,3.78ZM40.82,53.24c-1.53,0-2.78,1.25-2.78,2.78v16.62c0,1.53,1.25,2.78,2.78,2.78h31.89c1.53,0,2.78-1.25,2.78-2.78v-16.62c0-1.53-1.25-2.78-2.78-2.78h-31.89Z"/><path class="cls-1" d="M48.98,69.39c-2.86,0-5.2-2.33-5.2-5.2s2.33-5.2,5.2-5.2,5.2,2.33,5.2,5.2-2.33,5.2-5.2,5.2ZM48.98,59.99c-2.31,0-4.2,1.88-4.2,4.2s1.88,4.2,4.2,4.2,4.2-1.88,4.2-4.2-1.88-4.2-4.2-4.2Z"/><path class="cls-1" d="M64.24,69.53c-2.87,0-5.2-2.33-5.2-5.2s2.33-5.2,5.2-5.2,5.2,2.33,5.2,5.2-2.33,5.2-5.2,5.2ZM64.24,60.14c-2.31,0-4.2,1.88-4.2,4.2s1.88,4.2,4.2,4.2,4.2-1.88,4.2-4.2-1.88-4.2-4.2-4.2Z"/><rect class="cls-1" x="56.3" y="61.14" width="1" height="15.63" transform="translate(-12.69 125.11) rotate(-89.46)"/></svg>