<?xml version="1.0" encoding="UTF-8"?><svg id="Layer_1" xmlns="http://www.w3.org/2000/svg" viewBox="0 0 80 80"><defs><style>.cls-1{fill:#fd6f39;}</style></defs><path class="cls-1" d="M75.72,29.82c.03,3.34-5.35,6.37-10.68,7.89-9.08,2.21-18.29,3.41-27.37,3.54-.42,0-.83.01-1.24.01-9.14,0-14.9-1.63-20.47-3.2l-.89-.25c-1.63-.46-3.14-1.01-4.48-1.64-1.45-.68-2.44-1.14-3.48-2.06-.96-.84-2.98-2.63-2.82-4.66.2-2.63,3.94-4.29,6.52-5.43,1.82-.81,3.44-1.22,4.61-1.45.05.07.11.14.16.24.05.08.08.16.11.23-.51.13-1.19.33-1.99.61-1.17.41-8.19,2.89-8.52,5.86-.27,2.42,3.86,5.69,10.18,7.29l.88.25c5.76,1.62,11.71,3.28,21.41,3.14,9.01-.14,18.13-1.32,27.12-3.51.94-.27,1.82-.56,2.66-.88.19-.08.38-.15.57-.23,4.06-1.65,6.68-3.85,6.67-5.76-.01-2.34-3.9-5.05-9.94-6.34-.2-.05-.4-.09-.61-.13h0c-.03-.2-.1-.38-.26-.51-.32-.26-.81-.16-.99-.11v.4c-.19-.03-.4-.06-.6-.09v-.55c-.23.19-.48.35-.75.45h0c-.08,0-.14-.01-.22-.02-.55-.06-1.12-.11-1.7-.14-.03,0-.07,0-.1,0-.35-.2-.59-.46-.72-.61h-.28s.02-.49.02-.49h.25s.28.03.28.03c.05,0,.1,0,.14,0,.07,0,.13,0,.2.01,0,.03.01.07.03.1.18.41.81.64,1.28.61.44-.02.79-.25,1.04-.53.08,0,.14.01.22.03h0c.16.02.33.04.48.06.14.01.28.03.42.05v.06c.06,0,.13-.02.2-.03.33.05.66.1.98.16h0c7.29,1.32,11.66,4.63,11.68,7.55Z"/><path class="cls-1" d="M44.75,69.3c-1.49,0-3.09-.02-4.93-.05h-.86c-4.04-.07-10.28-.27-17.75-1.41-4.95-.75-7.57-1.49-10.4-2.93-1.4-.71-2.75-1.55-4.01-2.51-1.6-1.2-2.52-3.02-2.52-4.99v-27.43h1.05v27.43c0,1.64.77,3.15,2.1,4.15,1.22.91,2.51,1.73,3.86,2.41,2.71,1.38,5.26,2.09,10.08,2.83,7.4,1.12,13.59,1.33,17.6,1.38h.86c5.46.09,8.76.13,13.48-.35,6.76-.69,11.94-1.98,15.39-3.82,1.34-.72,2.65-1.55,3.87-2.48,1.33-1,2.09-2.51,2.09-4.15v-27.41h1.05v27.41c0,1.97-.92,3.79-2.51,4.99-1.27.96-2.62,1.82-4.01,2.56-3.57,1.91-8.88,3.24-15.78,3.94-3.18.33-5.71.41-8.67.41Z"/><rect class="cls-1" x="10.22" y="43.63" width="1.05" height="14.78"/><rect class="cls-1" x="68.48" y="44.35" width="1.05" height="13.65"/><path class="cls-1" d="M42.01,63.79v-2.21h-4.39v2.2l-.68-.22c-3.07-.97-5.49-3.38-6.45-6.45l-.22-.69h2.56v-4.22h-2.61l.18-.67c.87-3.19,3.38-5.79,6.54-6.78l.68-.21v2.49h4.46v-2.5l.68.21c3.15.97,5.6,3.43,6.55,6.58l.21.68h-2.5v4.58h2.42l-.23.69c-1.01,3.04-3.45,5.4-6.53,6.31l-.68.2ZM37.48,60.52h4.68c.5,0,.9.4.9.9v.93c2.19-.85,3.96-2.55,4.89-4.71h-1.08c-.5,0-.9-.4-.9-.9v-4.89c0-.5.4-.9.9-.9h1.2c-.89-2.26-2.67-4.06-4.94-4.96v1.19c0,.5-.4.9-.9.9h-4.75c-.5,0-.91-.4-.91-.9v-1.18c-2.28.94-4.1,2.83-4.94,5.14h1.34c.5,0,.91.4.91.9v4.52c0,.5-.41.91-.91.91h-1.23c.89,2.19,2.64,3.94,4.83,4.83v-.89c0-.5.41-.9.91-.9Z"/><path class="cls-1" d="M32.96,57.48h-4.52c-.5,0-.9-.4-.9-.91v-4.52c0-.5.4-.9.9-.9h4.52c.5,0,.91.4.91.9v4.52c0,.5-.41.91-.91.91ZM28.6,56.43h4.22v-4.22h-4.22v4.22Z"/><path class="cls-1" d="M42.16,66.73h-4.68c-.5,0-.91-.42-.91-.91v-4.39c0-.5.41-.9.91-.9h4.68c.5,0,.9.4.9.9v4.39c0,.5-.4.91-.9.91ZM37.62,65.68h4.39v-4.1h-4.39v4.1Z"/><path class="cls-1" d="M51.3,57.64h-4.43c-.5,0-.9-.4-.9-.9v-4.89c0-.5.4-.9.9-.9h4.43c.5,0,.9.4.9.9v4.89c0,.5-.4.9-.9.9ZM47.02,56.59h4.13v-4.58h-4.13v4.58Z"/><path class="cls-1" d="M42.23,48.09h-4.75c-.5,0-.91-.4-.91-.9v-4.21c0-.5.41-.9.91-.9h4.75c.5,0,.9.4.9.9v4.21c0,.5-.4.9-.9.9ZM37.62,47.03h4.46v-3.9h-4.46v3.9Z"/><path class="cls-1" d="M27.58,31.82c-.19-.22-.37-.43-.56-.65.12-.39.24-.77.36-1.16.11-.44.43-1.29,1.22-1.98.44-.38.98-.66,1.55-.81.86-.2,1.71-.41,2.58-.62.54-.13,1.07-.27,1.6-.41.56-.51,1.06-1.08,1.48-1.71.31-.46.58-.95.8-1.46l.13-.31.61.27-.13.3c-.24.55-.53,1.07-.86,1.56-.47.7-1.02,1.33-1.65,1.89l-.06.05-.08.02c-.56.14-1.12.29-1.69.43-.87.22-1.73.42-2.58.62-.47.12-.91.35-1.27.66-.66.57-.91,1.27-1.01,1.64-.15.55-.3,1.1-.45,1.64Z"/><path class="cls-1" d="M52.69,31.08c-.11-.31-.22-.62-.32-.94-.2-.49-.48-.91-.84-1.26-.48-.46-.92-.73-1.4-.84-.74-.17-1.49-.37-2.22-.58-.75-.22-1.51-.46-2.25-.72l-.11-.07c-.53-.48-1.02-1.01-1.45-1.58-.4-.53-.75-1.1-1.05-1.69l-.15-.3.6-.3.15.3c.28.56.61,1.09.98,1.59.39.52.83,1,1.31,1.44.71.25,1.43.48,2.16.69.72.21,1.46.4,2.19.57.59.14,1.13.46,1.7,1,.43.41.77.92,1,1.49.07.24.14.48.22.71-.17.16-.34.32-.51.47Z"/><path class="cls-1" d="M33.12,19.47l-.22-4.93-.14-.15.12-.11c-.1-.68-.13-1.4-.08-2.11.06-.91.25-1.8.55-2.65l.05-.09c.27-.35.86-.98,1.83-1.26,1.15-.33,2.15.03,2.61.26.72-.47,1.49-.86,2.3-1.15.87-.31,1.77-.51,2.69-.59.74-.07,2.16-.02,3.33.98,1.32,1.14,1.39,2.81,1.42,3.52.02.53.08,1.75-.7,2.9-.29.43-.98,1.45-2.16,1.5-.74.02-1.71-.33-2.04-1.07-.15-.33-.12-.64-.1-.92.02-.3.05-.56-.12-.9l-.03-.11h0s-.03-.19-.14-.23c-.89-.31-2.29-.63-3.94-.38-2.07.32-3.63,1.52-4.76,2.56l.22,4.9-.66.03ZM43.06,12.45c.22.48.19.88.17,1.2-.02.23-.03.41.05.59.2.45.88.7,1.41.67.84-.04,1.36-.8,1.63-1.21.65-.97.61-2,.59-2.5-.03-.63-.09-2.1-1.19-3.05-.98-.84-2.19-.87-2.83-.82-.86.08-1.71.26-2.53.55-.82.29-1.6.69-2.32,1.19l-.17.12-.18-.11c-.26-.15-1.18-.62-2.28-.3-.74.22-1.22.69-1.45.98-.27.78-.44,1.6-.49,2.43-.03.5-.03,1.01.02,1.51,1.17-1.02,2.72-2.09,4.75-2.41,1.79-.28,3.31.07,4.27.41.38.13.53.49.57.73Z"/><path class="cls-1" d="M41.27,20.26l.02-.4c.04-.78-.5-1.34-1.03-1.42-.31-.05-.65.07-.93.31-.32.27-.49.68-.49,1.1v.39s-5.73-.81-5.73-.81l-.24-5.34,10.04-.13.1.15s.64.94,1.74.89c.72-.04,1.37-.47,1.68-1.13l.62-1.33.08,6.88-5.85.85ZM40.12,17.75c.08,0,.16,0,.23.02.81.12,1.46.85,1.58,1.72l4.51-.65-.04-3.85c-.44.4-1.01.64-1.62.67-1.18.07-1.94-.7-2.21-1.04l-9,.11.19,4.1,4.45.63c.08-.47.32-.91.69-1.23.36-.31.79-.48,1.22-.48Z"/><path class="cls-1" d="M33.44,19.36l-.32-.11c-.44-.15-1.05-.45-1.5-1.09-.56-.8-.83-2.1-.11-3.06.5-.66,1.26-.85,1.67-.9l.33-.04.08.66-.33.04c-.3.04-.87.17-1.22.64-.5.66-.32,1.64.12,2.28.34.49.82.73,1.16.84l.32.11-.21.63Z"/><path class="cls-1" d="M46.57,19.05v-.67s.33,0,.33,0c.22,0,.63-.05.98-.35.38-.32.45-.75.51-1.09.07-.4.22-1.22-.23-1.58-.41-.33-1.08-.12-1.16-.1l-.32.11-.21-.63.32-.11c.18-.06,1.11-.33,1.78.21.76.61.56,1.74.47,2.22-.07.38-.18,1-.74,1.48-.51.44-1.11.51-1.41.51h-.33Z"/><path class="cls-1" d="M40.14,24.43c-2.82,0-5.22-2.1-5.61-4.93l-.05-.33.66-.09.05.33c.35,2.55,2.54,4.44,5.07,4.36,2.41-.06,4.49-1.93,4.83-4.35l.05-.33.66.09-.05.33c-.38,2.74-2.73,4.86-5.47,4.92-.05,0-.09,0-.14,0Z"/><polygon class="cls-1" points="38.61 29.91 35.31 25.42 35.85 25.03 38.68 28.88 43.71 23.74 44.19 24.2 38.61 29.91"/><polygon class="cls-1" points="42.11 29.9 36.24 23.92 36.71 23.45 42.05 28.89 44.77 25.36 45.3 25.76 42.11 29.9"/><rect class="cls-1" x="39.92" y="27.11" width=".67" height="4.76" transform="translate(-.68 .95) rotate(-1.34)"/><rect class="cls-1" x="38.13" y="15.76" width="4.03" height=".67"/><path class="cls-1" d="M40.02,22.46c-.95,0-1.54-.69-1.61-.77l-.21-.26.51-.42.21.26s.51.61,1.26.52c.59-.07.93-.52.99-.61l.19-.27.55.37-.19.27c-.13.19-.6.8-1.46.9-.08,0-.16.01-.24.01Z"/><path class="cls-1" d="M50.64,25.93l-.19.57-.29-.1h0s0,0,0,0c-.4-.13-.96-.41-1.35-.98-.51-.74-.76-1.92-.1-2.79.36-.47.85-.68,1.23-.76h.01c.1-.03.2-.04.28-.05l.29-.03.04.34.03.17v.09s-.01,0-.01,0l-.28.03c-.08.01-.2.03-.32.07-.26.08-.57.23-.79.52-.45.6-.29,1.5.11,2.07.24.34.55.55.83.68.08.03.16.06.23.09l.29.1Z"/><path class="cls-1" d="M45.45,36.63l-.59-.15.08-.29c.1-.4.39-1.18,1.11-1.8.4-.35.89-.6,1.41-.73.78-.18,1.56-.37,2.35-.57.49-.12.98-.25,1.46-.37.51-.46.97-.99,1.35-1.56.28-.42.52-.86.73-1.33l.12-.28.56.24-.12.28c-.22.5-.48.98-.78,1.42-.42.63-.93,1.21-1.5,1.72l-.05.05-.07.02c-.51.13-1.02.26-1.53.39-.79.2-1.57.39-2.35.57-.42.11-.83.32-1.16.61-.6.51-.83,1.15-.92,1.49l-.08.29Z"/><path class="cls-1" d="M67.79,36.59l-.11-.28c-.18-.44-.44-.83-.77-1.15-.44-.42-.84-.66-1.27-.76-.67-.16-1.35-.34-2.02-.53-.69-.2-1.38-.42-2.05-.66l-.1-.06c-.49-.44-.93-.92-1.32-1.44-.36-.48-.68-1-.95-1.54l-.14-.27.54-.27.13.27c.25.51.55.99.89,1.45.35.47.76.91,1.2,1.31.65.22,1.3.44,1.96.63s1.33.37,1.99.52c.54.13,1.03.42,1.55.91.39.38.7.83.91,1.36l.11.28-.56.23Z"/><path class="cls-1" d="M63.3,19.05c-.02-.64-.09-2.16-1.28-3.2-1.07-.91-2.36-.95-3.03-.89-.83.07-1.66.25-2.45.53-.74.27-1.44.61-2.1,1.04-.42-.2-1.32-.54-2.38-.23-.87.25-1.41.83-1.66,1.14l-.05.09c-.27.78-.44,1.59-.5,2.42-.04.64-.01,1.29.08,1.91h0s-.11.11-.11.11l.14.14v.37s.16,3.26.16,3.26l.03.66h0v.15s0,.05,0,.05h.28s.32-.03.32-.03l-.03-.55-.16-3.64v-.09s-.01-.17-.01-.17c.16-.14.33-.29.51-.44.98-.83,2.23-1.65,3.83-1.9,1.5-.23,2.79.06,3.58.34.11.04.13.21.13.21l.03.11c.16.31.13.54.11.81,0,.1-.01.2-.01.32,0,.04,0,.09,0,.13.01.12.04.25.1.39.14.31.41.55.73.71.36.18.77.27,1.13.26.2-.01.4-.05.57-.12.53-.2.91-.6,1.15-.93.1-.12.18-.24.23-.33.07-.1.13-.19.18-.29.53-.96.48-1.91.46-2.36ZM58.68,19.55c-.87-.31-2.25-.62-3.89-.37-1.84.28-3.26,1.26-4.32,2.19-.04-.46-.05-.92-.02-1.37.05-.76.2-1.5.45-2.21.21-.27.64-.7,1.32-.89,1-.29,1.84.13,2.07.27l.17.1.16-.11c.65-.45,1.37-.81,2.11-1.09.74-.26,1.52-.43,2.3-.5.58-.05,1.69-.02,2.58.74,1,.87,1.06,2.2,1.09,2.78.01.44.05,1.39-.54,2.27-.1.16-.25.38-.44.57-.26.27-.6.51-1.04.53-.48.02-1.1-.2-1.28-.61-.01-.03-.03-.07-.03-.1-.03-.13-.03-.27-.01-.44.03-.29.05-.64-.15-1.09-.03-.21-.18-.54-.52-.66Z"/><path class="cls-1" d="M62.89,26.21h0s0-.61,0-.61l-.02-2.45v-.4s-.01-.61-.01-.61v-.74s-.02-1.12-.02-1.12l-.56,1.2c-.08.18-.19.33-.32.47h0c-.3.33-.73.54-1.2.57-.94.03-1.5-.7-1.57-.8,0,0,0-.01,0-.01l-.09-.14h-.33s-7.68.11-7.68.11h-1.13s0,.18,0,.18v.25s.03.37.03.37l.15,3.26.03.66v.15h.01l.28.04,1.02.14.63.09h0l3.27.46v-.36c0-.38.16-.75.44-1,.25-.22.56-.32.85-.28.48.07.96.58.93,1.29l-.02.37,3.43-.49.64-.1,1.26-.18v-.33ZM58.18,26.62c-.1-.79-.7-1.45-1.43-1.56-.07,0-.14-.01-.21-.01-.4,0-.79.16-1.11.44-.33.29-.55.68-.63,1.11l-4.06-.58-.16-3.64v-.09s.01,0,.01,0l7.89-.1h.28c.13.14.37.4.72.61.33.2.77.36,1.3.32.25,0,.49-.06.72-.15h0c.27-.1.53-.26.74-.45v.55s.03,2.95.03,2.95l-4.1.6Z"/><path class="cls-1" d="M64.65,24.42c-.06.34-.16.91-.67,1.35-.38.32-.8.42-1.09.44-.08.01-.14.01-.19.01h-.31v-.6h.3c.05,0,.12,0,.19-.01.2-.03.47-.11.7-.31.34-.29.42-.68.47-.99.04-.23.11-.61.05-.94h0c-.03-.2-.1-.38-.26-.51-.32-.26-.81-.16-.99-.11-.03,0-.05.02-.06.02l-.29.1-.19-.57.29-.1s.13-.04.25-.07c.06,0,.13-.02.2-.03.28-.03.65-.02.98.16h0c.06.03.12.08.18.12.36.29.48.71.51,1.11.03.36-.03.7-.08.91Z"/><path class="cls-1" d="M61.69,26.33l-.04.3s0,.06-.02.09c-.2,1.3-.9,2.44-1.87,3.23-.16.13-.32.25-.5.36-.76.48-1.65.78-2.59.8h-.13c-1.01,0-1.96-.3-2.76-.82-.18-.1-.34-.23-.5-.36-.95-.78-1.62-1.9-1.83-3.2,0-.04-.01-.07-.02-.1l-.04-.3.6-.08.04.3c.01.09.03.18.05.27h0c.42,2.18,2.34,3.77,4.56,3.69,2.11-.05,3.93-1.62,4.34-3.69.02-.08.04-.18.05-.27l.04-.3.6.08Z"/><polygon class="cls-1" points="55.15 36.1 52.15 32.02 52.64 31.66 55.21 35.16 59.79 30.48 60.23 30.91 55.15 36.1"/><polygon class="cls-1" points="58.34 36.09 52.99 30.65 53.42 30.22 58.28 35.17 60.76 31.96 61.24 32.33 58.34 36.09"/><rect class="cls-1" x="56.34" y="33.55" width=".61" height="4.33" transform="translate(-.82 1.34) rotate(-1.34)"/><rect class="cls-1" x="54.72" y="23.22" width="3.67" height=".6"/><path class="cls-1" d="M57.98,28.49c-.12.17-.55.73-1.33.82-.07.01-.15.01-.21.01-.87,0-1.41-.62-1.47-.7l-.19-.24.47-.38.19.23s.47.56,1.14.48c.55-.07.85-.48.9-.56l.17-.25.5.35-.17.25Z"/><path class="cls-1" d="M58.15,28.24l-.17.25c-.12.17-.55.73-1.33.82-.07.01-.15.01-.21.01-.87,0-1.41-.62-1.47-.7l-.19-.24.47-.38.19.23s.47.56,1.14.48c.55-.07.85-.48.9-.56l.17-.25.5.35Z"/><path class="cls-1" d="M29.02,26.22v-.61s.3,0,.3,0c.2,0,.58-.04.89-.32.34-.29.41-.68.47-.99.07-.36.2-1.11-.21-1.44-.37-.3-.98-.11-1.05-.09l-.29.1-.19-.57.29-.1c.16-.05,1.01-.3,1.62.19.69.56.51,1.58.43,2.02-.06.34-.17.91-.67,1.34-.47.4-1.01.46-1.29.46h-.3Z"/><path class="cls-1" d="M12.07,36.63l-.59-.15.08-.29c.1-.4.39-1.18,1.11-1.8.4-.35.89-.6,1.41-.73.78-.18,1.56-.37,2.35-.57.49-.12.98-.25,1.46-.37.51-.46.97-.99,1.35-1.56.28-.42.52-.86.73-1.33l.12-.28.56.24-.12.28c-.22.5-.48.98-.78,1.42-.42.63-.93,1.21-1.5,1.72l-.05.05-.07.02c-.51.13-1.02.26-1.53.39-.79.2-1.57.39-2.35.57-.42.11-.83.32-1.16.61-.6.51-.83,1.15-.92,1.49l-.08.29Z"/><path class="cls-1" d="M34.41,36.59l-.11-.28c-.18-.44-.44-.83-.77-1.15-.44-.42-.84-.66-1.27-.76-.67-.16-1.35-.34-2.02-.53-.69-.2-1.38-.42-2.05-.66l-.1-.06c-.49-.44-.93-.92-1.32-1.44-.36-.48-.68-1-.95-1.54l-.14-.27.54-.27.13.27c.25.51.55.99.89,1.45.35.47.76.91,1.2,1.31.65.22,1.3.44,1.96.63s1.33.37,1.99.52c.54.13,1.03.42,1.55.91.39.38.7.83.91,1.36l.11.28-.56.23Z"/><path class="cls-1" d="M16.78,26.6l-.2-4.49-.13-.14.11-.1c-.09-.62-.12-1.27-.07-1.92.06-.82.22-1.64.5-2.42l.05-.08c.24-.32.78-.89,1.66-1.15,1.05-.3,1.96.03,2.38.24.65-.43,1.36-.78,2.1-1.05.79-.28,1.61-.46,2.45-.54.67-.06,1.97-.02,3.03.89,1.2,1.04,1.27,2.55,1.29,3.2.02.48.07,1.59-.64,2.64-.27.4-.89,1.32-1.96,1.37-.68.02-1.56-.3-1.86-.97-.14-.3-.11-.58-.09-.83.02-.27.04-.51-.11-.82l-.03-.1h0s-.03-.17-.13-.21c-.81-.28-2.09-.57-3.59-.34-1.88.29-3.3,1.38-4.33,2.33l.2,4.46-.61.03ZM25.83,20.21c.2.44.17.8.15,1.09-.02.21-.03.37.04.54.18.41.8.64,1.28.61.77-.03,1.24-.73,1.49-1.1.59-.88.55-1.82.53-2.27-.02-.58-.08-1.91-1.08-2.77-.89-.77-2-.8-2.58-.75-.78.07-1.56.24-2.3.5-.75.27-1.46.63-2.11,1.08l-.16.11-.17-.1c-.23-.14-1.08-.56-2.07-.27-.68.2-1.11.63-1.32.89-.25.71-.4,1.46-.45,2.21-.03.46-.03.92.02,1.38,1.06-.93,2.47-1.91,4.32-2.19,1.63-.25,3.01.06,3.88.37.34.12.48.45.52.66Z"/><path class="cls-1" d="M29.52,26.21v-.61s-.04-2.85-.04-2.85v-.62s-.02-.73-.02-.73v-1.13s-.58,1.21-.58,1.21c-.28.61-.87,1-1.52,1.04-1,.04-1.57-.81-1.58-.81l-.09-.14h-.33s-7.68.1-7.68.1h-1.13s0,.19,0,.19v.24s.03.38.03.38l.12,2.55.04.71.03.66h0s0,.15,0,.15l.27.04h.01l1.02.14.63.09h0l3.28.47v-.35c0-.38.16-.75.44-1,.25-.22.56-.32.84-.28.48.07.98.58.94,1.29l-.02.37,3.43-.5.63-.09,1.27-.18v-.33ZM24.81,26.62c-.11-.79-.7-1.45-1.44-1.56-.07-.01-.15-.02-.21-.02-.39,0-.79.16-1.11.44-.33.29-.55.68-.63,1.11l-4.05-.58-.16-3.65v-.08s0,0,0,0l8.18-.1c.25.3.94,1.01,2.02.94.56-.02,1.07-.25,1.47-.61l.04,3.5-4.11.6Z"/><path class="cls-1" d="M17.26,25.93l-.19.58-.29-.1h0c-.4-.13-.95-.41-1.36-.99-.5-.73-.75-1.91-.1-2.79.36-.47.86-.67,1.24-.76h0c.1-.03.2-.04.28-.05l.3-.04.04.34.02.18v.08s-.01,0-.01,0l-.27.04c-.09.01-.2.03-.32.07,0,0,0,0,0,0-.26.07-.56.22-.79.51-.45.6-.28,1.5.12,2.07.24.34.55.55.82.67.08.04.16.07.23.09l.28.1Z"/><path class="cls-1" d="M28.32,26.33l-.04.3s0,.06-.02.09c-.2,1.3-.9,2.45-1.88,3.23-.16.14-.32.25-.49.36-.76.48-1.65.78-2.59.8h-.13c-1.01,0-1.96-.3-2.76-.82-.18-.11-.34-.23-.5-.36-.95-.78-1.63-1.9-1.83-3.21,0-.03-.01-.07-.02-.1l-.04-.3.6-.08.04.3c.01.09.03.18.05.27h0c.42,2.18,2.35,3.77,4.57,3.69,2.11-.05,3.92-1.62,4.34-3.69.02-.08.04-.18.05-.27l.04-.3.6.08Z"/><polygon class="cls-1" points="21.78 36.1 18.78 32.02 19.27 31.66 21.84 35.16 26.42 30.48 26.85 30.91 21.78 36.1"/><polygon class="cls-1" points="24.96 36.09 19.62 30.65 20.05 30.22 24.91 35.17 27.39 31.96 27.87 32.33 24.96 36.09"/><rect class="cls-1" x="22.97" y="33.55" width=".61" height="4.33" transform="translate(-.83 .56) rotate(-1.34)"/><rect class="cls-1" x="21.35" y="23.22" width="3.67" height=".61"/><path class="cls-1" d="M24.89,28.7c-.13.19-.62.82-1.5.92-.08.01-.16.01-.24.01-.98,0-1.58-.7-1.66-.79l-.22-.27.53-.43.21.26s.53.63,1.29.54c.61-.08.96-.54,1.02-.63l.19-.29.57.39-.19.28Z"/><path class="cls-1" d="M25.08,28.42l-.19.28c-.13.19-.62.82-1.5.92-.08.01-.16.01-.24.01-.98,0-1.58-.7-1.66-.79l-.22-.27.53-.43.21.26s.53.63,1.29.54c.61-.08.96-.54,1.02-.63l.19-.29.57.39Z"/></svg>